{
.appVersion = "3326";
.formatVersion = 3;
DisplayStrings = (
"AÄÆBCDEFGHIJKLMNOÖŒ
PQRSTUÜVWXYZ/N.alt 
aäbcdefghijklmnoö
pqrstuüvwxyz/s.hist/c_t/s_t/f_f/f_i  
.,:;*-&̈",
"mi/s_t um"
);
axes = (
{
name = "Optical size";
tag = opsz;
}
);
date = "2024-11-05 22:07:05 +0000";
familyName = "Groote-Italic";
featurePrefixes = (
{
automatic = 1;
code = "languagesystem DFLT dflt;
";
name = Languagesystems;
}
);
features = (
{
automatic = 1;
code = "feature hist;
";
tag = aalt;
},
{
automatic = 1;
code = "sub s by s.hist;
";
tag = hist;
},
{
automatic = 1;
code = "lookupflag IgnoreMarks;
sub c t by c_t;
sub s t by s_t;
";
tag = dlig;
},
{
automatic = 1;
code = "lookupflag IgnoreMarks;
sub f f by f_f;
sub f i by f_i;
";
tag = liga;
}
);
fontMaster = (
{
axesValues = (
10
);
customParameters = (
{
name = unitizerUnit;
value = 6.64466;
}
);
iconName = Bold;
id = m002;
metricValues = (
{
over = 8;
pos = 700;
},
{
over = 8;
pos = 700;
},
{
over = 8;
pos = 435;
},
{
over = -8;
},
{
over = -8;
pos = -150;
},
{
pos = 17;
}
);
name = Corsyf10;
stemValues = (
81,
38
);
userData = {
GSCornerRadius = 25;
};
},
{
axesValues = (
18
);
customParameters = (
{
name = unitizerUnit;
value = 6.64466;
}
);
iconName = Light;
id = m003;
metricValues = (
{
over = 8;
pos = 700;
},
{
over = 8;
pos = 700;
},
{
over = 8;
pos = 435;
},
{
over = -8;
},
{
over = -8;
pos = -150;
},
{
pos = 17;
}
);
name = Corsyf18;
stemValues = (
81,
28
);
userData = {
GSCornerRadius = 25;
};
}
);
glyphs = (
{
glyphname = A;
lastChange = "2024-11-10 10:58:22 +0000";
layers = (
{
anchors = (
{
name = bottom;
pos = (279,0);
},
{
name = ogonek;
pos = (558,10);
},
{
name = top;
pos = (430,635);
}
);
layerId = m002;
shapes = (
{
closed = 1;
nodes = (
(609,0,l),
(615,38,l),
(595,38,l),
(567,38,o),
(539,82,o),
(534,144,cs),
(495,679,l),
(495,719,l),
(483,728,l),
(462,716,o),
(431,704,o),
(395,700,c),
(387,666,l),
(412,659,l),
(432,388,o),
(448,162,o),
(451,99,cs),
(452,62,o),
(431,36,o),
(402,36,cs),
(349,36,l),
(342,-2,l)
);
},
{
closed = 1;
nodes = (
(215,1,l),
(221,38,l),
(215,38,o),
(219,39,o),
(204,39,cs),
(159,39,o),
(140,69,o),
(157,111,c),
(425,660,l),
(394,686,l),
(288,480,o),
(171,250,o),
(112,115,cs),
(92,70,o),
(53,39,o),
(16,39,cs),
(-33,39,l),
(-39,1,l)
);
},
{
closed = 1;
nodes = (
(492,288,l),
(503,338,l),
(238,338,l),
(227,288,l)
);
}
);
width = 690;
},
{
associatedMasterId = m002;
layerId = "71BEE3E3-4EFD-46D3-A9E9-4E45929C962F";
name = "Groote Garmond Romyn";
shapes = (
{
closed = 1;
nodes = (
(769,0,l),
(769,38,l),
(763,38,l),
(730,38,o),
(684,82,o),
(662,144,cs),
(468,679,l),
(458,719,l),
(447,728,l),
(426,716,o),
(381,704,o),
(339,700,c),
(339,666,l),
(371,659,l),
(467,388,o),
(550,162,o),
(571,99,cs),
(582,62,o),
(565,36,o),
(531,36,cs),
(468,36,l),
(468,-2,l)
);
},
{
closed = 1;
nodes = (
(317,1,l),
(317,38,l),
(310,38,o),
(315,39,o),
(297,39,cs),
(244,39,o),
(213,69,o),
(222,111,c),
(385,660,l),
(342,686,l),
(273,480,o),
(201,250,o),
(168,115,cs),
(157,70,o),
(119,39,o),
(76,39,cs),
(18,39,l),
(18,1,l)
);
},
{
closed = 1;
nodes = (
(565,288,l),
(565,333,l),
(253,333,l),
(253,288,l)
);
}
);
width = 787;
},
{
anchors = (
{
name = bottom;
pos = (282,0);
},
{
name = ogonek;
pos = (563,10);
},
{
name = top;
pos = (426,635);
}
);
layerId = m003;
shapes = (
{
closed = 1;
nodes = (
(612,0,l),
(618,28,l),
(598,28,l),
(570,28,o),
(541,72,o),
(537,134,cs),
(498,679,l),
(498,719,l),
(486,728,l),
(465,716,o),
(434,704,o),
(398,700,c),
(390,666,l),
(415,659,l),
(435,388,o),
(451,152,o),
(454,89,cs),
(455,52,o),
(434,26,o),
(405,26,cs),
(352,26,l),
(345,-2,l)
);
},
{
closed = 1;
nodes = (
(218,1,l),
(224,28,l),
(218,28,o),
(222,29,o),
(207,29,cs),
(162,29,o),
(143,59,o),
(160,101,c),
(428,660,l),
(397,686,l),
(291,480,o),
(174,240,o),
(115,105,cs),
(95,60,o),
(56,29,o),
(19,29,cs),
(-30,29,l),
(-36,1,l)
);
},
{
closed = 1;
nodes = (
(495,288,l),
(506,338,l),
(241,338,l),
(230,288,l)
);
}
);
width = 696;
},
{
associatedMasterId = m003;
layerId = "DE149DD7-0C59-43BC-A8DB-B098D9C903EC";
name = "Groote Garmond Romyn";
shapes = (
{
closed = 1;
nodes = (
(769,0,l),
(769,38,l),
(763,38,l),
(730,38,o),
(684,82,o),
(662,144,cs),
(468,679,l),
(458,719,l),
(447,728,l),
(426,716,o),
(381,704,o),
(339,700,c),
(339,666,l),
(371,659,l),
(467,388,o),
(550,162,o),
(571,99,cs),
(582,62,o),
(565,36,o),
(531,36,cs),
(468,36,l),
(468,-2,l)
);
},
{
closed = 1;
nodes = (
(317,1,l),
(317,38,l),
(310,38,o),
(315,39,o),
(297,39,cs),
(244,39,o),
(213,69,o),
(222,111,c),
(385,660,l),
(342,686,l),
(273,480,o),
(201,250,o),
(168,115,cs),
(157,70,o),
(119,39,o),
(76,39,cs),
(18,39,l),
(18,1,l)
);
},
{
closed = 1;
nodes = (
(565,288,l),
(565,333,l),
(253,333,l),
(253,288,l)
);
}
);
width = 787;
}
);
unicode = 65;
},
{
glyphname = AE;
lastChange = "2024-11-10 12:28:45 +0000";
layers = (
{
layerId = m002;
shapes = (
{
closed = 1;
nodes = (
(668,0,l),
(777,131,l),
(763,149,l),
(695,82,o),
(637,44,o),
(612,44,cs),
(576,44,o),
(518,44,o),
(500,44,cs),
(469,44,o),
(451,66,o),
(458,96,cs),
(465,126,o),
(582,623,o),
(585,635,cs),
(589,653,o),
(612,665,o),
(640,665,cs),
(657,665,o),
(694,665,o),
(709,665,cs),
(744,665,o),
(781,613,o),
(800,539,c),
(823,552,l),
(800,700,l),
(716,700,o),
(642,698,o),
(557,698,cs),
(517,698,o),
(382,700,o),
(337,700,c),
(330,672,l),
(374,672,o),
(436,672,o),
(460,672,cs),
(488,672,o),
(506,661,o),
(499,633,cs),
(482,559,o),
(387,157,o),
(377,116,cs),
(367,70,o),
(342,38,o),
(316,38,cs),
(289,38,l),
(282,0,l),
(317,0,o),
(362,2,o),
(393,2,cs),
(423,2,o),
(497,-2,o),
(531,-2,cs)
);
},
{
closed = 1;
nodes = (
(203,0,l),
(210,38,l),
(195,38,l),
(162,38,o),
(145,68,o),
(167,108,c),
(504,686,l),
(476,689,l),
(275,371,o),
(172,222,o),
(137,166,cs),
(92,93,o),
(31,38,o),
(-10,38,cs),
(-33,38,l),
(-40,0,l)
);
},
{
closed = 1;
nodes = (
(671,200,l),
(684,271,o),
(707,371,o),
(727,442,c),
(703,442,l),
(689,379,o),
(656,334,o),
(625,334,cs),
(269,334,l),
(261,298,l),
(314,298,o),
(597,298,o),
(618,298,cs),
(649,298,o),
(662,261,o),
(648,200,c)
);
}
);
width = 815;
},
{
associatedMasterId = m002;
layerId = "E24BD2E1-5A37-43FA-A372-5972EE87F895";
name = "Groote Garmond Romyn";
shapes = (
{
closed = 1;
nodes = (
(850,0,l),
(943,131,l),
(912,149,l),
(850,82,o),
(805,44,o),
(776,44,cs),
(733,44,o),
(665,44,o),
(644,44,cs),
(607,44,o),
(580,66,o),
(580,96,cs),
(580,126,o),
(580,613,o),
(580,625,cs),
(580,643,o),
(604,655,o),
(637,655,cs),
(657,655,o),
(701,655,o),
(718,655,cs),
(759,655,o),
(807,613,o),
(849,539,c),
(883,552,l),
(816,700,l),
(717,700,o),
(630,698,o),
(531,698,cs),
(483,698,o),
(324,700,o),
(271,700,c),
(271,662,l),
(322,662,o),
(395,662,o),
(423,662,cs),
(456,662,o),
(480,651,o),
(480,623,cs),
(480,549,o),
(480,157,o),
(480,116,cs),
(480,70,o),
(459,38,o),
(429,38,cs),
(397,38,l),
(397,0,l),
(438,0,o),
(490,2,o),
(526,2,cs),
(562,2,o),
(650,-2,o),
(690,-2,cs)
);
},
{
closed = 1;
nodes = (
(304,0,l),
(304,38,l),
(286,38,l),
(248,38,o),
(220,68,o),
(234,108,c),
(481,686,l),
(437,689,l),
(288,371,o),
(210,222,o),
(184,166,cs),
(150,93,o),
(94,38,o),
(45,38,cs),
(18,38,l),
(18,0,l)
);
},
{
closed = 1;
nodes = (
(805,200,l),
(801,271,o),
(801,371,o),
(805,442,c),
(772,442,l),
(772,379,o),
(746,344,o),
(709,344,cs),
(290,344,l),
(289,299,l),
(352,299,o),
(684,299,o),
(709,299,cs),
(746,299,o),
(773,261,o),
(773,200,c)
);
}
);
width = 988;
},
{
layerId = m003;
shapes = (
{
closed = 1;
nodes = (
(671,0,l),
(780,131,l),
(766,149,l),
(698,82,o),
(640,34,o),
(615,34,cs),
(579,34,o),
(521,34,o),
(503,34,cs),
(472,34,o),
(454,56,o),
(461,86,cs),
(468,116,o),
(585,623,o),
(588,635,cs),
(592,653,o),
(615,665,o),
(643,665,cs),
(660,665,o),
(697,665,o),
(712,665,cs),
(747,665,o),
(784,613,o),
(803,539,c),
(826,552,l),
(803,700,l),
(719,700,o),
(645,698,o),
(560,698,cs),
(520,698,o),
(385,700,o),
(340,700,c),
(333,672,l),
(377,672,o),
(439,672,o),
(463,672,cs),
(491,672,o),
(509,661,o),
(502,633,cs),
(485,559,o),
(390,147,o),
(380,106,cs),
(370,60,o),
(345,28,o),
(319,28,cs),
(292,28,l),
(285,0,l),
(320,0,o),
(365,2,o),
(396,2,cs),
(426,2,o),
(500,-2,o),
(534,-2,cs)
);
},
{
closed = 1;
nodes = (
(206,0,l),
(213,28,l),
(198,28,l),
(165,28,o),
(148,58,o),
(170,98,c),
(507,686,l),
(479,689,l),
(278,371,o),
(175,212,o),
(140,156,cs),
(95,83,o),
(34,28,o),
(-7,28,cs),
(-30,28,l),
(-37,0,l)
);
},
{
closed = 1;
nodes = (
(674,200,l),
(687,271,o),
(710,371,o),
(730,442,c),
(706,442,l),
(692,379,o),
(659,334,o),
(628,334,cs),
(272,334,l),
(264,304,l),
(317,304,o),
(600,304,o),
(621,304,cs),
(652,304,o),
(665,261,o),
(651,200,c)
);
}
);
width = 821;
},
{
associatedMasterId = m003;
layerId = "1E3A629C-74B4-4024-8ECA-1D51C6B6EBA9";
name = "Groote Garmond Romyn";
shapes = (
{
closed = 1;
nodes = (
(850,0,l),
(943,131,l),
(912,149,l),
(850,82,o),
(805,44,o),
(776,44,cs),
(733,44,o),
(665,44,o),
(644,44,cs),
(607,44,o),
(580,66,o),
(580,96,cs),
(580,126,o),
(580,613,o),
(580,625,cs),
(580,643,o),
(604,655,o),
(637,655,cs),
(657,655,o),
(701,655,o),
(718,655,cs),
(759,655,o),
(807,613,o),
(849,539,c),
(883,552,l),
(816,700,l),
(717,700,o),
(630,698,o),
(531,698,cs),
(483,698,o),
(324,700,o),
(271,700,c),
(271,662,l),
(322,662,o),
(395,662,o),
(423,662,cs),
(456,662,o),
(480,651,o),
(480,623,cs),
(480,549,o),
(480,157,o),
(480,116,cs),
(480,70,o),
(459,38,o),
(429,38,cs),
(397,38,l),
(397,0,l),
(438,0,o),
(490,2,o),
(526,2,cs),
(562,2,o),
(650,-2,o),
(690,-2,cs)
);
},
{
closed = 1;
nodes = (
(304,0,l),
(304,38,l),
(286,38,l),
(248,38,o),
(220,68,o),
(234,108,c),
(481,686,l),
(437,689,l),
(288,371,o),
(210,222,o),
(184,166,cs),
(150,93,o),
(94,38,o),
(45,38,cs),
(18,38,l),
(18,0,l)
);
},
{
closed = 1;
nodes = (
(805,200,l),
(801,271,o),
(801,371,o),
(805,442,c),
(772,442,l),
(772,379,o),
(746,344,o),
(709,344,cs),
(290,344,l),
(289,299,l),
(352,299,o),
(684,299,o),
(709,299,cs),
(746,299,o),
(773,261,o),
(773,200,c)
);
}
);
width = 988;
}
);
metricLeft = A;
metricRight = E;
unicode = 198;
},
{
glyphname = B;
lastChange = "2024-11-09 12:49:38 +0000";
layers = (
{
layerId = m002;
shapes = (
{
closed = 1;
nodes = (
(29,0,o),
(60,2,o),
(103,2,cs),
(147,2,o),
(253,0,o),
(297,0,cs),
(413,0,o),
(513,78,o),
(538,188,cs),
(564,299,o),
(484,377,o),
(347,377,cs),
(217,377,l),
(207,336,l),
(250,336,o),
(301,336,o),
(337,336,cs),
(410,336,o),
(448,273,o),
(427,185,cs),
(406,95,o),
(344,31,o),
(278,31,cs),
(215,31,o),
(174,57,o),
(183,94,cs),
(315,669,l),
(340,669,o),
(379,669,o),
(406,669,cs),
(468,669,o),
(499,609,o),
(479,523,cs),
(459,437,o),
(388,377,o),
(307,377,c),
(300,344,l),
(439,344,o),
(557,426,o),
(583,541,cs),
(604,629,o),
(535,694,o),
(418,699,cs),
(421,698,o),
(362,698,o),
(277,698,cs),
(253,698,o),
(163,700,o),
(148,700,c),
(142,662,l),
(149,662,o),
(155,662,o),
(164,662,cs),
(203,662,o),
(225,637,o),
(217,601,cs),
(206,552,o),
(100,114,o),
(92,81,cs),
(87,56,o),
(61,38,o),
(31,38,cs),
(0,38,l),
(-6,0,l)
);
}
);
width = 614;
},
{
associatedMasterId = m002;
layerId = "2358FA11-0F5E-45F7-A804-451CE7B8CD72";
name = "Groote Garmond Romyn";
shapes = (
{
closed = 1;
nodes = (
(72,0,o),
(108,2,o),
(158,2,cs),
(210,2,o),
(335,0,o),
(387,0,cs),
(523,0,o),
(620,78,o),
(620,188,cs),
(620,299,o),
(505,382,o),
(343,382,cs),
(190,382,l),
(190,331,l),
(241,331,o),
(300,331,o),
(343,331,cs),
(429,331,o),
(490,273,o),
(490,185,cs),
(490,95,o),
(434,41,o),
(356,41,cs),
(282,41,o),
(227,67,o),
(227,104,cs),
(227,659,l),
(256,659,o),
(302,659,o),
(333,659,cs),
(407,659,o),
(459,609,o),
(459,523,cs),
(459,437,o),
(392,382,o),
(297,382,c),
(297,339,l),
(461,339,o),
(577,426,o),
(577,541,cs),
(577,629,o),
(478,694,o),
(339,699,cs),
(343,698,o),
(274,698,o),
(174,698,cs),
(146,698,o),
(39,700,o),
(22,700,c),
(22,662,l),
(31,662,o),
(37,662,o),
(48,662,cs),
(94,662,o),
(127,647,o),
(127,611,cs),
(127,562,o),
(127,104,o),
(127,71,cs),
(127,46,o),
(102,38,o),
(67,38,cs),
(30,38,l),
(30,0,l)
);
}
);
width = 675;
},
{
layerId = m003;
shapes = (
{
closed = 1;
nodes = (
(32,0,o),
(63,2,o),
(106,2,cs),
(150,2,o),
(256,0,o),
(300,0,cs),
(416,0,o),
(516,78,o),
(541,188,cs),
(567,299,o),
(487,377,o),
(350,377,cs),
(220,377,l),
(210,336,l),
(253,336,o),
(304,336,o),
(340,336,cs),
(413,336,o),
(451,273,o),
(430,185,cs),
(409,95,o),
(347,31,o),
(281,31,cs),
(218,31,o),
(177,57,o),
(186,94,cs),
(318,669,l),
(343,669,o),
(382,669,o),
(409,669,cs),
(471,669,o),
(502,609,o),
(482,523,cs),
(462,437,o),
(391,377,o),
(310,377,c),
(303,344,l),
(442,344,o),
(560,426,o),
(586,541,cs),
(607,629,o),
(538,694,o),
(421,699,cs),
(424,698,o),
(365,698,o),
(280,698,cs),
(256,698,o),
(166,700,o),
(151,700,c),
(145,672,l),
(152,672,o),
(158,672,o),
(167,672,cs),
(206,672,o),
(228,647,o),
(220,611,cs),
(209,562,o),
(103,104,o),
(95,71,cs),
(90,46,o),
(64,28,o),
(34,28,cs),
(3,28,l),
(-3,0,l)
);
}
);
width = 620;
},
{
associatedMasterId = m003;
layerId = "ED94B8C8-6114-4A8B-8E63-C8FFDB935BA0";
name = "Groote Garmond Romyn";
shapes = (
{
closed = 1;
nodes = (
(72,0,o),
(108,2,o),
(158,2,cs),
(210,2,o),
(335,0,o),
(387,0,cs),
(523,0,o),
(620,78,o),
(620,188,cs),
(620,299,o),
(505,382,o),
(343,382,cs),
(190,382,l),
(190,331,l),
(241,331,o),
(300,331,o),
(343,331,cs),
(429,331,o),
(490,273,o),
(490,185,cs),
(490,95,o),
(434,41,o),
(356,41,cs),
(282,41,o),
(227,67,o),
(227,104,cs),
(227,659,l),
(256,659,o),
(302,659,o),
(333,659,cs),
(407,659,o),
(459,609,o),
(459,523,cs),
(459,437,o),
(392,382,o),
(297,382,c),
(297,339,l),
(461,339,o),
(577,426,o),
(577,541,cs),
(577,629,o),
(478,694,o),
(339,699,cs),
(343,698,o),
(274,698,o),
(174,698,cs),
(146,698,o),
(39,700,o),
(22,700,c),
(22,662,l),
(31,662,o),
(37,662,o),
(48,662,cs),
(94,662,o),
(127,647,o),
(127,611,cs),
(127,562,o),
(127,104,o),
(127,71,cs),
(127,46,o),
(102,38,o),
(67,38,cs),
(30,38,l),
(30,0,l)
);
}
);
width = 675;
}
);
metricLeft = H;
metricRight = O;
unicode = 66;
},
{
glyphname = C;
lastChange = "2024-11-09 12:49:51 +0000";
layers = (
{
layerId = m002;
shapes = (
{
closed = 1;
nodes = (
(432,-8,o),
(541,44,o),
(608,118,c),
(641,249,l),
(612,251,l),
(571,124,o),
(474,34,o),
(362,34,cs),
(221,34,o),
(150,192,o),
(201,415,cs),
(238,574,o),
(355,687,o),
(471,687,cs),
(579,687,o),
(645,624,o),
(644,536,c),
(675,536,l),
(706,707,l),
(673,707,l),
(664,689,o),
(662,677,o),
(654,677,c),
(622,705,o),
(543,725,o),
(479,725,cs),
(289,725,o),
(131,573,o),
(81,359,cs),
(32,144,o),
(142,-8,o),
(333,-8,cs)
);
}
);
width = 694;
},
{
associatedMasterId = m002;
layerId = "FBDAC0B6-408B-4C38-A19F-5783C7DE9842";
name = "Groote Garmond Romyn";
shapes = (
{
closed = 1;
nodes = (
(565,-8,o),
(690,44,o),
(749,118,c),
(752,259,l),
(729,261,l),
(716,134,o),
(614,44,o),
(483,44,cs),
(317,44,o),
(190,192,o),
(190,415,cs),
(190,574,o),
(297,677,o),
(433,677,cs),
(560,677,o),
(667,614,o),
(690,526,c),
(714,526,l),
(704,707,l),
(677,707,l),
(672,689,o),
(661,677,o),
(651,677,c),
(606,705,o),
(520,725,o),
(444,725,cs),
(221,725,o),
(64,573,o),
(64,359,cs),
(64,144,o),
(223,-8,o),
(448,-8,cs)
);
}
);
width = 816;
},
{
layerId = m003;
shapes = (
{
closed = 1;
nodes = (
(435,-8,o),
(544,44,o),
(611,118,c),
(644,249,l),
(625,251,l),
(584,124,o),
(477,34,o),
(365,34,cs),
(224,34,o),
(153,192,o),
(204,415,cs),
(241,574,o),
(358,687,o),
(474,687,cs),
(582,687,o),
(658,624,o),
(657,536,c),
(678,536,l),
(709,707,l),
(686,707,l),
(677,689,o),
(665,677,o),
(657,677,c),
(625,705,o),
(546,725,o),
(482,725,cs),
(292,725,o),
(134,573,o),
(84,359,cs),
(35,144,o),
(145,-8,o),
(336,-8,cs)
);
}
);
width = 700;
},
{
associatedMasterId = m003;
layerId = "FA6D4EC4-0B5E-4426-9F98-9979CD939AB6";
name = "Groote Garmond Romyn";
shapes = (
{
closed = 1;
nodes = (
(565,-8,o),
(690,44,o),
(749,118,c),
(752,259,l),
(729,261,l),
(716,134,o),
(614,44,o),
(483,44,cs),
(317,44,o),
(190,192,o),
(190,415,cs),
(190,574,o),
(297,677,o),
(433,677,cs),
(560,677,o),
(667,614,o),
(690,526,c),
(714,526,l),
(704,707,l),
(677,707,l),
(672,689,o),
(661,677,o),
(651,677,c),
(606,705,o),
(520,725,o),
(444,725,cs),
(221,725,o),
(64,573,o),
(64,359,cs),
(64,144,o),
(223,-8,o),
(448,-8,cs)
);
}
);
width = 816;
}
);
metricLeft = O;
metricRight = O;
unicode = 67;
},
{
glyphname = D;
lastChange = "2024-11-09 12:50:05 +0000";
layers = (
{
layerId = m002;
shapes = (
{
closed = 1;
nodes = (
(40,-1,o),
(106,0,o),
(144,0,cs),
(193,0,o),
(254,-3,o),
(311,-3,cs),
(501,-3,o),
(674,160,o),
(727,390,cs),
(769,573,o),
(676,702,o),
(501,702,cs),
(448,702,o),
(327,700,o),
(301,700,cs),
(276,700,o),
(232,702,o),
(220,702,cs),
(158,702,l),
(151,662,l),
(162,662,o),
(162,662,o),
(185,662,cs),
(229,662,o),
(252,626,o),
(240,576,cs),
(225,509,o),
(143,163,o),
(135,132,cs),
(121,71,o),
(75,37,o),
(24,37,cs),
(-6,37,l),
(-13,-3,l)
);
},
{
closed = 1;
nodes = (
(251,42,o),
(205,63,o),
(215,107,cs),
(344,656,l),
(382,656,o),
(435,656,o),
(465,656,cs),
(587,656,o),
(654,546,o),
(613,368,cs),
(567,168,o),
(443,42,o),
(325,42,cs)
);
}
);
width = 732;
},
{
associatedMasterId = m002;
layerId = "7071D6A5-3071-441D-846F-16DB423121E4";
name = "Groote Garmond Romyn";
shapes = (
{
closed = 1;
nodes = (
(51,-1,o),
(128,0,o),
(173,0,cs),
(231,0,o),
(303,-3,o),
(370,-3,cs),
(594,-3,o),
(753,160,o),
(753,390,cs),
(753,573,o),
(608,702,o),
(402,702,cs),
(340,702,o),
(198,700,o),
(168,700,cs),
(138,700,o),
(86,702,o),
(72,702,cs),
(-1,702,l),
(-1,662,l),
(12,662,o),
(12,662,o),
(39,662,cs),
(90,662,o),
(127,636,o),
(127,586,cs),
(127,519,o),
(127,163,o),
(127,132,cs),
(127,71,o),
(84,37,o),
(25,37,cs),
(-11,37,l),
(-11,-3,l)
);
},
{
closed = 1;
nodes = (
(290,42,o),
(227,63,o),
(227,107,cs),
(227,656,l),
(272,656,o),
(334,656,o),
(370,656,cs),
(513,656,o),
(625,546,o),
(625,368,cs),
(625,168,o),
(516,42,o),
(377,42,cs)
);
}
);
width = 817;
},
{
layerId = m003;
shapes = (
{
closed = 1;
nodes = (
(43,-1,o),
(109,0,o),
(147,0,cs),
(196,0,o),
(257,-3,o),
(314,-3,cs),
(504,-3,o),
(677,160,o),
(730,390,cs),
(772,573,o),
(679,702,o),
(504,702,cs),
(451,702,o),
(330,700,o),
(304,700,cs),
(279,700,o),
(235,702,o),
(223,702,cs),
(161,702,l),
(154,672,l),
(165,672,o),
(165,672,o),
(188,672,cs),
(232,672,o),
(255,636,o),
(243,586,cs),
(228,519,o),
(146,163,o),
(138,132,cs),
(124,71,o),
(78,27,o),
(27,27,cs),
(-3,27,l),
(-10,-3,l)
);
},
{
closed = 1;
nodes = (
(254,32,o),
(207,63,o),
(218,107,cs),
(347,666,l),
(385,666,o),
(438,666,o),
(468,666,cs),
(590,666,o),
(657,546,o),
(616,368,cs),
(570,168,o),
(446,32,o),
(328,32,cs)
);
}
);
width = 738;
},
{
associatedMasterId = m003;
layerId = "24BAA199-E0B1-4DBF-8A28-0A8DD0AB8195";
name = "Groote Garmond Romyn";
shapes = (
{
closed = 1;
nodes = (
(51,-1,o),
(128,0,o),
(173,0,cs),
(231,0,o),
(303,-3,o),
(370,-3,cs),
(594,-3,o),
(753,160,o),
(753,390,cs),
(753,573,o),
(608,702,o),
(402,702,cs),
(340,702,o),
(198,700,o),
(168,700,cs),
(138,700,o),
(86,702,o),
(72,702,cs),
(-1,702,l),
(-1,662,l),
(12,662,o),
(12,662,o),
(39,662,cs),
(90,662,o),
(127,636,o),
(127,586,cs),
(127,519,o),
(127,163,o),
(127,132,cs),
(127,71,o),
(84,37,o),
(25,37,cs),
(-11,37,l),
(-11,-3,l)
);
},
{
closed = 1;
nodes = (
(290,42,o),
(227,63,o),
(227,107,cs),
(227,656,l),
(272,656,o),
(334,656,o),
(370,656,cs),
(513,656,o),
(625,546,o),
(625,368,cs),
(625,168,o),
(516,42,o),
(377,42,cs)
);
}
);
width = 817;
}
);
metricLeft = H;
metricRight = O;
unicode = 68;
},
{
glyphname = E;
lastChange = "2024-11-09 12:50:33 +0000";
layers = (
{
layerId = m002;
shapes = (
{
closed = 1;
nodes = (
(434,-1,l),
(534,143,l),
(506,158,l),
(450,82,o),
(384,44,o),
(346,44,cs),
(329,44,o),
(213,44,o),
(191,44,cs),
(167,44,o),
(157,56,o),
(164,88,cs),
(191,202,o),
(282,599,o),
(287,620,cs),
(293,646,o),
(321,655,o),
(357,655,cs),
(374,655,o),
(463,655,o),
(474,655,cs),
(526,655,o),
(544,625,o),
(530,561,c),
(563,561,l),
(595,700,l),
(524,700,o),
(399,700,o),
(382,700,cs),
(365,700,o),
(284,697,o),
(272,697,cs),
(259,697,o),
(177,700,o),
(158,700,c),
(150,657,l),
(188,657,o),
(207,643,o),
(200,609,cs),
(194,585,o),
(101,181,o),
(91,137,cs),
(76,76,o),
(50,43,o),
(23,43,cs),
(-7,43,l),
(-14,0,l),
(12,0,o),
(64,0,o),
(101,0,cs),
(139,0,o),
(193,-1,o),
(224,-1,cs)
);
},
{
closed = 1;
nodes = (
(445,260,l),
(457,327,o),
(473,395,o),
(492,462,c),
(458,462,l),
(444,403,o),
(417,379,o),
(384,379,cs),
(206,379,l),
(199,339,l),
(252,339,o),
(356,339,o),
(377,339,cs),
(411,339,o),
(420,295,o),
(412,260,c)
);
}
);
width = 587;
},
{
associatedMasterId = m002;
layerId = "1AB3F247-CAAB-456A-B478-6211DD28D4BA";
name = "Groote Garmond Romyn";
shapes = (
{
closed = 1;
nodes = (
(568,-1,l),
(647,143,l),
(612,158,l),
(566,82,o),
(512,44,o),
(467,44,cs),
(447,44,o),
(299,44,o),
(273,44,cs),
(245,44,o),
(227,66,o),
(227,88,cs),
(227,202,o),
(227,589,o),
(227,610,cs),
(227,636,o),
(255,655,o),
(297,655,cs),
(317,655,o),
(422,655,o),
(435,655,cs),
(496,655,o),
(530,625,o),
(530,561,c),
(568,561,l),
(568,700,l),
(484,700,o),
(337,700,o),
(317,700,cs),
(297,700,o),
(203,697,o),
(188,697,cs),
(173,697,o),
(76,700,o),
(53,700,c),
(53,657,l),
(98,657,o),
(127,633,o),
(127,599,cs),
(127,575,o),
(127,181,o),
(127,137,cs),
(127,76,o),
(107,43,o),
(76,43,cs),
(41,43,l),
(41,0,l),
(72,0,o),
(133,0,o),
(177,0,cs),
(221,0,o),
(285,-1,o),
(322,-1,cs)
);
},
{
closed = 1;
nodes = (
(504,260,l),
(500,327,o),
(500,395,o),
(504,462,c),
(471,462,l),
(471,403,o),
(447,379,o),
(408,379,cs),
(199,379,l),
(198,339,l),
(261,339,o),
(383,339,o),
(408,339,cs),
(448,339,o),
(472,295,o),
(472,260,c)
);
}
);
width = 692;
},
{
layerId = m003;
shapes = (
{
closed = 1;
nodes = (
(437,-1,l),
(537,143,l),
(519,158,l),
(463,82,o),
(397,34,o),
(359,34,cs),
(342,34,o),
(216,34,o),
(194,34,cs),
(170,34,o),
(160,56,o),
(167,88,cs),
(194,202,o),
(285,599,o),
(290,620,cs),
(296,646,o),
(324,665,o),
(360,665,cs),
(377,665,o),
(466,665,o),
(477,665,cs),
(529,665,o),
(557,625,o),
(543,561,c),
(566,561,l),
(598,700,l),
(527,700,o),
(402,700,o),
(385,700,cs),
(368,700,o),
(287,697,o),
(275,697,cs),
(262,697,o),
(180,700,o),
(161,700,c),
(153,667,l),
(191,667,o),
(210,643,o),
(203,609,cs),
(197,585,o),
(104,181,o),
(94,137,cs),
(79,76,o),
(53,33,o),
(26,33,cs),
(-4,33,l),
(-11,0,l),
(15,0,o),
(67,0,o),
(104,0,cs),
(142,0,o),
(196,-1,o),
(227,-1,cs)
);
},
{
closed = 1;
nodes = (
(438,260,l),
(450,327,o),
(466,395,o),
(485,462,c),
(461,462,l),
(447,403,o),
(420,374,o),
(387,374,cs),
(209,374,l),
(202,344,l),
(255,344,o),
(359,344,o),
(380,344,cs),
(414,344,o),
(423,295,o),
(415,260,c)
);
}
);
width = 593;
},
{
associatedMasterId = m003;
layerId = "34B9DF5E-0FDC-4ECD-89E3-7871CBFD0CDD";
name = "Groote Garmond Romyn";
shapes = (
{
closed = 1;
nodes = (
(568,-1,l),
(647,143,l),
(612,158,l),
(566,82,o),
(512,44,o),
(467,44,cs),
(447,44,o),
(299,44,o),
(273,44,cs),
(245,44,o),
(227,66,o),
(227,88,cs),
(227,202,o),
(227,589,o),
(227,610,cs),
(227,636,o),
(255,655,o),
(297,655,cs),
(317,655,o),
(422,655,o),
(435,655,cs),
(496,655,o),
(530,625,o),
(530,561,c),
(568,561,l),
(568,700,l),
(484,700,o),
(337,700,o),
(317,700,cs),
(297,700,o),
(203,697,o),
(188,697,cs),
(173,697,o),
(76,700,o),
(53,700,c),
(53,657,l),
(98,657,o),
(127,633,o),
(127,599,cs),
(127,575,o),
(127,181,o),
(127,137,cs),
(127,76,o),
(107,43,o),
(76,43,cs),
(41,43,l),
(41,0,l),
(72,0,o),
(133,0,o),
(177,0,cs),
(221,0,o),
(285,-1,o),
(322,-1,cs)
);
},
{
closed = 1;
nodes = (
(504,260,l),
(500,327,o),
(500,395,o),
(504,462,c),
(471,462,l),
(471,403,o),
(447,379,o),
(408,379,cs),
(199,379,l),
(198,339,l),
(261,339,o),
(383,339,o),
(408,339,cs),
(448,339,o),
(472,295,o),
(472,260,c)
);
}
);
width = 692;
}
);
metricLeft = H;
metricRight = H;
unicode = 69;
},
{
glyphname = F;
lastChange = "2024-11-09 12:50:57 +0000";
layers = (
{
layerId = m002;
shapes = (
{
closed = 1;
nodes = (
(229,37,l),
(211,37,o),
(196,37,o),
(189,37,cs),
(165,37,o),
(155,49,o),
(163,81,cs),
(189,195,o),
(279,600,o),
(287,620,cs),
(293,636,o),
(321,655,o),
(357,655,cs),
(374,655,o),
(463,655,o),
(474,655,cs),
(526,655,o),
(536,625,o),
(530,561,c),
(563,561,l),
(587,700,l),
(516,700,o),
(399,700,o),
(382,700,cs),
(365,700,o),
(284,697,o),
(272,697,cs),
(259,697,o),
(177,700,o),
(158,700,c),
(150,657,l),
(188,657,o),
(207,633,o),
(200,609,cs),
(193,585,o),
(101,181,o),
(91,137,cs),
(75,69,o),
(48,36,o),
(22,36,cs),
(-8,36,l),
(-14,0,l),
(12,0,o),
(64,0,o),
(101,0,cs),
(138,0,o),
(191,-1,o),
(223,-1,c)
);
},
{
closed = 1;
nodes = (
(424,240,l),
(436,307,o),
(461,415,o),
(479,482,c),
(446,482,l),
(432,423,o),
(400,379,o),
(367,379,cs),
(206,379,l),
(199,344,l),
(252,344,o),
(339,344,o),
(360,344,cs),
(394,344,o),
(399,275,o),
(391,240,c)
);
}
);
width = 518;
},
{
associatedMasterId = m002;
layerId = "376A225D-D448-4A82-B5A8-13CBEC3AFDCB";
name = "Groote Garmond Romyn";
shapes = (
{
closed = 1;
nodes = (
(320,37,l),
(298,37,o),
(281,37,o),
(273,37,cs),
(245,37,o),
(227,49,o),
(227,81,cs),
(227,195,o),
(227,589,o),
(227,610,cs),
(227,636,o),
(255,655,o),
(297,655,cs),
(317,655,o),
(422,655,o),
(435,655,cs),
(496,655,o),
(520,625,o),
(530,561,c),
(568,561,l),
(558,700,l),
(474,700,o),
(337,700,o),
(317,700,cs),
(297,700,o),
(203,697,o),
(188,697,cs),
(173,697,o),
(76,700,o),
(53,700,c),
(53,657,l),
(98,657,o),
(127,633,o),
(127,599,cs),
(127,575,o),
(127,181,o),
(127,137,cs),
(127,69,o),
(107,36,o),
(76,36,cs),
(41,36,l),
(41,0,l),
(72,0,o),
(133,0,o),
(177,0,cs),
(220,0,o),
(283,-1,o),
(320,-1,c)
);
},
{
closed = 1;
nodes = (
(484,240,l),
(480,307,o),
(480,415,o),
(484,482,c),
(451,482,l),
(451,423,o),
(427,379,o),
(388,379,cs),
(199,379,l),
(198,339,l),
(261,339,o),
(363,339,o),
(388,339,cs),
(428,339,o),
(452,275,o),
(452,240,c)
);
}
);
width = 586;
},
{
layerId = m003;
shapes = (
{
closed = 1;
nodes = (
(232,27,l),
(214,27,o),
(199,27,o),
(192,27,cs),
(168,27,o),
(158,49,o),
(166,81,cs),
(192,195,o),
(285,599,o),
(290,620,cs),
(296,646,o),
(324,665,o),
(360,665,cs),
(377,665,o),
(466,665,o),
(477,665,cs),
(529,665,o),
(549,625,o),
(543,561,c),
(566,561,l),
(590,700,l),
(519,700,o),
(402,700,o),
(385,700,cs),
(368,700,o),
(287,697,o),
(275,697,cs),
(262,697,o),
(180,700,o),
(161,700,c),
(153,667,l),
(191,667,o),
(210,643,o),
(203,609,cs),
(197,585,o),
(104,181,o),
(94,137,cs),
(78,69,o),
(51,26,o),
(25,26,cs),
(-5,26,l),
(-11,0,l),
(15,0,o),
(67,0,o),
(104,0,cs),
(141,0,o),
(194,-1,o),
(226,-1,c)
);
},
{
closed = 1;
nodes = (
(417,240,l),
(429,307,o),
(454,415,o),
(472,482,c),
(449,482,l),
(435,423,o),
(403,374,o),
(370,374,cs),
(209,374,l),
(202,344,l),
(255,344,o),
(342,344,o),
(363,344,cs),
(397,344,o),
(402,275,o),
(394,240,c)
);
}
);
width = 524;
},
{
associatedMasterId = m003;
layerId = "1A9C66C1-D8F2-4BA7-8588-3ABD404EDBCA";
name = "Groote Garmond Romyn";
shapes = (
{
closed = 1;
nodes = (
(320,37,l),
(298,37,o),
(281,37,o),
(273,37,cs),
(245,37,o),
(227,49,o),
(227,81,cs),
(227,195,o),
(227,589,o),
(227,610,cs),
(227,636,o),
(255,655,o),
(297,655,cs),
(317,655,o),
(422,655,o),
(435,655,cs),
(496,655,o),
(520,625,o),
(530,561,c),
(568,561,l),
(558,700,l),
(474,700,o),
(337,700,o),
(317,700,cs),
(297,700,o),
(203,697,o),
(188,697,cs),
(173,697,o),
(76,700,o),
(53,700,c),
(53,657,l),
(98,657,o),
(127,633,o),
(127,599,cs),
(127,575,o),
(127,181,o),
(127,137,cs),
(127,69,o),
(107,36,o),
(76,36,cs),
(41,36,l),
(41,0,l),
(72,0,o),
(133,0,o),
(177,0,cs),
(220,0,o),
(283,-1,o),
(320,-1,c)
);
},
{
closed = 1;
nodes = (
(484,240,l),
(480,307,o),
(480,415,o),
(484,482,c),
(451,482,l),
(451,423,o),
(427,379,o),
(388,379,cs),
(199,379,l),
(198,339,l),
(261,339,o),
(363,339,o),
(388,339,cs),
(428,339,o),
(452,275,o),
(452,240,c)
);
}
);
width = 586;
}
);
metricLeft = H;
metricRight = H;
unicode = 70;
},
{
glyphname = G;
lastChange = "2024-11-09 12:51:19 +0000";
layers = (
{
layerId = m002;
shapes = (
{
closed = 1;
nodes = (
(408,-20,o),
(513,13,o),
(594,59,c),
(597,76,l),
(589,82,o),
(585,92,o),
(586,99,cs),
(589,112,o),
(610,199,o),
(615,222,cs),
(622,252,o),
(644,274,o),
(667,274,cs),
(687,274,l),
(695,319,l),
(427,319,l),
(419,273,l),
(439,273,o),
(499,273,o),
(504,273,cs),
(525,273,o),
(532,234,o),
(519,180,cs),
(496,80,o),
(424,10,o),
(357,10,cs),
(224,10,o),
(146,150,o),
(191,347,cs),
(236,540,o),
(370,676,o),
(516,676,cs),
(608,676,o),
(663,606,o),
(664,507,c),
(691,507,l),
(735,694,l),
(677,694,o),
(587,712,o),
(509,712,cs),
(305,712,o),
(126,561,o),
(77,348,cs),
(27,132,o),
(137,-20,o),
(342,-20,cs)
);
}
);
width = 726;
},
{
associatedMasterId = m002;
layerId = "E728789F-F541-4868-851F-AC3A7ECD1FC8";
name = "Groote Garmond Romyn";
shapes = (
{
closed = 1;
nodes = (
(554,-20,o),
(668,13,o),
(751,59,c),
(751,73,l),
(740,79,o),
(732,89,o),
(732,96,cs),
(732,109,o),
(732,199,o),
(732,222,cs),
(732,252,o),
(751,274,o),
(778,274,cs),
(802,274,l),
(802,319,l),
(487,319,l),
(487,273,l),
(510,273,o),
(581,273,o),
(587,273,cs),
(612,273,o),
(630,234,o),
(630,180,cs),
(630,80,o),
(564,20,o),
(485,20,cs),
(329,20,o),
(199,150,o),
(199,347,cs),
(199,540,o),
(320,666,o),
(492,666,cs),
(600,666,o),
(695,596,o),
(723,497,c),
(744,497,l),
(744,694,l),
(676,694,o),
(566,712,o),
(474,712,cs),
(234,712,o),
(64,561,o),
(64,348,cs),
(64,132,o),
(235,-20,o),
(476,-20,cs)
);
}
);
width = 859;
},
{
layerId = m003;
shapes = (
{
closed = 1;
nodes = (
(411,-20,o),
(516,13,o),
(597,59,c),
(600,73,l),
(592,79,o),
(588,89,o),
(589,96,cs),
(592,109,o),
(613,199,o),
(618,222,cs),
(625,252,o),
(647,274,o),
(670,274,cs),
(690,274,l),
(698,309,l),
(430,309,l),
(422,273,l),
(442,273,o),
(502,273,o),
(507,273,cs),
(528,273,o),
(535,234,o),
(522,180,cs),
(499,80,o),
(427,10,o),
(360,10,cs),
(227,10,o),
(149,150,o),
(194,347,cs),
(239,540,o),
(373,676,o),
(519,676,cs),
(611,676,o),
(676,606,o),
(677,507,c),
(694,507,l),
(738,694,l),
(680,694,o),
(590,712,o),
(512,712,cs),
(308,712,o),
(129,561,o),
(80,348,cs),
(30,132,o),
(140,-20,o),
(345,-20,cs)
);
}
);
width = 732;
},
{
associatedMasterId = m003;
layerId = "1B3C6BD8-3EAF-43AC-BA9B-E6B8FDABBF4A";
name = "Groote Garmond Romyn";
shapes = (
{
closed = 1;
nodes = (
(554,-20,o),
(668,13,o),
(751,59,c),
(751,73,l),
(740,79,o),
(732,89,o),
(732,96,cs),
(732,109,o),
(732,199,o),
(732,222,cs),
(732,252,o),
(751,274,o),
(778,274,cs),
(802,274,l),
(802,319,l),
(487,319,l),
(487,273,l),
(510,273,o),
(581,273,o),
(587,273,cs),
(612,273,o),
(630,234,o),
(630,180,cs),
(630,80,o),
(564,20,o),
(485,20,cs),
(329,20,o),
(199,150,o),
(199,347,cs),
(199,540,o),
(320,666,o),
(492,666,cs),
(600,666,o),
(695,596,o),
(723,497,c),
(744,497,l),
(744,694,l),
(676,694,o),
(566,712,o),
(474,712,cs),
(234,712,o),
(64,561,o),
(64,348,cs),
(64,132,o),
(235,-20,o),
(476,-20,cs)
);
}
);
width = 859;
}
);
metricLeft = O;
metricRight = O;
unicode = 71;
},
{
glyphname = H;
lastChange = "2024-11-09 12:51:36 +0000";
layers = (
{
layerId = m002;
shapes = (
{
closed = 1;
nodes = (
(687,0,l),
(694,38,l),
(689,38,o),
(684,38,o),
(678,38,cs),
(636,38,o),
(603,63,o),
(615,112,cs),
(620,137,o),
(723,581,o),
(728,605,cs),
(737,644,o),
(773,662,o),
(797,662,cs),
(821,662,l),
(828,700,l),
(568,700,l),
(562,662,l),
(571,662,o),
(579,662,o),
(590,662,cs),
(624,662,o),
(654,652,o),
(648,624,cs),
(643,601,o),
(537,146,o),
(533,125,cs),
(519,68,o),
(476,38,o),
(444,38,cs),
(410,38,l),
(403,0,l)
);
},
{
closed = 1;
nodes = (
(260,0,l),
(266,38,l),
(260,38,o),
(260,38,o),
(248,38,cs),
(205,38,o),
(171,61,o),
(182,108,cs),
(189,138,o),
(293,591,o),
(298,612,cs),
(306,647,o),
(336,662,o),
(355,662,cs),
(397,662,l),
(404,700,l),
(158,700,l),
(151,662,l),
(158,662,o),
(164,662,o),
(173,662,cs),
(196,662,o),
(226,659,o),
(222,649,cs),
(201,597,o),
(110,164,o),
(102,132,cs),
(88,71,o),
(47,38,o),
(25,38,cs),
(-8,38,l),
(-15,0,l)
);
},
{
closed = 1;
nodes = (
(622,335,l),
(630,380,l),
(236,380,l),
(228,335,l)
);
}
);
width = 783;
},
{
associatedMasterId = m002;
layerId = "6A4E8356-6A8A-4D0A-879E-EE3180E6DD20";
name = "Groote Garmond Romyn";
shapes = (
{
closed = 1;
nodes = (
(851,0,l),
(851,38,l),
(845,38,o),
(840,38,o),
(832,38,cs),
(783,38,o),
(735,73,o),
(735,112,cs),
(735,137,o),
(735,581,o),
(735,605,cs),
(735,634,o),
(769,662,o),
(798,662,cs),
(826,662,l),
(826,700,l),
(521,700,l),
(521,662,l),
(532,662,o),
(541,662,o),
(554,662,cs),
(594,662,o),
(635,642,o),
(635,624,cs),
(635,601,o),
(635,146,o),
(635,125,cs),
(635,78,o),
(595,38,o),
(557,38,cs),
(517,38,l),
(517,0,l)
);
},
{
closed = 1;
nodes = (
(348,0,l),
(348,38,l),
(341,38,o),
(341,38,o),
(327,38,cs),
(276,38,o),
(227,71,o),
(227,108,cs),
(227,138,o),
(227,591,o),
(227,612,cs),
(227,637,o),
(255,662,o),
(277,662,cs),
(327,662,l),
(327,700,l),
(38,700,l),
(38,662,l),
(46,662,o),
(53,662,o),
(63,662,cs),
(91,662,o),
(127,659,o),
(127,639,cs),
(127,585,o),
(127,164,o),
(127,132,cs),
(127,81,o),
(90,38,o),
(64,38,cs),
(25,38,l),
(25,0,l)
);
},
{
closed = 1;
nodes = (
(680,345,l),
(680,390,l),
(217,390,l),
(217,345,l)
);
}
);
width = 862;
},
{
layerId = m003;
shapes = (
{
closed = 1;
nodes = (
(690,0,l),
(697,28,l),
(692,28,o),
(687,28,o),
(681,28,cs),
(639,28,o),
(606,63,o),
(618,112,cs),
(623,137,o),
(726,581,o),
(731,605,cs),
(740,644,o),
(776,672,o),
(800,672,cs),
(824,672,l),
(831,700,l),
(571,700,l),
(565,672,l),
(574,672,o),
(582,672,o),
(593,672,cs),
(627,672,o),
(657,652,o),
(651,624,cs),
(646,601,o),
(540,146,o),
(536,125,cs),
(522,68,o),
(479,28,o),
(447,28,cs),
(413,28,l),
(406,0,l)
);
},
{
closed = 1;
nodes = (
(263,0,l),
(269,28,l),
(263,28,o),
(263,28,o),
(251,28,cs),
(208,28,o),
(174,61,o),
(185,108,cs),
(192,138,o),
(296,591,o),
(301,612,cs),
(309,647,o),
(339,672,o),
(358,672,cs),
(400,672,l),
(407,700,l),
(161,700,l),
(154,672,l),
(161,672,o),
(167,672,o),
(176,672,cs),
(199,672,o),
(229,669,o),
(225,649,cs),
(212,595,o),
(113,164,o),
(105,132,cs),
(91,71,o),
(50,28,o),
(28,28,cs),
(-5,28,l),
(-12,0,l)
);
},
{
closed = 1;
nodes = (
(625,345,l),
(633,380,l),
(239,380,l),
(231,345,l)
);
}
);
width = 789;
},
{
associatedMasterId = m003;
layerId = "19A71292-6EDC-4E59-9C2E-4AD0D6A240A6";
name = "Groote Garmond Romyn";
shapes = (
{
closed = 1;
nodes = (
(851,0,l),
(851,38,l),
(845,38,o),
(840,38,o),
(832,38,cs),
(783,38,o),
(735,73,o),
(735,112,cs),
(735,137,o),
(735,581,o),
(735,605,cs),
(735,634,o),
(769,662,o),
(798,662,cs),
(826,662,l),
(826,700,l),
(521,700,l),
(521,662,l),
(532,662,o),
(541,662,o),
(554,662,cs),
(594,662,o),
(635,642,o),
(635,624,cs),
(635,601,o),
(635,146,o),
(635,125,cs),
(635,78,o),
(595,38,o),
(557,38,cs),
(517,38,l),
(517,0,l)
);
},
{
closed = 1;
nodes = (
(348,0,l),
(348,38,l),
(341,38,o),
(341,38,o),
(327,38,cs),
(276,38,o),
(227,71,o),
(227,108,cs),
(227,138,o),
(227,591,o),
(227,612,cs),
(227,637,o),
(255,662,o),
(277,662,cs),
(327,662,l),
(327,700,l),
(38,700,l),
(38,662,l),
(46,662,o),
(53,662,o),
(63,662,cs),
(91,662,o),
(127,659,o),
(127,639,cs),
(127,585,o),
(127,164,o),
(127,132,cs),
(127,81,o),
(90,38,o),
(64,38,cs),
(25,38,l),
(25,0,l)
);
},
{
closed = 1;
nodes = (
(680,345,l),
(680,390,l),
(217,390,l),
(217,345,l)
);
}
);
width = 862;
}
);
unicode = 72;
},
{
glyphname = I;
lastChange = "2024-11-09 12:51:54 +0000";
layers = (
{
layerId = m002;
shapes = (
{
closed = 1;
nodes = (
(221,0,l),
(228,38,l),
(222,38,o),
(213,38,o),
(201,38,cs),
(183,38,o),
(175,71,o),
(186,108,cs),
(195,138,o),
(297,591,o),
(302,612,cs),
(310,647,o),
(335,662,o),
(359,662,cs),
(395,662,l),
(402,700,l),
(158,700,l),
(151,662,l),
(158,662,o),
(164,662,o),
(172,662,cs),
(206,662,o),
(229,652,o),
(226,639,cs),
(213,585,o),
(114,164,o),
(106,132,cs),
(92,71,o),
(55,38,o),
(20,38,cs),
(4,38,l),
(-2,0,l)
);
}
);
width = 327;
},
{
associatedMasterId = m002;
layerId = "39A67F10-5AE9-4527-A186-71D57AC98AD7";
name = "Groote Garmond Romyn";
shapes = (
{
closed = 1;
nodes = (
(298,0,l),
(298,38,l),
(291,38,o),
(281,38,o),
(267,38,cs),
(245,38,o),
(227,61,o),
(227,108,cs),
(227,138,o),
(227,591,o),
(227,612,cs),
(227,637,o),
(249,662,o),
(277,662,cs),
(320,662,l),
(320,700,l),
(33,700,l),
(33,662,l),
(41,662,o),
(48,662,o),
(58,662,cs),
(97,662,o),
(127,652,o),
(127,639,cs),
(127,585,o),
(127,164,o),
(127,132,cs),
(127,71,o),
(95,38,o),
(54,38,cs),
(35,38,l),
(35,0,l)
);
}
);
width = 354;
},
{
layerId = m003;
shapes = (
{
closed = 1;
nodes = (
(224,0,l),
(231,28,l),
(225,28,o),
(216,28,o),
(204,28,cs),
(186,28,o),
(178,61,o),
(189,108,cs),
(196,138,o),
(300,591,o),
(305,612,cs),
(313,647,o),
(338,672,o),
(362,672,cs),
(398,672,l),
(405,700,l),
(161,700,l),
(154,672,l),
(161,672,o),
(167,672,o),
(175,672,cs),
(209,672,o),
(232,662,o),
(229,649,cs),
(216,595,o),
(117,164,o),
(109,132,cs),
(95,71,o),
(58,28,o),
(23,28,cs),
(7,28,l),
(1,0,l)
);
}
);
width = 333;
},
{
associatedMasterId = m003;
layerId = "896C0740-5B96-4F45-AF40-B4185E07A668";
name = "Groote Garmond Romyn";
shapes = (
{
closed = 1;
nodes = (
(298,0,l),
(298,38,l),
(291,38,o),
(281,38,o),
(267,38,cs),
(245,38,o),
(227,61,o),
(227,108,cs),
(227,138,o),
(227,591,o),
(227,612,cs),
(227,637,o),
(249,662,o),
(277,662,cs),
(320,662,l),
(320,700,l),
(33,700,l),
(33,662,l),
(41,662,o),
(48,662,o),
(58,662,cs),
(97,662,o),
(127,652,o),
(127,639,cs),
(127,585,o),
(127,164,o),
(127,132,cs),
(127,71,o),
(95,38,o),
(54,38,cs),
(35,38,l),
(35,0,l)
);
}
);
width = 354;
}
);
metricLeft = H;
metricRight = H;
unicode = 73;
},
{
glyphname = J;
lastChange = "2024-11-09 12:52:06 +0000";
layers = (
{
layerId = m002;
shapes = (
{
closed = 1;
nodes = (
(-17,-373,o),
(64,-294,o),
(90,-183,cs),
(111,-92,o),
(264,570,o),
(273,611,cs),
(282,649,o),
(320,664,o),
(364,662,cs),
(389,661,l),
(396,700,l),
(133,700,l),
(126,661,l),
(134,661,o),
(140,662,o),
(149,662,cs),
(180,662,o),
(198,654,o),
(192,628,cs),
(183,591,o),
(-3,-217,o),
(-12,-254,cs),
(-24,-306,o),
(-59,-332,o),
(-97,-332,cs),
(-139,-332,o),
(-164,-320,o),
(-156,-288,cs),
(-150,-262,o),
(-137,-256,o),
(-133,-239,cs),
(-130,-227,o),
(-143,-219,o),
(-163,-219,cs),
(-187,-219,o),
(-210,-249,o),
(-220,-292,cs),
(-231,-339,o),
(-185,-373,o),
(-108,-373,cs)
);
}
);
width = 320;
},
{
associatedMasterId = m002;
layerId = "AEA07DFB-3F0F-465C-8B2C-5A49589849B1";
name = "Groote Garmond Romyn";
shapes = (
{
closed = 1;
nodes = (
(153,-373,o),
(227,-294,o),
(227,-183,cs),
(227,-92,o),
(227,570,o),
(227,611,cs),
(227,649,o),
(265,664,o),
(318,662,cs),
(347,661,l),
(347,700,l),
(38,700,l),
(38,661,l),
(47,661,o),
(54,662,o),
(65,662,cs),
(101,662,o),
(127,654,o),
(127,628,cs),
(127,591,o),
(127,-207,o),
(127,-244,cs),
(127,-296,o),
(95,-332,o),
(51,-332,cs),
(1,-332,o),
(-34,-310,o),
(-34,-278,cs),
(-34,-252,o),
(-20,-256,o),
(-20,-239,cs),
(-20,-227,o),
(-37,-219,o),
(-61,-219,cs),
(-89,-219,o),
(-108,-249,o),
(-108,-292,cs),
(-108,-339,o),
(-44,-373,o),
(46,-373,cs)
);
}
);
width = 336;
},
{
layerId = m003;
shapes = (
{
closed = 1;
nodes = (
(-14,-373,o),
(67,-294,o),
(93,-183,cs),
(114,-92,o),
(267,570,o),
(276,611,cs),
(285,649,o),
(323,674,o),
(367,672,cs),
(392,671,l),
(399,700,l),
(136,700,l),
(129,671,l),
(137,671,o),
(143,672,o),
(152,672,cs),
(183,672,o),
(201,654,o),
(195,628,cs),
(186,591,o),
(0,-217,o),
(-9,-254,cs),
(-21,-306,o),
(-56,-342,o),
(-94,-342,cs),
(-136,-342,o),
(-161,-320,o),
(-153,-288,cs),
(-147,-262,o),
(-134,-256,o),
(-130,-239,cs),
(-127,-227,o),
(-140,-219,o),
(-160,-219,cs),
(-184,-219,o),
(-207,-249,o),
(-217,-292,cs),
(-228,-339,o),
(-182,-373,o),
(-105,-373,cs)
);
}
);
width = 326;
},
{
associatedMasterId = m003;
layerId = "26F76F9F-F375-4A75-B201-A38276D4A77C";
name = "Groote Garmond Romyn";
shapes = (
{
closed = 1;
nodes = (
(153,-373,o),
(227,-294,o),
(227,-183,cs),
(227,-92,o),
(227,570,o),
(227,611,cs),
(227,649,o),
(265,664,o),
(318,662,cs),
(347,661,l),
(347,700,l),
(38,700,l),
(38,661,l),
(47,661,o),
(54,662,o),
(65,662,cs),
(101,662,o),
(127,654,o),
(127,628,cs),
(127,591,o),
(127,-207,o),
(127,-244,cs),
(127,-296,o),
(95,-332,o),
(51,-332,cs),
(1,-332,o),
(-34,-310,o),
(-34,-278,cs),
(-34,-252,o),
(-20,-256,o),
(-20,-239,cs),
(-20,-227,o),
(-37,-219,o),
(-61,-219,cs),
(-89,-219,o),
(-108,-249,o),
(-108,-292,cs),
(-108,-339,o),
(-44,-373,o),
(46,-373,cs)
);
}
);
width = 336;
}
);
metricRight = H;
unicode = 74;
},
{
glyphname = K;
lastChange = "2024-11-09 12:52:50 +0000";
layers = (
{
layerId = m002;
shapes = (
{
closed = 1;
nodes = (
(576,0,l),
(583,38,l),
(577,38,ls),
(553,38,o),
(526,45,o),
(500,87,cs),
(309,398,l),
(396,477,o),
(488,568,o),
(508,589,cs),
(539,621,o),
(607,649,o),
(628,649,cs),
(668,649,l),
(676,696,l),
(451,696,l),
(443,650,l),
(467,650,ls),
(474,650,o),
(497,631,o),
(459,589,c),
(223,368,l),
(248,478,o),
(275,575,o),
(279,594,cs),
(290,640,o),
(315,662,o),
(337,662,cs),
(366,662,l),
(372,700,l),
(158,700,l),
(152,662,l),
(175,662,ls),
(195,662,o),
(205,646,o),
(201,630,cs),
(75,83,ls),
(68,51,o),
(47,38,o),
(29,38,cs),
(16,38,l),
(9,0,l),
(223,0,l),
(230,38,l),
(204,38,ls),
(171,38,o),
(154,52,o),
(162,87,cs),
(214,318,l),
(230,333,l),
(405,36,ls),
(417,15,o),
(434,0,o),
(448,0,cs)
);
}
);
width = 654;
},
{
associatedMasterId = m002;
layerId = "1F64C1FF-A67F-4106-8B77-21B6609B8B33";
name = "3. Nov. 24, 11:35";
shapes = (
{
closed = 1;
nodes = (
(739,0,l),
(739,28,l),
(732,28,ls),
(704,28,o),
(669,57,o),
(627,99,cs),
(307,421,l),
(234,340,l),
(528,36,ls),
(548,15,o),
(572,0,o),
(588,0,cs)
);
},
{
closed = 1;
nodes = (
(324,0,l),
(324,28,l),
(293,28,ls),
(255,28,o),
(228,52,o),
(228,87,cs),
(228,111,o),
(226,229,o),
(226,345,cs),
(226,460,o),
(228,574,o),
(228,594,cs),
(228,640,o),
(249,672,o),
(275,672,cs),
(309,672,l),
(309,700,l),
(57,700,l),
(57,672,l),
(85,672,ls),
(108,672,o),
(127,655,o),
(127,630,cs),
(127,83,ls),
(127,51,o),
(109,28,o),
(88,28,cs),
(72,28,l),
(72,0,l)
);
},
{
closed = 1;
nodes = (
(297,391,o),
(471,557,o),
(499,589,cs),
(527,621,o),
(596,659,o),
(621,659,cs),
(668,659,l),
(668,696,l),
(403,696,l),
(403,660,l),
(431,660,ls),
(440,660,o),
(480,631,o),
(447,589,c),
(187,317,l),
(201,292,l)
);
}
);
width = 748;
},
{
associatedMasterId = m002;
layerId = "8C1C2218-978D-4D4A-886F-77EC90C89430";
name = "Groote Garmond Romyn";
shapes = (
{
closed = 1;
nodes = (
(739,0,l),
(739,38,l),
(732,38,ls),
(704,38,o),
(670,58,o),
(627,99,cs),
(318,400,l),
(399,479,o),
(479,569,o),
(499,589,cs),
(531,622,o),
(578,662,o),
(621,662,cs),
(668,662,l),
(668,700,l),
(403,700,l),
(403,662,l),
(431,662,ls),
(477,662,o),
(482,631,o),
(446,589,c),
(225,358,l),
(225,468,o),
(228,575,o),
(228,594,cs),
(228,640,o),
(249,662,o),
(275,662,cs),
(309,662,l),
(309,700,l),
(57,700,l),
(57,662,l),
(85,662,ls),
(108,662,o),
(127,645,o),
(127,630,cs),
(127,83,ls),
(127,51,o),
(109,38,o),
(88,38,cs),
(72,38,l),
(72,0,l),
(324,0,l),
(324,38,l),
(293,38,ls),
(255,38,o),
(228,52,o),
(228,87,cs),
(226,308,l),
(241,323,l),
(523,36,ls),
(544,15,o),
(572,0,o),
(588,0,cs)
);
}
);
width = 748;
},
{
associatedMasterId = m002;
layerId = "833D1891-66C0-4DC5-ACA4-8E4BF17CF2AD";
name = "Groote Garmond Romyn";
shapes = (
{
closed = 1;
nodes = (
(739,0,l),
(739,28,l),
(732,28,ls),
(704,28,o),
(669,57,o),
(627,99,cs),
(307,421,l),
(234,340,l),
(528,36,ls),
(548,15,o),
(572,0,o),
(588,0,cs)
);
},
{
closed = 1;
nodes = (
(324,0,l),
(324,28,l),
(293,28,ls),
(255,28,o),
(228,52,o),
(228,87,cs),
(228,111,o),
(226,229,o),
(226,345,cs),
(226,460,o),
(228,574,o),
(228,594,cs),
(228,640,o),
(249,672,o),
(275,672,cs),
(309,672,l),
(309,700,l),
(57,700,l),
(57,672,l),
(85,672,ls),
(108,672,o),
(127,655,o),
(127,630,cs),
(127,83,ls),
(127,51,o),
(109,28,o),
(88,28,cs),
(72,28,l),
(72,0,l)
);
},
{
closed = 1;
nodes = (
(297,391,o),
(471,557,o),
(499,589,cs),
(527,621,o),
(596,659,o),
(621,659,cs),
(668,659,l),
(668,696,l),
(403,696,l),
(403,660,l),
(431,660,ls),
(440,660,o),
(480,631,o),
(447,589,c),
(187,317,l),
(201,292,l)
);
}
);
width = 748;
},
{
layerId = m003;
shapes = (
{
closed = 1;
nodes = (
(579,0,l),
(586,28,l),
(580,28,ls),
(556,28,o),
(529,45,o),
(503,87,cs),
(312,398,l),
(399,477,o),
(491,568,o),
(511,589,cs),
(542,621,o),
(610,659,o),
(631,659,cs),
(671,659,l),
(679,696,l),
(454,696,l),
(446,660,l),
(470,660,ls),
(477,660,o),
(505,631,o),
(467,589,c),
(226,358,l),
(251,468,o),
(278,575,o),
(282,594,cs),
(293,640,o),
(318,672,o),
(340,672,cs),
(369,672,l),
(375,700,l),
(161,700,l),
(155,672,l),
(178,672,ls),
(198,672,o),
(210,655,o),
(204,630,cs),
(78,83,ls),
(71,51,o),
(50,28,o),
(32,28,cs),
(19,28,l),
(12,0,l),
(226,0,l),
(233,28,l),
(207,28,ls),
(174,28,o),
(157,52,o),
(165,87,cs),
(217,318,l),
(233,333,l),
(408,36,ls),
(420,15,o),
(437,0,o),
(451,0,cs)
);
}
);
width = 660;
},
{
associatedMasterId = m003;
layerId = "30713842-B3AB-4D22-9141-9F5D2967A003";
name = "3. Nov. 24, 11:35";
shapes = (
{
closed = 1;
nodes = (
(739,0,l),
(739,28,l),
(732,28,ls),
(704,28,o),
(669,57,o),
(627,99,cs),
(307,421,l),
(234,340,l),
(528,36,ls),
(548,15,o),
(572,0,o),
(588,0,cs)
);
},
{
closed = 1;
nodes = (
(324,0,l),
(324,28,l),
(293,28,ls),
(255,28,o),
(228,52,o),
(228,87,cs),
(228,111,o),
(226,229,o),
(226,345,cs),
(226,460,o),
(228,574,o),
(228,594,cs),
(228,640,o),
(249,672,o),
(275,672,cs),
(309,672,l),
(309,700,l),
(57,700,l),
(57,672,l),
(85,672,ls),
(108,672,o),
(127,655,o),
(127,630,cs),
(127,83,ls),
(127,51,o),
(109,28,o),
(88,28,cs),
(72,28,l),
(72,0,l)
);
},
{
closed = 1;
nodes = (
(297,391,o),
(471,557,o),
(499,589,cs),
(527,621,o),
(596,659,o),
(621,659,cs),
(668,659,l),
(668,696,l),
(403,696,l),
(403,660,l),
(431,660,ls),
(440,660,o),
(480,631,o),
(447,589,c),
(187,317,l),
(201,292,l)
);
}
);
width = 748;
},
{
associatedMasterId = m003;
layerId = "00A6F74D-5240-4CE8-99E5-816BEECF8EA3";
name = "Groote Garmond Romyn";
shapes = (
{
closed = 1;
nodes = (
(739,0,l),
(739,38,l),
(732,38,ls),
(704,38,o),
(670,58,o),
(627,99,cs),
(318,400,l),
(399,479,o),
(479,569,o),
(499,589,cs),
(531,622,o),
(578,662,o),
(621,662,cs),
(668,662,l),
(668,700,l),
(403,700,l),
(403,662,l),
(431,662,ls),
(477,662,o),
(482,631,o),
(446,589,c),
(225,358,l),
(225,468,o),
(228,575,o),
(228,594,cs),
(228,640,o),
(249,662,o),
(275,662,cs),
(309,662,l),
(309,700,l),
(57,700,l),
(57,662,l),
(85,662,ls),
(108,662,o),
(127,645,o),
(127,630,cs),
(127,83,ls),
(127,51,o),
(109,38,o),
(88,38,cs),
(72,38,l),
(72,0,l),
(324,0,l),
(324,38,l),
(293,38,ls),
(255,38,o),
(228,52,o),
(228,87,cs),
(226,308,l),
(241,323,l),
(523,36,ls),
(544,15,o),
(572,0,o),
(588,0,cs)
);
}
);
width = 748;
},
{
associatedMasterId = m003;
layerId = "A2A4E4AA-909C-4E8F-8D4E-3D4A3A6E95EC";
name = "Groote Garmond Romyn";
shapes = (
{
closed = 1;
nodes = (
(739,0,l),
(739,28,l),
(732,28,ls),
(704,28,o),
(669,57,o),
(627,99,cs),
(307,421,l),
(234,340,l),
(528,36,ls),
(548,15,o),
(572,0,o),
(588,0,cs)
);
},
{
closed = 1;
nodes = (
(324,0,l),
(324,28,l),
(293,28,ls),
(255,28,o),
(228,52,o),
(228,87,cs),
(228,111,o),
(226,229,o),
(226,345,cs),
(226,460,o),
(228,574,o),
(228,594,cs),
(228,640,o),
(249,672,o),
(275,672,cs),
(309,672,l),
(309,700,l),
(57,700,l),
(57,672,l),
(85,672,ls),
(108,672,o),
(127,655,o),
(127,630,cs),
(127,83,ls),
(127,51,o),
(109,28,o),
(88,28,cs),
(72,28,l),
(72,0,l)
);
},
{
closed = 1;
nodes = (
(297,391,o),
(471,557,o),
(499,589,cs),
(527,621,o),
(596,659,o),
(621,659,cs),
(668,659,l),
(668,696,l),
(403,696,l),
(403,660,l),
(431,660,ls),
(440,660,o),
(480,631,o),
(447,589,c),
(187,317,l),
(201,292,l)
);
}
);
width = 748;
}
);
metricLeft = H;
unicode = 75;
},
{
glyphname = L;
lastChange = "2024-11-09 12:53:07 +0000";
layers = (
{
layerId = m002;
shapes = (
{
closed = 1;
nodes = (
(498,0,l),
(593,162,l),
(558,169,l),
(514,91,o),
(447,45,o),
(396,45,cs),
(337,45,o),
(267,45,o),
(248,45,cs),
(214,45,o),
(194,74,o),
(207,130,cs),
(218,179,o),
(306,558,o),
(317,608,cs),
(326,645,o),
(377,662,o),
(436,662,cs),
(453,662,l),
(459,700,l),
(158,700,l),
(151,662,l),
(173,662,l),
(215,662,o),
(239,636,o),
(227,584,cs),
(215,533,o),
(130,166,o),
(121,125,cs),
(109,72,o),
(81,45,o),
(59,45,cs),
(44,45,o),
(18,45,o),
(6,45,c),
(-2,0,l)
);
}
);
width = 639;
},
{
associatedMasterId = m002;
layerId = "1CB1DBB4-6ACE-4923-AA5D-DA226D71674B";
name = "Groote Garmond Romyn";
shapes = (
{
closed = 1;
nodes = (
(605,0,l),
(673,162,l),
(631,169,l),
(600,91,o),
(547,45,o),
(487,45,cs),
(418,45,o),
(324,45,o),
(301,45,cs),
(261,45,o),
(227,74,o),
(227,130,cs),
(227,179,o),
(227,558,o),
(227,608,cs),
(227,645,o),
(280,662,o),
(349,662,cs),
(369,662,l),
(369,700,l),
(14,700,l),
(14,662,l),
(40,662,l),
(89,662,o),
(127,636,o),
(127,584,cs),
(127,533,o),
(127,166,o),
(127,125,cs),
(127,72,o),
(105,45,o),
(79,45,cs),
(61,45,o),
(30,45,o),
(16,45,c),
(16,0,l)
);
}
);
width = 709;
},
{
layerId = m003;
shapes = (
{
closed = 1;
nodes = (
(501,0,l),
(596,162,l),
(571,169,l),
(527,91,o),
(460,35,o),
(409,35,cs),
(350,35,o),
(270,35,o),
(251,35,cs),
(217,35,o),
(197,74,o),
(210,130,cs),
(221,179,o),
(309,558,o),
(320,608,cs),
(329,645,o),
(380,672,o),
(439,672,cs),
(456,672,l),
(462,700,l),
(161,700,l),
(154,672,l),
(176,672,l),
(218,672,o),
(242,636,o),
(230,584,cs),
(218,533,o),
(133,166,o),
(124,125,cs),
(112,72,o),
(84,35,o),
(62,35,cs),
(47,35,o),
(21,35,o),
(9,35,c),
(1,0,l)
);
}
);
width = 645;
},
{
associatedMasterId = m003;
layerId = "C071BEBF-29B3-49DA-9314-892BFF9B541C";
name = "Groote Garmond Romyn";
shapes = (
{
closed = 1;
nodes = (
(605,0,l),
(673,162,l),
(631,169,l),
(600,91,o),
(547,45,o),
(487,45,cs),
(418,45,o),
(324,45,o),
(301,45,cs),
(261,45,o),
(227,74,o),
(227,130,cs),
(227,179,o),
(227,558,o),
(227,608,cs),
(227,645,o),
(280,662,o),
(349,662,cs),
(369,662,l),
(369,700,l),
(14,700,l),
(14,662,l),
(40,662,l),
(89,662,o),
(127,636,o),
(127,584,cs),
(127,533,o),
(127,166,o),
(127,125,cs),
(127,72,o),
(105,45,o),
(79,45,cs),
(61,45,o),
(30,45,o),
(16,45,c),
(16,0,l)
);
}
);
width = 709;
}
);
metricLeft = H;
metricRight = n;
unicode = 76;
},
{
glyphname = M;
lastChange = "2024-11-09 12:53:42 +0000";
layers = (
{
layerId = m002;
shapes = (
{
closed = 1;
nodes = (
(358,0,l),
(752,640,l),
(746,700,l),
(408,150,l),
(345,700,l),
(158,700,l),
(148,649,l),
(166,649,o),
(191,649,o),
(211,649,cs),
(238,649,o),
(263,609,o),
(272,538,cs),
(334,0,l)
);
},
{
closed = 1;
nodes = (
(216,0,l),
(222,37,l),
(213,37,o),
(206,37,o),
(197,37,cs),
(153,37,o),
(128,54,o),
(137,92,cs),
(267,646,l),
(225,646,l),
(186,474,o),
(117,187,o),
(107,141,cs),
(91,74,o),
(65,37,o),
(29,37,cs),
(-8,37,l),
(-15,0,l)
);
},
{
closed = 1;
nodes = (
(760,0,l),
(766,38,l),
(757,38,o),
(750,38,o),
(739,38,cs),
(701,38,o),
(681,53,o),
(689,88,cs),
(698,126,o),
(802,580,o),
(810,611,cs),
(816,640,o),
(836,650,o),
(858,650,cs),
(893,650,l),
(902,700,l),
(745,700,l),
(699,498,o),
(610,114,o),
(605,91,cs),
(596,54,o),
(583,38,o),
(572,38,cs),
(505,38,l),
(497,0,l)
);
}
);
width = 856;
},
{
associatedMasterId = m002;
layerId = "8AA99534-BDA9-4BA7-8425-E7242871C104";
name = "Groote Garmond Romyn";
shapes = (
{
closed = 1;
nodes = (
(442,0,l),
(731,640,l),
(714,700,l),
(466,150,l),
(242,700,l),
(22,700,l),
(22,662,l),
(43,662,o),
(72,662,o),
(96,662,cs),
(128,662,o),
(171,609,o),
(200,538,cs),
(419,0,l)
);
},
{
closed = 1;
nodes = (
(280,0,l),
(280,37,l),
(270,37,o),
(262,37,o),
(251,37,cs),
(199,37,o),
(163,54,o),
(163,92,cs),
(163,656,l),
(127,656,l),
(127,484,o),
(127,187,o),
(127,141,cs),
(127,74,o),
(107,37,o),
(65,37,cs),
(21,37,l),
(21,0,l)
);
},
{
closed = 1;
nodes = (
(920,0,l),
(920,38,l),
(909,38,o),
(901,38,o),
(888,38,cs),
(843,38,o),
(813,53,o),
(813,88,cs),
(813,126,o),
(813,580,o),
(813,611,cs),
(813,640,o),
(831,662,o),
(857,662,cs),
(898,662,l),
(898,700,l),
(713,700,l),
(713,498,o),
(713,114,o),
(713,91,cs),
(713,54,o),
(705,38,o),
(692,38,cs),
(613,38,l),
(611,0,l)
);
}
);
width = 940;
},
{
layerId = m003;
shapes = (
{
closed = 1;
nodes = (
(356,0,l),
(750,640,l),
(749,700,l),
(411,150,l),
(348,700,l),
(161,700,l),
(151,659,l),
(169,659,o),
(194,659,o),
(214,659,cs),
(241,659,o),
(266,609,o),
(275,538,cs),
(337,0,l)
);
},
{
closed = 1;
nodes = (
(219,0,l),
(225,27,l),
(216,27,o),
(209,27,o),
(200,27,cs),
(156,27,o),
(132,54,o),
(140,92,cs),
(270,656,l),
(238,656,l),
(199,484,o),
(130,187,o),
(120,141,cs),
(104,74,o),
(68,27,o),
(32,27,cs),
(-5,27,l),
(-12,0,l)
);
},
{
closed = 1;
nodes = (
(763,0,l),
(769,28,l),
(760,28,o),
(753,28,o),
(742,28,cs),
(704,28,o),
(684,53,o),
(692,88,cs),
(701,126,o),
(805,580,o),
(813,611,cs),
(819,640,o),
(839,660,o),
(861,660,cs),
(896,660,l),
(905,700,l),
(748,700,l),
(702,498,o),
(613,114,o),
(608,91,cs),
(599,54,o),
(586,28,o),
(575,28,cs),
(508,28,l),
(500,0,l)
);
}
);
width = 862;
},
{
associatedMasterId = m003;
layerId = "B10F72A2-F543-4F3C-913D-1BB69EE1B8FA";
name = "Groote Garmond Romyn";
shapes = (
{
closed = 1;
nodes = (
(442,0,l),
(731,640,l),
(714,700,l),
(466,150,l),
(242,700,l),
(22,700,l),
(22,662,l),
(43,662,o),
(72,662,o),
(96,662,cs),
(128,662,o),
(171,609,o),
(200,538,cs),
(419,0,l)
);
},
{
closed = 1;
nodes = (
(280,0,l),
(280,37,l),
(270,37,o),
(262,37,o),
(251,37,cs),
(199,37,o),
(163,54,o),
(163,92,cs),
(163,656,l),
(127,656,l),
(127,484,o),
(127,187,o),
(127,141,cs),
(127,74,o),
(107,37,o),
(65,37,cs),
(21,37,l),
(21,0,l)
);
},
{
closed = 1;
nodes = (
(920,0,l),
(920,38,l),
(909,38,o),
(901,38,o),
(888,38,cs),
(843,38,o),
(813,53,o),
(813,88,cs),
(813,126,o),
(813,580,o),
(813,611,cs),
(813,640,o),
(831,662,o),
(857,662,cs),
(898,662,l),
(898,700,l),
(713,700,l),
(713,498,o),
(713,114,o),
(713,91,cs),
(713,54,o),
(705,38,o),
(692,38,cs),
(613,38,l),
(611,0,l)
);
}
);
width = 940;
}
);
metricLeft = H;
metricRight = H;
unicode = 77;
},
{
glyphname = N;
lastChange = "2024-11-09 12:53:52 +0000";
layers = (
{
layerId = m002;
shapes = (
{
closed = 1;
nodes = (
(611,-6,l),
(656,189,o),
(736,535,o),
(747,579,cs),
(759,633,o),
(799,672,o),
(843,672,cs),
(876,672,l),
(882,700,l),
(612,700,l),
(606,672,l),
(615,672,o),
(650,672,o),
(662,672,cs),
(698,672,o),
(717,640,o),
(706,594,cs),
(604,164,l),
(316,700,l),
(157,697,l),
(150,669,l),
(161,669,o),
(171,669,o),
(183,669,cs),
(205,669,o),
(228,654,o),
(240,634,cs),
(583,-6,l)
);
},
{
closed = 1;
nodes = (
(269,0,l),
(275,27,l),
(224,27,o),
(220,27,o),
(211,27,cs),
(167,27,o),
(143,54,o),
(151,92,cs),
(281,656,l),
(239,656,l),
(200,484,o),
(131,187,o),
(121,141,cs),
(105,74,o),
(79,27,o),
(43,27,cs),
(17,27,l),
(11,0,l)
);
}
);
width = 767;
},
{
associatedMasterId = m002;
layerId = "A2145A88-5BC4-424B-850B-9F9F40C82DE9";
name = "Groote Garmond Romyn";
shapes = (
{
closed = 1;
nodes = (
(731,-6,l),
(731,189,o),
(731,535,o),
(731,579,cs),
(731,633,o),
(767,662,o),
(819,662,cs),
(858,662,l),
(858,700,l),
(540,700,l),
(540,662,l),
(551,662,o),
(592,662,o),
(606,662,cs),
(649,662,o),
(679,640,o),
(679,594,cs),
(679,164,l),
(195,700,l),
(5,697,l),
(5,659,l),
(18,659,o),
(29,659,o),
(43,659,cs),
(69,659,o),
(101,654,o),
(120,634,cs),
(698,-6,l)
);
},
{
closed = 1;
nodes = (
(326,0,l),
(326,37,l),
(266,37,o),
(262,37,o),
(251,37,cs),
(199,37,o),
(163,64,o),
(163,92,cs),
(163,656,l),
(127,656,l),
(127,484,o),
(127,187,o),
(127,141,cs),
(127,74,o),
(107,37,o),
(65,37,cs),
(35,37,l),
(35,0,l)
);
}
);
width = 840;
},
{
layerId = m003;
shapes = (
{
closed = 1;
nodes = (
(614,-6,l),
(659,189,o),
(739,535,o),
(750,579,cs),
(762,633,o),
(802,672,o),
(846,672,cs),
(879,672,l),
(885,700,l),
(615,700,l),
(609,672,l),
(618,672,o),
(653,672,o),
(665,672,cs),
(701,672,o),
(720,640,o),
(709,594,cs),
(607,164,l),
(319,700,l),
(160,697,l),
(153,669,l),
(164,669,o),
(174,669,o),
(186,669,cs),
(208,669,o),
(231,654,o),
(243,634,cs),
(586,-6,l)
);
},
{
closed = 1;
nodes = (
(272,0,l),
(278,27,l),
(227,27,o),
(223,27,o),
(214,27,cs),
(170,27,o),
(146,54,o),
(154,92,cs),
(284,656,l),
(252,656,l),
(213,484,o),
(144,187,o),
(134,141,cs),
(118,74,o),
(82,27,o),
(46,27,cs),
(20,27,l),
(14,0,l)
);
}
);
width = 773;
},
{
associatedMasterId = m003;
layerId = "31385D10-2325-4DCE-A494-6CF8A131B4BB";
name = "Groote Garmond Romyn";
shapes = (
{
closed = 1;
nodes = (
(731,-6,l),
(731,189,o),
(731,535,o),
(731,579,cs),
(731,633,o),
(767,662,o),
(819,662,cs),
(858,662,l),
(858,700,l),
(540,700,l),
(540,662,l),
(551,662,o),
(592,662,o),
(606,662,cs),
(649,662,o),
(679,640,o),
(679,594,cs),
(679,164,l),
(195,700,l),
(5,697,l),
(5,659,l),
(18,659,o),
(29,659,o),
(43,659,cs),
(69,659,o),
(101,654,o),
(120,634,cs),
(698,-6,l)
);
},
{
closed = 1;
nodes = (
(326,0,l),
(326,37,l),
(266,37,o),
(262,37,o),
(251,37,cs),
(199,37,o),
(163,64,o),
(163,92,cs),
(163,656,l),
(127,656,l),
(127,484,o),
(127,187,o),
(127,141,cs),
(127,74,o),
(107,37,o),
(65,37,cs),
(35,37,l),
(35,0,l)
);
}
);
width = 840;
}
);
metricLeft = H;
metricRight = H;
unicode = 78;
},
{
glyphname = O;
lastChange = "2024-11-10 10:58:07 +0000";
layers = (
{
anchors = (
{
name = bottom;
pos = (321,0);
},
{
name = center;
pos = (428,350);
},
{
name = ogonek;
pos = (633,10);
},
{
name = top;
pos = (464,635);
},
{
name = topleft;
pos = (168,700);
},
{
name = topright;
pos = (901,700);
}
);
layerId = m002;
shapes = (
{
closed = 1;
nodes = (
(515,-11,o),
(690,145,o),
(741,365,cs),
(788,572,o),
(685,719,o),
(491,719,cs),
(300,719,o),
(130,572,o),
(83,365,cs),
(32,145,o),
(129,-11,o),
(319,-11,cs)
);
},
{
closed = 1;
nodes = (
(190,29,o),
(154,179,o),
(206,405,cs),
(244,571,o),
(366,679,o),
(487,679,cs),
(619,679,o),
(668,539,o),
(619,326,cs),
(577,146,o),
(443,29,o),
(322,29,c)
);
}
);
width = 773;
},
{
associatedMasterId = m002;
layerId = "5C8BAD41-14BE-4CE0-9599-C83F7A52D1BA";
name = "Groote Garmond Romyn";
shapes = (
{
closed = 1;
nodes = (
(675,-11,o),
(838,145,o),
(838,365,cs),
(838,572,o),
(676,719,o),
(448,719,cs),
(223,719,o),
(64,572,o),
(64,365,cs),
(64,145,o),
(221,-11,o),
(444,-11,cs)
);
},
{
closed = 1;
nodes = (
(308,29,o),
(198,179,o),
(198,405,cs),
(198,571,o),
(298,679,o),
(440,679,cs),
(595,679,o),
(705,539,o),
(705,326,cs),
(705,146,o),
(605,29,o),
(463,29,c)
);
}
);
width = 902;
},
{
anchors = (
{
name = bottom;
pos = (324,0);
},
{
name = center;
pos = (431,350);
},
{
name = ogonek;
pos = (638,10);
},
{
name = top;
pos = (488,635);
},
{
name = topleft;
pos = (168,700);
},
{
name = topright;
pos = (907,700);
}
);
layerId = m003;
shapes = (
{
closed = 1;
nodes = (
(518,-11,o),
(693,145,o),
(744,365,cs),
(791,572,o),
(688,719,o),
(494,719,cs),
(303,719,o),
(133,572,o),
(86,365,cs),
(35,145,o),
(132,-11,o),
(322,-11,cs)
);
},
{
closed = 1;
nodes = (
(193,19,o),
(157,179,o),
(209,405,cs),
(247,571,o),
(369,689,o),
(490,689,cs),
(622,689,o),
(671,539,o),
(622,326,cs),
(580,146,o),
(446,19,o),
(325,19,c)
);
}
);
width = 779;
},
{
associatedMasterId = m003;
layerId = "1EEE1FB6-CC32-4165-B465-92C2FEBEA496";
name = "Groote Garmond Romyn";
shapes = (
{
closed = 1;
nodes = (
(675,-11,o),
(838,145,o),
(838,365,cs),
(838,572,o),
(676,719,o),
(448,719,cs),
(223,719,o),
(64,572,o),
(64,365,cs),
(64,145,o),
(221,-11,o),
(444,-11,cs)
);
},
{
closed = 1;
nodes = (
(308,29,o),
(198,179,o),
(198,405,cs),
(198,571,o),
(298,679,o),
(440,679,cs),
(595,679,o),
(705,539,o),
(705,326,cs),
(705,146,o),
(605,29,o),
(463,29,c)
);
}
);
width = 902;
}
);
metricLeft = o;
metricRight = o;
unicode = 79;
},
{
glyphname = OE;
lastChange = "2024-11-10 12:28:37 +0000";
layers = (
{
layerId = m002;
shapes = (
{
closed = 1;
nodes = (
(458,-11,o),
(615,136,o),
(664,345,cs),
(714,564,o),
(627,719,o),
(454,719,cs),
(284,719,o),
(128,564,o),
(77,345,cs),
(29,136,o),
(114,-11,o),
(283,-11,cs)
);
},
{
closed = 1;
nodes = (
(191,29,o),
(147,171,o),
(196,385,cs),
(237,563,o),
(338,679,o),
(441,679,cs),
(553,679,o),
(597,530,o),
(545,306,cs),
(506,138,o),
(406,29,o),
(304,29,c)
);
},
{
closed = 1;
nodes = (
(840,200,l),
(854,277,o),
(879,385,o),
(900,462,c),
(867,462,l),
(852,399,o),
(819,354,o),
(788,354,cs),
(610,354,l),
(606,304,l),
(660,304,o),
(764,304,o),
(785,304,cs),
(812,304,o),
(821,261,o),
(807,200,c)
);
},
{
closed = 1;
nodes = (
(363,-1,l),
(859,-1,l),
(964,163,l),
(936,178,l),
(882,105,o),
(816,54,o),
(776,54,cs),
(766,54,o),
(477,54,o),
(435,54,c)
);
},
{
closed = 1;
nodes = (
(538,645,l),
(570,645,o),
(878,645,o),
(885,645,cs),
(937,645,o),
(964,598,o),
(948,531,c),
(982,531,l),
(1021,700,l),
(964,700,o),
(569,700,o),
(525,700,c)
);
}
);
width = 995;
},
{
associatedMasterId = m002;
layerId = "022F4CD3-50D0-4976-9B88-D6FA4A96713D";
name = "Groote Garmond Romyn";
shapes = (
{
closed = 1;
nodes = (
(609,-11,o),
(754,136,o),
(754,345,cs),
(754,564,o),
(610,719,o),
(406,719,cs),
(206,719,o),
(64,564,o),
(64,345,cs),
(64,136,o),
(204,-11,o),
(403,-11,cs)
);
},
{
closed = 1;
nodes = (
(287,29,o),
(193,171,o),
(193,385,cs),
(193,563,o),
(278,679,o),
(399,679,cs),
(531,679,o),
(625,530,o),
(625,306,cs),
(625,138,o),
(540,29,o),
(420,29,c)
);
},
{
closed = 1;
nodes = (
(999,200,l),
(995,277,o),
(995,385,o),
(999,462,c),
(961,462,l),
(961,399,o),
(935,354,o),
(898,354,cs),
(689,354,l),
(698,304,l),
(761,304,o),
(883,304,o),
(908,304,cs),
(940,304,o),
(962,261,o),
(962,200,c)
);
},
{
closed = 1;
nodes = (
(494,-1,l),
(1078,-1,l),
(1157,163,l),
(1122,178,l),
(1078,105,o),
(1024,59,o),
(977,59,cs),
(965,59,o),
(614,59,o),
(564,59,c)
);
},
{
closed = 1;
nodes = (
(525,640,l),
(562,640,o),
(937,640,o),
(945,640,cs),
(1006,640,o),
(1040,598,o),
(1040,531,c),
(1078,531,l),
(1078,700,l),
(1011,700,o),
(546,700,o),
(495,700,c)
);
}
);
width = 1202;
},
{
layerId = m003;
shapes = (
{
closed = 1;
nodes = (
(461,-11,o),
(618,136,o),
(667,345,cs),
(717,564,o),
(630,719,o),
(457,719,cs),
(287,719,o),
(131,564,o),
(80,345,cs),
(32,136,o),
(117,-11,o),
(286,-11,cs)
);
},
{
closed = 1;
nodes = (
(194,19,o),
(150,171,o),
(199,385,cs),
(240,563,o),
(341,689,o),
(444,689,cs),
(556,689,o),
(600,530,o),
(548,306,cs),
(509,138,o),
(409,19,o),
(307,19,c)
);
},
{
closed = 1;
nodes = (
(833,200,l),
(847,277,o),
(872,385,o),
(893,462,c),
(870,462,l),
(855,399,o),
(822,354,o),
(791,354,cs),
(613,354,l),
(609,304,l),
(663,304,o),
(767,304,o),
(788,304,cs),
(815,304,o),
(824,261,o),
(810,200,c)
);
},
{
closed = 1;
nodes = (
(366,-1,l),
(862,-1,l),
(967,163,l),
(949,178,l),
(895,105,o),
(829,54,o),
(789,54,cs),
(779,54,o),
(480,54,o),
(438,54,c)
);
},
{
closed = 1;
nodes = (
(541,645,l),
(573,645,o),
(891,645,o),
(898,645,cs),
(950,645,o),
(977,598,o),
(961,531,c),
(985,531,l),
(1024,700,l),
(967,700,o),
(572,700,o),
(528,700,c)
);
}
);
width = 1001;
},
{
associatedMasterId = m003;
layerId = "7DD8C20A-4E06-4442-A422-9F18044EC776";
name = "Groote Garmond Romyn";
shapes = (
{
closed = 1;
nodes = (
(609,-11,o),
(754,136,o),
(754,345,cs),
(754,564,o),
(610,719,o),
(406,719,cs),
(206,719,o),
(64,564,o),
(64,345,cs),
(64,136,o),
(204,-11,o),
(403,-11,cs)
);
},
{
closed = 1;
nodes = (
(287,29,o),
(193,171,o),
(193,385,cs),
(193,563,o),
(278,679,o),
(399,679,cs),
(531,679,o),
(625,530,o),
(625,306,cs),
(625,138,o),
(540,29,o),
(420,29,c)
);
},
{
closed = 1;
nodes = (
(999,200,l),
(995,277,o),
(995,385,o),
(999,462,c),
(961,462,l),
(961,399,o),
(935,354,o),
(898,354,cs),
(689,354,l),
(698,304,l),
(761,304,o),
(883,304,o),
(908,304,cs),
(940,304,o),
(962,261,o),
(962,200,c)
);
},
{
closed = 1;
nodes = (
(494,-1,l),
(1078,-1,l),
(1157,163,l),
(1122,178,l),
(1078,105,o),
(1024,59,o),
(977,59,cs),
(965,59,o),
(614,59,o),
(564,59,c)
);
},
{
closed = 1;
nodes = (
(525,640,l),
(562,640,o),
(937,640,o),
(945,640,cs),
(1006,640,o),
(1040,598,o),
(1040,531,c),
(1078,531,l),
(1078,700,l),
(1011,700,o),
(546,700,o),
(495,700,c)
);
}
);
width = 1202;
}
);
metricLeft = O;
metricRight = E;
unicode = 338;
},
{
glyphname = P;
lastChange = "2024-11-09 12:54:33 +0000";
layers = (
{
layerId = m002;
shapes = (
{
closed = 1;
nodes = (
(262,0,l),
(268,38,l),
(263,38,o),
(243,38,o),
(234,38,cs),
(200,38,o),
(179,57,o),
(189,98,cs),
(200,148,o),
(310,626,o),
(314,642,cs),
(318,657,o),
(341,657,o),
(365,657,cs),
(453,657,o),
(500,595,o),
(475,486,cs),
(450,382,o),
(381,309,o),
(306,309,c),
(299,279,l),
(434,279,o),
(549,369,o),
(578,497,cs),
(606,616,o),
(536,702,o),
(410,702,cs),
(364,702,o),
(292,699,o),
(268,699,cs),
(254,699,o),
(209,702,o),
(158,702,c),
(151,662,l),
(198,662,o),
(232,653,o),
(225,625,cs),
(215,579,o),
(100,81,o),
(95,63,cs),
(91,43,o),
(68,38,o),
(48,38,cs),
(17,38,l),
(10,0,l)
);
}
);
width = 589;
},
{
associatedMasterId = m002;
layerId = "1E992AEC-3BFB-4B5A-9919-F479B2D11F0A";
name = "Groote Garmond Romyn";
shapes = (
{
closed = 1;
nodes = (
(340,0,l),
(340,38,l),
(333,38,o),
(310,38,o),
(300,38,cs),
(260,38,o),
(227,57,o),
(227,98,cs),
(227,148,o),
(227,616,o),
(227,632,cs),
(227,647,o),
(252,657,o),
(280,657,cs),
(384,657,o),
(458,595,o),
(458,486,cs),
(458,382,o),
(396,319,o),
(308,319,c),
(308,279,l),
(466,279,o),
(577,369,o),
(577,497,cs),
(577,616,o),
(472,702,o),
(323,702,cs),
(269,702,o),
(185,699,o),
(157,699,cs),
(141,699,o),
(87,702,o),
(27,702,c),
(27,662,l),
(82,662,o),
(127,653,o),
(127,625,cs),
(127,579,o),
(127,81,o),
(127,63,cs),
(127,43,o),
(104,38,o),
(81,38,cs),
(44,38,l),
(44,0,l)
);
}
);
width = 604;
},
{
layerId = m003;
shapes = (
{
closed = 1;
nodes = (
(265,0,l),
(271,28,l),
(266,28,o),
(246,28,o),
(237,28,cs),
(203,28,o),
(182,57,o),
(192,98,cs),
(203,148,o),
(313,626,o),
(317,642,cs),
(321,657,o),
(344,667,o),
(368,667,cs),
(456,667,o),
(503,595,o),
(478,486,cs),
(453,382,o),
(384,309,o),
(309,309,c),
(302,279,l),
(437,279,o),
(552,369,o),
(581,497,cs),
(609,616,o),
(539,702,o),
(413,702,cs),
(367,702,o),
(295,699,o),
(271,699,cs),
(257,699,o),
(212,702,o),
(161,702,c),
(154,672,l),
(201,672,o),
(235,653,o),
(228,625,cs),
(218,579,o),
(103,81,o),
(98,63,cs),
(94,43,o),
(71,28,o),
(51,28,cs),
(20,28,l),
(13,0,l)
);
}
);
width = 595;
},
{
associatedMasterId = m003;
layerId = "05470292-9480-414D-9D83-0793041B2DD9";
name = "Groote Garmond Romyn";
shapes = (
{
closed = 1;
nodes = (
(340,0,l),
(340,38,l),
(333,38,o),
(310,38,o),
(300,38,cs),
(260,38,o),
(227,57,o),
(227,98,cs),
(227,148,o),
(227,616,o),
(227,632,cs),
(227,647,o),
(252,657,o),
(280,657,cs),
(384,657,o),
(458,595,o),
(458,486,cs),
(458,382,o),
(396,319,o),
(308,319,c),
(308,279,l),
(466,279,o),
(577,369,o),
(577,497,cs),
(577,616,o),
(472,702,o),
(323,702,cs),
(269,702,o),
(185,699,o),
(157,699,cs),
(141,699,o),
(87,702,o),
(27,702,c),
(27,662,l),
(82,662,o),
(127,653,o),
(127,625,cs),
(127,579,o),
(127,81,o),
(127,63,cs),
(127,43,o),
(104,38,o),
(81,38,cs),
(44,38,l),
(44,0,l)
);
}
);
width = 604;
}
);
metricLeft = H;
metricRight = O;
unicode = 80;
},
{
glyphname = Q;
lastChange = "2024-11-09 12:54:47 +0000";
layers = (
{
layerId = m002;
shapes = (
{
closed = 1;
nodes = (
(513,-18,o),
(687,138,o),
(738,358,cs),
(786,565,o),
(682,712,o),
(488,712,cs),
(297,712,o),
(128,565,o),
(80,358,cs),
(29,138,o),
(127,-18,o),
(316,-18,cs)
);
},
{
closed = 1;
nodes = (
(329,22,c),
(198,22,o),
(151,172,o),
(203,398,cs),
(242,564,o),
(364,672,o),
(484,672,cs),
(616,672,o),
(665,532,o),
(616,319,cs),
(574,139,o),
(450,22,o)
);
},
{
closed = 1;
nodes = (
(823,-175,o),
(861,-171,o),
(888,-165,c),
(893,-130,l),
(675,-143,o),
(489,-84,o),
(443,27,c),
(393,8,o),
(348,-5,o),
(335,-5,cs),
(309,-5,o),
(266,13,o),
(231,38,c),
(230,8,l),
(347,-99,o),
(582,-175,o),
(795,-175,c)
);
}
);
width = 753;
},
{
associatedMasterId = m002;
layerId = "B9511206-4199-41D4-B127-33FCAEFF1C55";
name = "Groote Garmond Romyn";
shapes = (
{
closed = 1;
nodes = (
(675,-18,o),
(838,138,o),
(838,358,cs),
(838,565,o),
(676,712,o),
(448,712,cs),
(223,712,o),
(64,565,o),
(64,358,cs),
(64,138,o),
(221,-18,o),
(444,-18,cs)
);
},
{
closed = 1;
nodes = (
(463,22,c),
(308,22,o),
(198,172,o),
(198,398,cs),
(198,564,o),
(298,672,o),
(440,672,cs),
(595,672,o),
(705,532,o),
(705,319,cs),
(705,139,o),
(605,22,o)
);
},
{
closed = 1;
nodes = (
(1083,-175,o),
(1127,-171,o),
(1156,-165,c),
(1156,-130,l),
(903,-143,o),
(665,-84,o),
(581,27,c),
(527,8,o),
(478,-5,o),
(463,-5,cs),
(432,-5,o),
(376,13,o),
(329,38,c),
(335,8,l),
(502,-99,o),
(799,-175,o),
(1050,-175,c)
);
}
);
width = 902;
},
{
layerId = m003;
shapes = (
{
closed = 1;
nodes = (
(516,-18,o),
(690,138,o),
(741,358,cs),
(789,565,o),
(685,712,o),
(491,712,cs),
(300,712,o),
(131,565,o),
(83,358,cs),
(32,138,o),
(130,-18,o),
(319,-18,cs)
);
},
{
closed = 1;
nodes = (
(332,12,c),
(201,12,o),
(154,172,o),
(206,398,cs),
(245,564,o),
(367,682,o),
(487,682,cs),
(619,682,o),
(668,532,o),
(619,319,cs),
(577,139,o),
(453,12,o)
);
},
{
closed = 1;
nodes = (
(826,-175,o),
(864,-171,o),
(891,-165,c),
(896,-140,l),
(678,-153,o),
(492,-84,o),
(446,27,c),
(396,8,o),
(351,-5,o),
(338,-5,cs),
(312,-5,o),
(269,13,o),
(234,38,c),
(233,8,l),
(350,-99,o),
(585,-175,o),
(798,-175,c)
);
}
);
width = 759;
},
{
associatedMasterId = m003;
layerId = "ACB1CD23-C5B2-4C45-81BA-4D5960A8FE17";
name = "Groote Garmond Romyn";
shapes = (
{
closed = 1;
nodes = (
(675,-18,o),
(838,138,o),
(838,358,cs),
(838,565,o),
(676,712,o),
(448,712,cs),
(223,712,o),
(64,565,o),
(64,358,cs),
(64,138,o),
(221,-18,o),
(444,-18,cs)
);
},
{
closed = 1;
nodes = (
(463,22,c),
(308,22,o),
(198,172,o),
(198,398,cs),
(198,564,o),
(298,672,o),
(440,672,cs),
(595,672,o),
(705,532,o),
(705,319,cs),
(705,139,o),
(605,22,o)
);
},
{
closed = 1;
nodes = (
(1083,-175,o),
(1127,-171,o),
(1156,-165,c),
(1156,-130,l),
(903,-143,o),
(665,-84,o),
(581,27,c),
(527,8,o),
(478,-5,o),
(463,-5,cs),
(432,-5,o),
(376,13,o),
(329,38,c),
(335,8,l),
(502,-99,o),
(799,-175,o),
(1050,-175,c)
);
}
);
width = 902;
}
);
metricLeft = O;
metricWidth = O;
unicode = 81;
},
{
glyphname = R;
lastChange = "2024-11-09 12:55:12 +0000";
layers = (
{
layerId = m002;
shapes = (
{
closed = 1;
nodes = (
(539,-3,o),
(595,-2,o),
(621,0,c),
(628,39,l),
(627,38,o),
(612,38,o),
(594,38,cs),
(571,38,o),
(523,41,o),
(512,66,cs),
(438,226,o),
(376,340,o),
(366,357,c),
(370,328,l),
(491,352,o),
(586,439,o),
(608,537,cs),
(629,627,o),
(562,700,o),
(443,700,cs),
(408,700,o),
(312,698,o),
(287,698,cs),
(243,698,o),
(201,700,o),
(158,700,c),
(151,662,l),
(157,662,o),
(157,662,o),
(169,662,cs),
(209,662,o),
(236,639,o),
(226,593,cs),
(213,539,o),
(113,103,o),
(106,73,cs),
(100,47,o),
(72,38,o),
(49,38,cs),
(21,38,l),
(15,0,l),
(253,0,l),
(259,38,l),
(248,38,o),
(231,38,o),
(206,38,cs),
(194,38,o),
(185,46,o),
(191,72,cs),
(201,116,o),
(310,588,o),
(318,625,cs),
(324,648,o),
(348,655,o),
(369,655,cs),
(390,655,o),
(403,655,o),
(423,655,cs),
(487,655,o),
(518,601,o),
(498,517,cs),
(477,426,o),
(399,372,o),
(309,372,cs),
(212,372,l),
(204,327,l),
(293,327,l),
(333,219,o),
(383,114,o),
(410,60,cs),
(427,23,o),
(455,-3,o),
(484,-3,cs)
);
}
);
width = 647;
},
{
associatedMasterId = m002;
layerId = "B8A82B29-DBB5-4469-9D79-07BAE11AEB45";
name = "Groote Garmond Romyn";
shapes = (
{
closed = 1;
nodes = (
(657,-3,o),
(723,-2,o),
(753,0,c),
(753,39,l),
(752,38,o),
(735,38,o),
(713,38,cs),
(687,38,o),
(631,56,o),
(611,81,cs),
(481,241,o),
(377,345,o),
(360,362,c),
(380,328,l),
(504,352,o),
(592,439,o),
(592,537,cs),
(592,627,o),
(493,700,o),
(353,700,cs),
(312,700,o),
(200,698,o),
(170,698,cs),
(119,698,o),
(69,700,o),
(18,700,c),
(18,662,l),
(25,662,o),
(24,662,o),
(39,662,cs),
(86,662,o),
(127,639,o),
(127,593,cs),
(127,539,o),
(127,103,o),
(127,73,cs),
(127,47,o),
(100,38,o),
(72,38,cs),
(40,38,l),
(40,0,l),
(320,0,l),
(320,38,l),
(306,38,o),
(287,38,o),
(257,38,cs),
(243,38,o),
(227,56,o),
(227,72,cs),
(227,116,o),
(227,588,o),
(227,625,cs),
(227,638,o),
(251,655,o),
(276,655,cs),
(300,655,o),
(316,655,o),
(339,655,cs),
(415,655,o),
(468,601,o),
(468,517,cs),
(468,426,o),
(393,372,o),
(287,372,cs),
(173,372,l),
(173,327,l),
(278,327,l),
(355,219,o),
(442,114,o),
(488,60,cs),
(519,23,o),
(559,-3,o),
(593,-3,cs)
);
}
);
width = 762;
},
{
layerId = m003;
shapes = (
{
closed = 1;
nodes = (
(542,-3,o),
(598,-2,o),
(624,0,c),
(631,29,l),
(630,28,o),
(615,28,o),
(597,28,cs),
(574,28,o),
(526,41,o),
(515,66,cs),
(441,226,o),
(379,340,o),
(369,357,c),
(373,328,l),
(494,352,o),
(589,439,o),
(611,537,cs),
(632,627,o),
(565,700,o),
(446,700,cs),
(411,700,o),
(315,698,o),
(290,698,cs),
(246,698,o),
(204,700,o),
(161,700,c),
(154,672,l),
(160,672,o),
(160,672,o),
(172,672,cs),
(212,672,o),
(239,639,o),
(229,593,cs),
(216,539,o),
(116,103,o),
(109,73,cs),
(103,47,o),
(75,28,o),
(52,28,cs),
(24,28,l),
(18,0,l),
(256,0,l),
(262,28,l),
(251,28,o),
(234,28,o),
(209,28,cs),
(197,28,o),
(188,46,o),
(194,72,cs),
(204,116,o),
(313,588,o),
(321,625,cs),
(327,648,o),
(351,665,o),
(372,665,cs),
(393,665,o),
(406,665,o),
(426,665,cs),
(490,665,o),
(521,601,o),
(501,517,cs),
(480,426,o),
(402,362,o),
(312,362,cs),
(215,362,l),
(207,327,l),
(296,327,l),
(336,219,o),
(386,114,o),
(413,60,cs),
(430,23,o),
(458,-3,o),
(487,-3,cs)
);
}
);
width = 653;
},
{
associatedMasterId = m003;
layerId = "112862B9-426A-4217-842E-8D0AAC7DB232";
name = "Groote Garmond Romyn";
shapes = (
{
closed = 1;
nodes = (
(657,-3,o),
(723,-2,o),
(753,0,c),
(753,39,l),
(752,38,o),
(735,38,o),
(713,38,cs),
(687,38,o),
(631,56,o),
(611,81,cs),
(481,241,o),
(377,345,o),
(360,362,c),
(380,328,l),
(504,352,o),
(592,439,o),
(592,537,cs),
(592,627,o),
(493,700,o),
(353,700,cs),
(312,700,o),
(200,698,o),
(170,698,cs),
(119,698,o),
(69,700,o),
(18,700,c),
(18,662,l),
(25,662,o),
(24,662,o),
(39,662,cs),
(86,662,o),
(127,639,o),
(127,593,cs),
(127,539,o),
(127,103,o),
(127,73,cs),
(127,47,o),
(100,38,o),
(72,38,cs),
(40,38,l),
(40,0,l),
(320,0,l),
(320,38,l),
(306,38,o),
(287,38,o),
(257,38,cs),
(243,38,o),
(227,56,o),
(227,72,cs),
(227,116,o),
(227,588,o),
(227,625,cs),
(227,638,o),
(251,655,o),
(276,655,cs),
(300,655,o),
(316,655,o),
(339,655,cs),
(415,655,o),
(468,601,o),
(468,517,cs),
(468,426,o),
(393,372,o),
(287,372,cs),
(173,372,l),
(173,327,l),
(278,327,l),
(355,219,o),
(442,114,o),
(488,60,cs),
(519,23,o),
(559,-3,o),
(593,-3,cs)
);
}
);
width = 762;
}
);
metricLeft = H;
unicode = 82;
},
{
glyphname = S;
lastChange = "2024-11-09 12:55:28 +0000";
layers = (
{
layerId = m002;
shapes = (
{
closed = 1;
nodes = (
(318,-16,o),
(426,71,o),
(455,194,cs),
(501,395,o),
(216,384,o),
(258,563,cs),
(274,633,o),
(339,672,o),
(395,672,cs),
(461,672,o),
(482,618,o),
(476,527,c),
(499,527,l),
(540,704,l),
(509,704,l),
(497,673,l),
(479,696,o),
(437,712,o),
(394,712,cs),
(283,712,o),
(186,634,o),
(160,524,cs),
(115,329,o),
(398,334,o),
(355,148,cs),
(337,70,o),
(262,24,o),
(192,24,cs),
(106,24,o),
(81,95,o),
(106,209,c),
(68,209,l),
(43,100,l),
(62,32,o),
(124,-16,o),
(192,-16,cs)
);
}
);
width = 519;
},
{
associatedMasterId = m002;
layerId = "40C7D379-C9C3-4E8F-B375-79D2F40F5C21";
name = "Groote Garmond Romyn";
shapes = (
{
closed = 1;
nodes = (
(410,-16,o),
(514,71,o),
(514,194,cs),
(514,395,o),
(182,384,o),
(182,563,cs),
(182,633,o),
(234,672,o),
(300,672,cs),
(377,672,o),
(433,618,o),
(450,527,c),
(476,527,l),
(476,704,l),
(451,704,l),
(434,673,l),
(406,696,o),
(352,712,o),
(302,712,cs),
(171,712,o),
(78,634,o),
(78,524,cs),
(78,329,o),
(409,334,o),
(409,148,cs),
(409,70,o),
(348,24,o),
(266,24,cs),
(164,24,o),
(100,95,o),
(98,209,c),
(55,209,l),
(55,100,l),
(96,32,o),
(182,-16,o),
(262,-16,cs)
);
}
);
width = 578;
},
{
layerId = m003;
shapes = (
{
closed = 1;
nodes = (
(321,-16,o),
(429,71,o),
(458,194,cs),
(504,395,o),
(219,384,o),
(261,563,cs),
(277,633,o),
(342,682,o),
(398,682,cs),
(464,682,o),
(495,618,o),
(489,527,c),
(502,527,l),
(543,704,l),
(522,704,l),
(500,673,l),
(482,696,o),
(440,712,o),
(397,712,cs),
(286,712,o),
(189,634,o),
(163,524,cs),
(118,329,o),
(401,334,o),
(358,148,cs),
(340,70,o),
(265,14,o),
(195,14,cs),
(109,14,o),
(74,95,o),
(99,209,c),
(71,209,l),
(46,100,l),
(65,32,o),
(127,-16,o),
(195,-16,cs)
);
}
);
width = 525;
},
{
associatedMasterId = m003;
layerId = "DF851C7D-90A0-4F94-AE59-87873875CD2D";
name = "Groote Garmond Romyn";
shapes = (
{
closed = 1;
nodes = (
(410,-16,o),
(514,71,o),
(514,194,cs),
(514,395,o),
(182,384,o),
(182,563,cs),
(182,633,o),
(234,672,o),
(300,672,cs),
(377,672,o),
(433,618,o),
(450,527,c),
(476,527,l),
(476,704,l),
(451,704,l),
(434,673,l),
(406,696,o),
(352,712,o),
(302,712,cs),
(171,712,o),
(78,634,o),
(78,524,cs),
(78,329,o),
(409,334,o),
(409,148,cs),
(409,70,o),
(348,24,o),
(266,24,cs),
(164,24,o),
(100,95,o),
(98,209,c),
(55,209,l),
(55,100,l),
(96,32,o),
(182,-16,o),
(262,-16,cs)
);
}
);
width = 578;
}
);
metricLeft = O;
metricRight = O;
unicode = 83;
},
{
glyphname = T;
lastChange = "2024-11-09 12:55:42 +0000";
layers = (
{
layerId = m002;
shapes = (
{
closed = 1;
nodes = (
(385,0,l),
(391,38,l),
(382,38,o),
(375,38,o),
(363,38,cs),
(351,38,o),
(301,42,o),
(307,66,cs),
(453,695,l),
(368,695,l),
(322,497,o),
(231,104,o),
(229,95,cs),
(223,68,o),
(190,34,o),
(158,34,cs),
(135,34,l),
(129,0,l)
);
},
{
closed = 1;
nodes = (
(661,552,l),
(685,713,l),
(644,700,l),
(162,700,l),
(135,711,l),
(85,562,l),
(108,556,l),
(180,660,l),
(607,660,l),
(634,546,l)
);
}
);
width = 599;
},
{
associatedMasterId = m002;
layerId = "41E47ACF-CA0E-4717-84A3-4FFB967B3FE4";
name = "Groote Garmond Romyn";
shapes = (
{
closed = 1;
nodes = (
(514,0,l),
(514,38,l),
(503,38,o),
(495,38,o),
(481,38,cs),
(467,38,o),
(405,42,o),
(405,66,cs),
(405,695,l),
(305,695,l),
(305,497,o),
(305,104,o),
(305,95,cs),
(305,68,o),
(278,34,o),
(241,34,cs),
(213,34,l),
(213,0,l)
);
},
{
closed = 1;
nodes = (
(689,552,l),
(673,713,l),
(629,700,l),
(62,700,l),
(27,711,l),
(9,562,l),
(35,556,l),
(82,655,l),
(608,655,l),
(660,546,l)
);
}
);
width = 698;
},
{
layerId = m003;
shapes = (
{
closed = 1;
nodes = (
(388,0,l),
(394,28,l),
(385,28,o),
(378,28,o),
(366,28,cs),
(354,28,o),
(303,32,o),
(310,66,cs),
(456,695,l),
(371,695,l),
(325,497,o),
(234,104,o),
(232,95,cs),
(226,68,o),
(193,24,o),
(161,24,cs),
(138,24,l),
(132,0,l)
);
},
{
closed = 1;
nodes = (
(664,552,l),
(688,713,l),
(647,700,l),
(165,700,l),
(138,711,l),
(88,562,l),
(101,556,l),
(173,660,l),
(620,660,l),
(647,546,l)
);
}
);
width = 605;
},
{
associatedMasterId = m003;
layerId = "79EFE187-6D43-44CE-9D11-59DE2A1E3B27";
name = "Groote Garmond Romyn";
shapes = (
{
closed = 1;
nodes = (
(514,0,l),
(514,38,l),
(503,38,o),
(495,38,o),
(481,38,cs),
(467,38,o),
(405,42,o),
(405,66,cs),
(405,695,l),
(305,695,l),
(305,497,o),
(305,104,o),
(305,95,cs),
(305,68,o),
(278,34,o),
(241,34,cs),
(213,34,l),
(213,0,l)
);
},
{
closed = 1;
nodes = (
(689,552,l),
(673,713,l),
(629,700,l),
(62,700,l),
(27,711,l),
(9,562,l),
(35,556,l),
(82,655,l),
(608,655,l),
(660,546,l)
);
}
);
width = 698;
}
);
unicode = 84;
},
{
glyphname = U;
lastChange = "2024-11-10 10:57:52 +0000";
layers = (
{
anchors = (
{
name = bottom;
pos = (297,0);
},
{
name = ogonek;
pos = (590,10);
},
{
name = top;
pos = (467,635);
},
{
name = topright;
pos = (854,700);
}
);
layerId = m002;
shapes = (
{
closed = 1;
nodes = (
(486,-11,o),
(621,95,o),
(656,246,cs),
(712,484,o),
(747,635,o),
(741,611,cs),
(748,640,o),
(772,661,o),
(800,661,cs),
(811,661,l),
(818,699,l),
(580,699,l),
(573,661,l),
(605,661,o),
(657,661,o),
(668,661,cs),
(686,661,o),
(694,637,o),
(686,603,cs),
(649,448,o),
(614,298,o),
(603,241,cs),
(575,124,o),
(463,41,o),
(332,41,cs),
(223,41,o),
(160,104,o),
(181,193,cs),
(229,406,o),
(271,585,o),
(281,626,cs),
(286,646,o),
(313,661,o),
(346,661,cs),
(360,661,l),
(367,699,l),
(163,699,l),
(156,661,l),
(162,661,o),
(167,661,o),
(175,661,cs),
(192,661,o),
(195,623,o),
(183,570,cs),
(206,668,o),
(170,512,o),
(96,192,cs),
(68,73,o),
(165,-11,o),
(331,-11,cs)
);
}
);
width = 726;
},
{
associatedMasterId = m002;
layerId = "D5D6DE5E-A23A-4A25-9E8C-49BE8007E013";
name = "Groote Garmond Romyn";
shapes = (
{
closed = 1;
nodes = (
(602,-11,o),
(742,100,o),
(742,256,cs),
(742,457,o),
(742,578,o),
(742,611,cs),
(742,642,o),
(762,661,o),
(795,661,cs),
(809,661,l),
(809,699,l),
(529,699,l),
(529,661,l),
(566,661,o),
(627,661,o),
(640,661,cs),
(670,661,o),
(682,634,o),
(682,603,cs),
(682,578,o),
(682,266,o),
(682,251,cs),
(682,128,o),
(573,41,o),
(419,41,cs),
(289,41,o),
(197,108,o),
(197,203,cs),
(197,269,o),
(197,606,o),
(197,626,cs),
(197,656,o),
(232,661,o),
(262,661,cs),
(278,661,l),
(278,699,l),
(38,699,l),
(38,661,l),
(45,661,o),
(51,661,o),
(60,661,cs),
(78,661,o),
(97,631,o),
(97,570,cs),
(97,514,o),
(97,254,o),
(97,202,cs),
(97,77,o),
(225,-11,o),
(405,-11,cs)
);
}
);
width = 826;
},
{
anchors = (
{
name = bottom;
pos = (300,0);
},
{
name = ogonek;
pos = (596,10);
},
{
name = top;
pos = (451,635);
},
{
name = topright;
pos = (860,700);
}
);
layerId = m003;
shapes = (
{
closed = 1;
nodes = (
(500,-11,o),
(624,95,o),
(659,246,cs),
(706,447,o),
(736,578,o),
(744,611,cs),
(751,642,o),
(774,671,o),
(803,671,cs),
(814,671,l),
(821,699,l),
(583,699,l),
(576,671,l),
(608,671,o),
(660,671,o),
(671,671,cs),
(696,671,o),
(706,634,o),
(699,603,cs),
(693,578,o),
(619,256,o),
(616,241,cs),
(587,118,o),
(471,31,o),
(335,31,cs),
(231,31,o),
(162,98,o),
(184,193,cs),
(199,259,o),
(279,606,o),
(284,626,cs),
(291,656,o),
(324,671,o),
(349,671,cs),
(363,671,l),
(370,699,l),
(166,699,l),
(159,671,l),
(165,671,o),
(170,671,o),
(178,671,cs),
(193,671,o),
(200,631,o),
(186,570,cs),
(173,514,o),
(111,244,o),
(99,192,cs),
(71,73,o),
(177,-11,o),
(334,-11,cs)
);
}
);
width = 732;
},
{
associatedMasterId = m003;
layerId = "0D632471-F035-43A1-881F-2FF9F93BB3C1";
name = "Groote Garmond Romyn";
shapes = (
{
closed = 1;
nodes = (
(602,-11,o),
(742,100,o),
(742,256,cs),
(742,457,o),
(742,578,o),
(742,611,cs),
(742,642,o),
(762,661,o),
(795,661,cs),
(809,661,l),
(809,699,l),
(529,699,l),
(529,661,l),
(566,661,o),
(627,661,o),
(640,661,cs),
(670,661,o),
(682,634,o),
(682,603,cs),
(682,578,o),
(682,266,o),
(682,251,cs),
(682,128,o),
(573,41,o),
(419,41,cs),
(289,41,o),
(197,108,o),
(197,203,cs),
(197,269,o),
(197,606,o),
(197,626,cs),
(197,656,o),
(232,661,o),
(262,661,cs),
(278,661,l),
(278,699,l),
(38,699,l),
(38,661,l),
(45,661,o),
(51,661,o),
(60,661,cs),
(78,661,o),
(97,631,o),
(97,570,cs),
(97,514,o),
(97,254,o),
(97,202,cs),
(97,77,o),
(225,-11,o),
(405,-11,cs)
);
}
);
width = 826;
}
);
metricLeft = n;
metricRight = n;
unicode = 85;
},
{
glyphname = V;
lastChange = "2024-11-09 12:56:23 +0000";
layers = (
{
layerId = m002;
shapes = (
{
closed = 1;
nodes = (
(271,0,l),
(613,641,ls),
(622,657,o),
(645,659,o),
(667,659,cs),
(702,659,l),
(710,700,l),
(514,700,l),
(507,659,l),
(553,659,ls),
(573,659,o),
(580,658,o),
(571,641,cs),
(309,150,l),
(246,621,ls),
(242,651,o),
(264,662,o),
(289,662,cs),
(333,662,l),
(340,700,l),
(110,700,l),
(104,662,l),
(133,662,ls),
(145,662,o),
(156,653,o),
(161,627,c),
(239,-12,l)
);
}
);
width = 596;
},
{
associatedMasterId = m002;
layerId = "3B9B7337-952C-469A-9574-7977706CE7D0";
name = "Groote Garmond Romyn";
shapes = (
{
closed = 1;
nodes = (
(388,0,l),
(617,641,ls),
(623,657,o),
(646,659,o),
(672,659,cs),
(714,659,l),
(714,700,l),
(484,700,l),
(484,659,l),
(538,659,ls),
(562,659,o),
(573,658,o),
(567,641,cs),
(392,150,l),
(190,621,ls),
(177,651,o),
(197,662,o),
(227,662,cs),
(279,662,l),
(279,700,l),
(9,700,l),
(9,662,l),
(43,662,ls),
(57,662,o),
(76,653,o),
(88,627,c),
(354,-12,l)
);
}
);
width = 723;
},
{
layerId = m003;
shapes = (
{
closed = 1;
nodes = (
(274,0,l),
(616,641,ls),
(625,657,o),
(648,669,o),
(670,669,cs),
(705,669,l),
(713,700,l),
(517,700,l),
(510,669,l),
(556,669,ls),
(576,669,o),
(583,658,o),
(574,641,cs),
(312,150,l),
(249,621,ls),
(245,651,o),
(267,672,o),
(292,672,cs),
(336,672,l),
(343,700,l),
(113,700,l),
(107,672,l),
(136,672,ls),
(148,672,o),
(159,653,o),
(164,627,c),
(242,-12,l)
);
}
);
width = 602;
},
{
associatedMasterId = m003;
layerId = "CEA38F5D-B215-4D7E-BAC0-79E16FCC6AFD";
name = "Groote Garmond Romyn";
shapes = (
{
closed = 1;
nodes = (
(388,0,l),
(617,641,ls),
(623,657,o),
(646,659,o),
(672,659,cs),
(714,659,l),
(714,700,l),
(484,700,l),
(484,659,l),
(538,659,ls),
(562,659,o),
(573,658,o),
(567,641,cs),
(392,150,l),
(190,621,ls),
(177,651,o),
(197,662,o),
(227,662,cs),
(279,662,l),
(279,700,l),
(9,700,l),
(9,662,l),
(43,662,ls),
(57,662,o),
(76,653,o),
(88,627,c),
(354,-12,l)
);
}
);
width = 723;
}
);
unicode = 86;
},
{
glyphname = W;
lastChange = "2024-11-09 12:56:42 +0000";
layers = (
{
layerId = m002;
shapes = (
{
closed = 1;
nodes = (
(551,0,l),
(877,641,ls),
(885,657,o),
(908,659,o),
(930,659,cs),
(966,659,l),
(973,700,l),
(814,700,l),
(807,659,l),
(816,659,ls),
(837,659,o),
(839,651,o),
(834,641,cs),
(603,167,l),
(582,616,ls),
(581,646,o),
(595,662,o),
(621,662,cs),
(648,662,l),
(654,700,l),
(442,700,l),
(435,662,l),
(464,662,ls),
(476,662,o),
(488,653,o),
(492,627,c),
(520,-12,l)
);
},
{
closed = 1;
nodes = (
(220,0,l),
(579,662,l),
(536,662,l),
(272,164,l),
(250,621,ls),
(249,651,o),
(264,662,o),
(289,662,cs),
(316,662,l),
(323,700,l),
(110,700,l),
(104,662,l),
(133,662,ls),
(145,662,o),
(156,653,o),
(161,627,c),
(188,-12,l)
);
}
);
width = 870;
},
{
associatedMasterId = m002;
layerId = "E09BA9A6-FF19-435F-9B06-D103E9E877D2";
name = "Groote Garmond Romyn";
shapes = (
{
closed = 1;
nodes = (
(718,0,l),
(927,641,ls),
(929,648,o),
(956,659,o),
(982,659,cs),
(1024,659,l),
(1024,700,l),
(837,700,l),
(837,659,l),
(848,659,ls),
(872,659,o),
(880,649,o),
(877,641,cs),
(732,187,l),
(587,616,ls),
(577,646,o),
(587,662,o),
(617,662,cs),
(649,662,l),
(649,700,l),
(399,700,l),
(399,662,l),
(433,662,ls),
(447,662,o),
(466,653,o),
(478,627,c),
(684,-12,l)
);
},
{
closed = 1;
nodes = (
(328,0,l),
(568,662,l),
(518,662,l),
(343,184,l),
(195,621,ls),
(185,651,o),
(197,662,o),
(227,662,cs),
(259,662,l),
(259,700,l),
(9,700,l),
(9,662,l),
(43,662,ls),
(57,662,o),
(76,653,o),
(88,627,c),
(294,-12,l)
);
}
);
width = 1033;
},
{
layerId = m003;
shapes = (
{
closed = 1;
nodes = (
(554,0,l),
(880,641,ls),
(888,657,o),
(911,669,o),
(933,669,cs),
(969,669,l),
(976,700,l),
(817,700,l),
(810,669,l),
(819,669,ls),
(840,669,o),
(846,658,o),
(837,641,cs),
(606,167,l),
(585,616,ls),
(584,646,o),
(598,672,o),
(624,672,cs),
(651,672,l),
(657,700,l),
(445,700,l),
(438,672,l),
(467,672,ls),
(479,672,o),
(491,653,o),
(495,627,c),
(523,-12,l)
);
},
{
closed = 1;
nodes = (
(223,0,l),
(582,672,l),
(539,672,l),
(275,164,l),
(253,621,ls),
(252,651,o),
(267,672,o),
(292,672,cs),
(319,672,l),
(326,700,l),
(113,700,l),
(107,672,l),
(136,672,ls),
(148,672,o),
(159,653,o),
(164,627,c),
(191,-12,l)
);
}
);
width = 876;
},
{
associatedMasterId = m003;
layerId = "7E06DBC4-A713-4A6A-8382-A07154152019";
name = "Groote Garmond Romyn";
shapes = (
{
closed = 1;
nodes = (
(718,0,l),
(927,641,ls),
(929,648,o),
(956,659,o),
(982,659,cs),
(1024,659,l),
(1024,700,l),
(837,700,l),
(837,659,l),
(848,659,ls),
(872,659,o),
(880,649,o),
(877,641,cs),
(732,187,l),
(587,616,ls),
(577,646,o),
(587,662,o),
(617,662,cs),
(649,662,l),
(649,700,l),
(399,700,l),
(399,662,l),
(433,662,ls),
(447,662,o),
(466,653,o),
(478,627,c),
(684,-12,l)
);
},
{
closed = 1;
nodes = (
(328,0,l),
(568,662,l),
(518,662,l),
(343,184,l),
(195,621,ls),
(185,651,o),
(197,662,o),
(227,662,cs),
(259,662,l),
(259,700,l),
(9,700,l),
(9,662,l),
(43,662,ls),
(57,662,o),
(76,653,o),
(88,627,c),
(294,-12,l)
);
}
);
width = 1033;
}
);
unicode = 87;
},
{
glyphname = X;
lastChange = "2024-11-09 12:57:12 +0000";
layers = (
{
layerId = m002;
shapes = (
{
closed = 1;
nodes = (
(562,0,l),
(568,38,l),
(543,38,l),
(521,38,o),
(500,55,o),
(492,79,cs),
(427,281,o),
(345,514,o),
(293,642,cs),
(289,654,o),
(301,662,o),
(322,662,cs),
(374,662,l),
(381,700,l),
(143,700,l),
(136,662,l),
(146,662,l),
(171,662,o),
(191,657,o),
(194,649,cs),
(291,376,o),
(368,155,o),
(380,116,cs),
(395,70,o),
(383,38,o),
(351,38,cs),
(313,38,l),
(307,0,l)
);
},
{
closed = 1;
nodes = (
(192,0,l),
(198,38,l),
(191,38,o),
(192,38,o),
(175,38,cs),
(129,38,o),
(117,65,o),
(146,104,cs),
(156,116,o),
(246,216,o),
(364,346,c),
(344,369,l),
(272,289,o),
(158,165,o),
(69,70,cs),
(51,51,o),
(10,38,o),
(-30,38,c),
(-37,0,l)
);
},
{
closed = 1;
nodes = (
(652,651,l),
(658,657,o),
(671,662,o),
(685,662,cs),
(720,662,l),
(727,700,l),
(496,700,l),
(490,662,l),
(502,662,o),
(511,662,o),
(554,662,cs),
(585,662,o),
(578,628,o),
(537,579,cs),
(517,555,o),
(439,464,o),
(349,359,c),
(369,336,l)
);
}
);
width = 643;
},
{
associatedMasterId = m002;
layerId = "B0C80651-7D61-4AED-9CB9-2694C4C1D12E";
name = "Groote Garmond Romyn";
shapes = (
{
closed = 1;
nodes = (
(722,0,l),
(722,38,l),
(692,38,l),
(675,38,o),
(638,59,o),
(618,89,cs),
(501,269,o),
(343,483,o),
(232,632,cs),
(219,650,o),
(230,662,o),
(257,662,cs),
(319,662,l),
(319,700,l),
(39,700,l),
(39,662,l),
(51,662,l),
(72,662,o),
(104,652,o),
(113,639,cs),
(146,591,o),
(466,132,o),
(477,116,cs),
(511,64,o),
(500,38,o),
(466,38,cs),
(422,38,l),
(422,0,l)
);
},
{
closed = 1;
nodes = (
(287,0,l),
(287,38,l),
(278,38,o),
(279,38,o),
(260,38,cs),
(200,38,o),
(177,59,o),
(205,104,cs),
(212,115,o),
(294,210,o),
(399,341,c),
(369,374,l),
(307,295,o),
(211,176,o),
(131,80,cs),
(110,55,o),
(63,38,o),
(18,38,c),
(18,0,l)
);
},
{
closed = 1;
nodes = (
(643,641,l),
(654,655,o),
(670,662,o),
(685,662,cs),
(726,662,l),
(726,700,l),
(455,700,l),
(455,662,l),
(469,662,o),
(480,662,o),
(530,662,cs),
(565,662,o),
(574,633,o),
(536,579,cs),
(502,530,o),
(489,525,o),
(369,364,c),
(399,331,l)
);
}
);
width = 744;
},
{
layerId = m003;
shapes = (
{
closed = 1;
nodes = (
(565,0,l),
(571,28,l),
(546,28,l),
(531,28,o),
(505,49,o),
(495,79,cs),
(437,259,o),
(356,493,o),
(296,642,cs),
(290,660,o),
(302,672,o),
(325,672,cs),
(377,672,l),
(384,700,l),
(146,700,l),
(139,672,l),
(149,672,l),
(167,672,o),
(192,662,o),
(197,649,cs),
(214,601,o),
(378,132,o),
(383,116,cs),
(400,64,o),
(382,28,o),
(354,28,cs),
(316,28,l),
(310,0,l)
);
},
{
closed = 1;
nodes = (
(195,0,l),
(201,28,l),
(194,28,o),
(195,28,o),
(178,28,cs),
(127,28,o),
(115,59,o),
(149,104,cs),
(158,115,o),
(248,215,o),
(367,346,c),
(354,369,l),
(283,290,o),
(169,166,o),
(79,70,cs),
(55,45,o),
(11,28,o),
(-27,28,c),
(-34,0,l)
);
},
{
closed = 1;
nodes = (
(648,651,l),
(660,665,o),
(676,672,o),
(688,672,cs),
(723,672,l),
(730,700,l),
(499,700,l),
(493,672,l),
(505,672,o),
(514,672,o),
(557,672,cs),
(586,672,o),
(585,633,o),
(540,579,cs),
(500,530,o),
(491,520,o),
(352,359,c),
(365,336,l)
);
}
);
width = 649;
},
{
associatedMasterId = m003;
layerId = "16477629-8259-447D-B812-091909061D05";
name = "Groote Garmond Romyn";
shapes = (
{
closed = 1;
nodes = (
(722,0,l),
(722,38,l),
(692,38,l),
(675,38,o),
(638,59,o),
(618,89,cs),
(501,269,o),
(343,483,o),
(232,632,cs),
(219,650,o),
(230,662,o),
(257,662,cs),
(319,662,l),
(319,700,l),
(39,700,l),
(39,662,l),
(51,662,l),
(72,662,o),
(104,652,o),
(113,639,cs),
(146,591,o),
(466,132,o),
(477,116,cs),
(511,64,o),
(500,38,o),
(466,38,cs),
(422,38,l),
(422,0,l)
);
},
{
closed = 1;
nodes = (
(287,0,l),
(287,38,l),
(278,38,o),
(279,38,o),
(260,38,cs),
(200,38,o),
(177,59,o),
(205,104,cs),
(212,115,o),
(294,210,o),
(399,341,c),
(369,374,l),
(307,295,o),
(211,176,o),
(131,80,cs),
(110,55,o),
(63,38,o),
(18,38,c),
(18,0,l)
);
},
{
closed = 1;
nodes = (
(643,641,l),
(654,655,o),
(670,662,o),
(685,662,cs),
(726,662,l),
(726,700,l),
(455,700,l),
(455,662,l),
(469,662,o),
(480,662,o),
(530,662,cs),
(565,662,o),
(574,633,o),
(536,579,cs),
(502,530,o),
(489,525,o),
(369,364,c),
(399,331,l)
);
}
);
width = 744;
}
);
metricLeft = n;
metricRight = n;
unicode = 88;
},
{
glyphname = Y;
lastChange = "2024-11-09 12:58:01 +0000";
layers = (
{
layerId = m002;
shapes = (
{
closed = 1;
nodes = (
(354,0,l),
(360,38,l),
(351,38,o),
(344,38,o),
(332,38,cs),
(296,38,o),
(273,50,o),
(276,66,cs),
(334,314,l),
(249,314,l),
(198,95,l),
(190,59,o),
(161,34,o),
(127,34,cs),
(104,34,l),
(98,0,l)
);
},
{
closed = 1;
nodes = (
(325,319,l),
(259,632,l),
(256,650,o),
(274,662,o),
(302,662,cs),
(377,662,l),
(384,700,l),
(120,700,l),
(114,662,l),
(149,662,l),
(162,662,o),
(174,657,o),
(176,649,c),
(249,292,l)
);
},
{
closed = 1;
nodes = (
(571,651,l),
(577,657,o),
(594,662,o),
(612,662,cs),
(647,662,l),
(653,700,l),
(474,700,l),
(467,662,l),
(504,662,l),
(512,662,o),
(512,649,o),
(500,630,cs),
(296,314,l),
(334,314,l)
);
}
);
width = 560;
},
{
associatedMasterId = m002;
layerId = "F5BB848F-83B6-47E3-BDD9-47E50DED61DD";
name = "Groote Garmond Romyn";
shapes = (
{
closed = 1;
nodes = (
(474,0,l),
(474,38,l),
(463,38,o),
(455,38,o),
(441,38,cs),
(427,38,o),
(365,42,o),
(365,66,cs),
(365,314,l),
(265,314,l),
(265,95,l),
(265,68,o),
(238,34,o),
(201,34,cs),
(173,34,l),
(173,0,l)
);
},
{
closed = 1;
nodes = (
(365,319,l),
(202,632,l),
(189,660,o),
(202,662,o),
(230,662,cs),
(319,662,l),
(319,700,l),
(9,700,l),
(9,662,l),
(51,662,l),
(62,662,o),
(80,662,o),
(89,649,c),
(271,292,l)
);
},
{
closed = 1;
nodes = (
(553,641,l),
(563,653,o),
(580,662,o),
(595,662,cs),
(636,662,l),
(636,700,l),
(425,700,l),
(425,662,l),
(480,662,l),
(498,662,o),
(504,655,o),
(490,630,cs),
(312,314,l),
(365,314,l)
);
}
);
width = 645;
},
{
layerId = m003;
shapes = (
{
closed = 1;
nodes = (
(357,0,l),
(363,28,l),
(354,28,o),
(347,28,o),
(335,28,cs),
(323,28,o),
(272,32,o),
(279,66,cs),
(337,314,l),
(252,314,l),
(201,95,l),
(195,68,o),
(162,24,o),
(130,24,cs),
(107,24,l),
(101,0,l)
);
},
{
closed = 1;
nodes = (
(328,319,l),
(262,632,l),
(257,660,o),
(281,672,o),
(305,672,cs),
(380,672,l),
(387,700,l),
(123,700,l),
(117,672,l),
(152,672,l),
(162,672,o),
(175,662,o),
(179,649,c),
(252,292,l)
);
},
{
closed = 1;
nodes = (
(574,651,l),
(586,663,o),
(602,672,o),
(615,672,cs),
(650,672,l),
(656,700,l),
(477,700,l),
(470,672,l),
(517,672,l),
(532,672,o),
(532,655,o),
(516,630,cs),
(304,314,l),
(337,314,l)
);
}
);
width = 566;
},
{
associatedMasterId = m003;
layerId = "E802D1BE-37AB-4F09-B5E4-974714F43EA4";
name = "Groote Garmond Romyn";
shapes = (
{
closed = 1;
nodes = (
(474,0,l),
(474,38,l),
(463,38,o),
(455,38,o),
(441,38,cs),
(427,38,o),
(365,42,o),
(365,66,cs),
(365,314,l),
(265,314,l),
(265,95,l),
(265,68,o),
(238,34,o),
(201,34,cs),
(173,34,l),
(173,0,l)
);
},
{
closed = 1;
nodes = (
(365,319,l),
(202,632,l),
(189,660,o),
(202,662,o),
(230,662,cs),
(319,662,l),
(319,700,l),
(9,700,l),
(9,662,l),
(51,662,l),
(62,662,o),
(80,662,o),
(89,649,c),
(271,292,l)
);
},
{
closed = 1;
nodes = (
(553,641,l),
(563,653,o),
(580,662,o),
(595,662,cs),
(636,662,l),
(636,700,l),
(425,700,l),
(425,662,l),
(480,662,l),
(498,662,o),
(504,655,o),
(490,630,cs),
(312,314,l),
(365,314,l)
);
}
);
width = 645;
}
);
unicode = 89;
},
{
glyphname = Z;
lastChange = "2024-11-09 12:58:24 +0000";
layers = (
{
layerId = m002;
shapes = (
{
closed = 1;
nodes = (
(197,0,l),
(205,45,l),
(146,45,ls),
(126,45,o),
(125,52,o),
(144,77,c),
(610,649,l),
(622,700,l),
(222,700,l),
(122,482,l),
(160,476,l),
(226,587,o),
(291,655,o),
(315,655,cs),
(491,655,ls),
(511,655,o),
(513,650,o),
(494,628,cs),
(397,516,o),
(187,256,o),
(-16,0,c)
);
},
{
closed = 1;
nodes = (
(448,0,l),
(537,212,l),
(513,219,l),
(468,141,o),
(390,45,o),
(339,45,cs),
(266,45,l),
(77,45,l),
(24,45,l),
(16,0,l)
);
}
);
width = 593;
},
{
associatedMasterId = m002;
layerId = "EA2B3DEB-42F8-4840-8A29-665B5A55AEF4";
name = "Groote Garmond Romyn";
shapes = (
{
closed = 1;
nodes = (
(295,0,l),
(295,45,l),
(226,45,ls),
(202,45,o),
(196,52,o),
(212,77,c),
(605,649,l),
(605,700,l),
(134,700,l),
(76,482,l),
(121,476,l),
(168,587,o),
(213,655,o),
(242,655,cs),
(460,655,ls),
(484,655,o),
(490,650,o),
(474,628,cs),
(391,516,o),
(214,256,o),
(45,0,c)
);
},
{
closed = 1;
nodes = (
(590,0,l),
(638,212,l),
(597,219,l),
(566,141,o),
(513,45,o),
(453,45,cs),
(367,45,l),
(145,45,l),
(82,45,l),
(82,0,l)
);
}
);
width = 693;
},
{
layerId = m003;
shapes = (
{
closed = 1;
nodes = (
(200,0,l),
(208,35,l),
(149,35,ls),
(129,35,o),
(128,52,o),
(147,77,c),
(613,649,l),
(625,700,l),
(225,700,l),
(125,482,l),
(153,476,l),
(219,587,o),
(284,665,o),
(308,665,cs),
(494,665,ls),
(514,665,o),
(516,650,o),
(497,628,cs),
(400,516,o),
(190,256,o),
(-13,0,c)
);
},
{
closed = 1;
nodes = (
(451,0,l),
(540,212,l),
(516,219,l),
(471,141,o),
(393,35,o),
(342,35,cs),
(269,35,l),
(80,35,l),
(27,35,l),
(19,0,l)
);
}
);
width = 599;
},
{
associatedMasterId = m003;
layerId = "715A520A-9E7F-47F9-BFC8-2BDDB641084E";
name = "Groote Garmond Romyn";
shapes = (
{
closed = 1;
nodes = (
(295,0,l),
(295,45,l),
(226,45,ls),
(202,45,o),
(196,52,o),
(212,77,c),
(605,649,l),
(605,700,l),
(134,700,l),
(76,482,l),
(121,476,l),
(168,587,o),
(213,655,o),
(242,655,cs),
(460,655,ls),
(484,655,o),
(490,650,o),
(474,628,cs),
(391,516,o),
(214,256,o),
(45,0,c)
);
},
{
closed = 1;
nodes = (
(590,0,l),
(638,212,l),
(597,219,l),
(566,141,o),
(513,45,o),
(453,45,cs),
(367,45,l),
(145,45,l),
(82,45,l),
(82,0,l)
);
}
);
width = 693;
}
);
unicode = 90;
},
{
glyphname = N.alt;
lastChange = "2024-11-09 08:52:11 +0000";
layers = (
{
layerId = m002;
shapes = (
{
closed = 1;
nodes = (
(289,702,l),
(275,640,o),
(151,105,o),
(149,94,cs),
(145,77,o),
(122,32,o),
(93,32,cs),
(-44,32,l),
(-50,4,l),
(352,4,l),
(358,28,l),
(321,28,o),
(279,28,o),
(246,28,cs),
(213,28,o),
(202,66,o),
(212,108,cs),
(332,627,l),
(294,702,l)
);
},
{
closed = 1;
nodes = (
(136,674,l),
(240,674,ls),
(267,674,o),
(288,632,o),
(298,609,cs),
(550,-1,l),
(617,-1,l),
(759,614,ls),
(772,672,o),
(827,672,o),
(848,672,cs),
(869,672,o),
(893,672,o),
(916,672,c),
(923,700,l),
(561,700,l),
(554,672,l),
(652,672,ls),
(670,672,o),
(706,647,o),
(699,616,cs),
(692,585,o),
(624,289,o),
(585,119,c),
(604,101,l),
(347,702,l),
(142,702,l)
);
}
);
width = 793;
},
{
layerId = m003;
shapes = (
{
closed = 1;
nodes = (
(292,702,l),
(278,640,o),
(154,105,o),
(152,94,cs),
(148,77,o),
(125,32,o),
(96,32,cs),
(-41,32,l),
(-47,4,l),
(355,4,l),
(361,28,l),
(324,28,o),
(282,28,o),
(249,28,cs),
(216,28,o),
(205,66,o),
(215,108,cs),
(335,627,l),
(297,702,l)
);
},
{
closed = 1;
nodes = (
(139,674,l),
(243,674,ls),
(270,674,o),
(291,632,o),
(301,609,cs),
(553,-1,l),
(620,-1,l),
(762,614,ls),
(775,672,o),
(830,672,o),
(851,672,cs),
(872,672,o),
(896,672,o),
(919,672,c),
(926,700,l),
(564,700,l),
(557,672,l),
(655,672,ls),
(673,672,o),
(709,647,o),
(702,616,cs),
(695,585,o),
(627,289,o),
(588,119,c),
(607,101,l),
(350,702,l),
(145,702,l)
);
}
);
width = 799;
}
);
},
{
color = 0;
glyphname = a;
lastChange = "2024-11-10 10:54:52 +0000";
layers = (
{
anchors = (
{
name = bottom;
pos = (162,0);
},
{
name = ogonek;
pos = (347,10);
},
{
name = top;
pos = (294,435);
}
);
background = {
shapes = (
{
closed = 1;
nodes = (
(235,-8,o),
(333,86,o),
(384,220,cs),
(448,389,o),
(408,508,o),
(288,508,cs),
(200,508,o),
(100,410,o),
(48,272,cs),
(-13,108,o),
(28,-8,o),
(146,-8,cs)
);
},
{
closed = 1;
nodes = (
(89,20,o),
(85,137,o),
(147,302,cs),
(186,406,o),
(240,480,o),
(278,480,cs),
(346,480,o),
(349,360,o),
(285,190,cs),
(247,90,o),
(194,20,o),
(157,20,cs)
);
}
);
};
layerId = m002;
shapes = (
{
closed = 1;
nodes = (
(116,-8,o),
(201,53,o),
(282,140,c),
(265,168,l),
(206,108,o),
(145,66,o),
(118,66,cs),
(90,66,o),
(96,128,o),
(132,229,cs),
(184,370,o),
(264,460,o),
(325,460,cs),
(336,460,o),
(357,456,o),
(375,437,c),
(413,476,l),
(397,495,o),
(372,508,o),
(353,508,cs),
(239,508,o),
(111,379,o),
(44,197,cs),
(1,77,o),
(14,-8,o),
(76,-8,cs)
);
},
{
closed = 1;
nodes = (
(323,-8,o),
(401,82,o),
(450,210,c),
(420,220,l),
(385,129,o),
(344,64,o),
(321,64,cs),
(301,64,o),
(306,105,o),
(333,177,cs),
(371,284,o),
(423,421,o),
(459,508,c),
(381,500,l),
(287,250,o),
(210,52,o),
(241,135,c),
(210,51,o),
(219,-8,o),
(262,-8,cs)
);
}
);
width = 455;
},
{
associatedMasterId = m002;
layerId = "0AA07DD8-00D6-402C-B121-76C1653733C0";
name = "7. Nov. 24, 00:06";
shapes = (
{
closed = 1;
nodes = (
(386,427,l),
(364,443,o),
(341,460,o),
(326,460,cs),
(253,460,o),
(163,346,o),
(113,184,cs),
(95,125,o),
(89,76,o),
(108,76,cs),
(131,76,o),
(206,136,o),
(276,208,c),
(293,190,l),
(187,77,o),
(81,-10,o),
(46,-10,cs),
(-3,-10,o),
(-12,61,o),
(16,152,cs),
(81,363,o),
(222,508,o),
(354,508,cs),
(374,508,o),
(402,493,o),
(424,476,c)
);
},
{
closed = 1;
nodes = (
(457,500,l),
(414,395,o),
(364,261,o),
(334,177,cs),
(307,105,o),
(302,54,o),
(322,54,cs),
(345,54,o),
(386,119,o),
(421,210,c),
(451,210,l),
(402,82,o),
(324,-8,o),
(263,-8,cs),
(220,-8,o),
(211,51,o),
(242,135,cs),
(211,52,o),
(288,250,o),
(382,500,c)
);
}
);
width = 467;
},
{
associatedMasterId = m002;
background = {
shapes = (
{
closed = 1;
nodes = (
(200,83,o),
(113,-8,o),
(67,-8,cs),
(3,-8,o),
(-18,54,o),
(15,141,cs),
(38,202,o),
(65,270,o),
(82,315,cs),
(109,387,o),
(115,438,o),
(96,438,cs),
(72,438,o),
(29,373,o),
(-8,282,c),
(-38,282,l),
(15,414,o),
(95,508,o),
(155,508,cs),
(199,508,o),
(206,445,o),
(173,357,cs),
(136,259,o),
(109,190,o),
(109,192,cs),
(83,118,o),
(83,66,o),
(110,66,cs),
(145,66,o),
(215,145,o),
(277,257,c),
(277,212,l)
);
},
{
closed = 1;
nodes = (
(442,500,l),
(402,401,o),
(351,268,o),
(319,177,cs),
(292,105,o),
(287,54,o),
(307,54,cs),
(330,54,o),
(371,119,o),
(406,210,c),
(436,210,l),
(387,82,o),
(309,-8,o),
(248,-8,cs),
(205,-8,o),
(196,51,o),
(227,135,cs),
(196,52,o),
(273,250,o),
(367,500,c)
);
}
);
};
layerId = "1D363441-946F-44AD-A9C5-8CF4D87ECED2";
name = "8. Nov. 24, 10:52";
shapes = (
{
closed = 1;
nodes = (
(376,417,l),
(343,441,o),
(313,452,o),
(286,452,cs),
(209,452,o),
(152,362,o),
(103,205,cs),
(89,162,o),
(82,126,o),
(82,101,cs),
(82,79,o),
(101,56,o),
(112,56,cs),
(166,56,o),
(230,120,o),
(286,197,c),
(293,190,l),
(221,73,o),
(135,-10,o),
(86,-10,cs),
(16,-10,o),
(-13,57,o),
(16,152,cs),
(80,361,o),
(220,508,o),
(354,508,cs),
(372,508,o),
(401,495,o),
(424,476,c)
);
},
{
closed = 1;
nodes = (
(460,508,l),
(424,421,o),
(372,284,o),
(334,177,cs),
(307,105,o),
(302,54,o),
(322,54,cs),
(345,54,o),
(386,119,o),
(421,210,c),
(451,210,l),
(402,82,o),
(324,-8,o),
(263,-8,cs),
(220,-8,o),
(211,51,o),
(242,135,cs),
(211,52,o),
(288,250,o),
(382,500,c)
);
},
{
closed = 1;
nodes = (
(89,-10,o),
(183,73,o),
(293,190,c),
(276,208,l),
(195,125,o),
(126,66,o),
(109,66,cs),
(83,66,o),
(82,115,o),
(107,184,cs),
(166,346,o),
(257,460,o),
(326,460,cs),
(335,460,o),
(359,446,o),
(386,427,c),
(424,476,l),
(400,495,o),
(371,508,o),
(354,508,cs),
(232,508,o),
(91,361,o),
(15,152,cs),
(-19,57,o),
(2,-10,o),
(66,-10,cs)
);
}
);
width = 467;
},
{
anchors = (
{
name = bottom;
pos = (165,0);
},
{
name = ogonek;
pos = (352,10);
},
{
name = top;
pos = (297,435);
}
);
background = {
shapes = (
{
closed = 1;
nodes = (
(235,-8,o),
(333,86,o),
(384,220,cs),
(448,389,o),
(408,508,o),
(288,508,cs),
(200,508,o),
(100,410,o),
(48,272,cs),
(-13,108,o),
(28,-8,o),
(146,-8,cs)
);
},
{
closed = 1;
nodes = (
(89,20,o),
(85,137,o),
(147,302,cs),
(186,406,o),
(240,480,o),
(278,480,cs),
(346,480,o),
(349,360,o),
(285,190,cs),
(247,90,o),
(194,20,o),
(157,20,cs)
);
}
);
};
layerId = m003;
shapes = (
{
closed = 1;
nodes = (
(119,-8,o),
(204,53,o),
(285,140,c),
(268,158,l),
(209,98,o),
(148,56,o),
(121,56,cs),
(93,56,o),
(99,128,o),
(135,229,cs),
(187,370,o),
(267,470,o),
(328,470,cs),
(339,470,o),
(360,456,o),
(378,437,c),
(416,476,l),
(400,495,o),
(375,508,o),
(356,508,cs),
(242,508,o),
(114,379,o),
(47,197,cs),
(4,77,o),
(17,-8,o),
(79,-8,cs)
);
},
{
closed = 1;
nodes = (
(326,-8,o),
(404,82,o),
(453,210,c),
(423,210,l),
(388,119,o),
(347,54,o),
(324,54,cs),
(304,54,o),
(309,105,o),
(336,177,cs),
(374,284,o),
(426,421,o),
(462,508,c),
(384,500,l),
(290,250,o),
(213,52,o),
(244,135,c),
(213,51,o),
(222,-8,o),
(265,-8,cs)
);
}
);
width = 461;
},
{
associatedMasterId = m003;
layerId = "0DE6FB79-B0B6-414C-BAFE-4B31CAFD69E7";
name = "7. Nov. 24, 00:06";
shapes = (
{
closed = 1;
nodes = (
(386,427,l),
(364,443,o),
(341,460,o),
(326,460,cs),
(253,460,o),
(163,346,o),
(113,184,cs),
(95,125,o),
(89,76,o),
(108,76,cs),
(131,76,o),
(206,136,o),
(276,208,c),
(293,190,l),
(187,77,o),
(81,-10,o),
(46,-10,cs),
(-3,-10,o),
(-12,61,o),
(16,152,cs),
(81,363,o),
(222,508,o),
(354,508,cs),
(374,508,o),
(402,493,o),
(424,476,c)
);
},
{
closed = 1;
nodes = (
(457,500,l),
(414,395,o),
(364,261,o),
(334,177,cs),
(307,105,o),
(302,54,o),
(322,54,cs),
(345,54,o),
(386,119,o),
(421,210,c),
(451,210,l),
(402,82,o),
(324,-8,o),
(263,-8,cs),
(220,-8,o),
(211,51,o),
(242,135,cs),
(211,52,o),
(288,250,o),
(382,500,c)
);
}
);
width = 467;
},
{
associatedMasterId = m003;
background = {
shapes = (
{
closed = 1;
nodes = (
(200,83,o),
(113,-8,o),
(67,-8,cs),
(3,-8,o),
(-18,54,o),
(15,141,cs),
(38,202,o),
(65,270,o),
(82,315,cs),
(109,387,o),
(115,438,o),
(96,438,cs),
(72,438,o),
(29,373,o),
(-8,282,c),
(-38,282,l),
(15,414,o),
(95,508,o),
(155,508,cs),
(199,508,o),
(206,445,o),
(173,357,cs),
(136,259,o),
(109,190,o),
(109,192,cs),
(83,118,o),
(83,66,o),
(110,66,cs),
(145,66,o),
(215,145,o),
(277,257,c),
(277,212,l)
);
},
{
closed = 1;
nodes = (
(442,500,l),
(402,401,o),
(351,268,o),
(319,177,cs),
(292,105,o),
(287,54,o),
(307,54,cs),
(330,54,o),
(371,119,o),
(406,210,c),
(436,210,l),
(387,82,o),
(309,-8,o),
(248,-8,cs),
(205,-8,o),
(196,51,o),
(227,135,cs),
(196,52,o),
(273,250,o),
(367,500,c)
);
}
);
};
layerId = "90AB4BE1-A270-4CBB-8974-CA3C0A24FD98";
name = "8. Nov. 24, 10:52";
shapes = (
{
closed = 1;
nodes = (
(376,417,l),
(343,441,o),
(313,452,o),
(286,452,cs),
(209,452,o),
(152,362,o),
(103,205,cs),
(89,162,o),
(82,126,o),
(82,101,cs),
(82,79,o),
(101,56,o),
(112,56,cs),
(166,56,o),
(230,120,o),
(286,197,c),
(293,190,l),
(221,73,o),
(135,-10,o),
(86,-10,cs),
(16,-10,o),
(-13,57,o),
(16,152,cs),
(80,361,o),
(220,508,o),
(354,508,cs),
(372,508,o),
(401,495,o),
(424,476,c)
);
},
{
closed = 1;
nodes = (
(460,508,l),
(424,421,o),
(372,284,o),
(334,177,cs),
(307,105,o),
(302,54,o),
(322,54,cs),
(345,54,o),
(386,119,o),
(421,210,c),
(451,210,l),
(402,82,o),
(324,-8,o),
(263,-8,cs),
(220,-8,o),
(211,51,o),
(242,135,cs),
(211,52,o),
(288,250,o),
(382,500,c)
);
},
{
closed = 1;
nodes = (
(89,-10,o),
(183,73,o),
(293,190,c),
(276,208,l),
(195,125,o),
(126,66,o),
(109,66,cs),
(83,66,o),
(82,115,o),
(107,184,cs),
(166,346,o),
(257,460,o),
(326,460,cs),
(335,460,o),
(359,446,o),
(386,427,c),
(424,476,l),
(400,495,o),
(371,508,o),
(354,508,cs),
(232,508,o),
(91,361,o),
(15,152,cs),
(-19,57,o),
(2,-10,o),
(66,-10,cs)
);
}
);
width = 467;
}
);
metricWidth = o;
unicode = 97;
},
{
color = 0;
glyphname = b;
lastChange = "2024-11-09 08:59:32 +0000";
layers = (
{
background = {
shapes = (
{
closed = 1;
nodes = (
(38,0,l),
(288,700,l),
(213,700,l),
(-39,0,l)
);
},
{
closed = 1;
nodes = (
(89,672,l),
(143,675,o),
(189,659,o),
(200,634,c),
(213,700,l),
(99,700,l)
);
},
{
closed = 1;
nodes = (
(176,349,o),
(247,434,o),
(286,434,cs),
(363,434,o),
(357,305,o),
(298,152,cs),
(273,87,o),
(250,54,o),
(235,54,cs),
(191,54,o),
(244,129,o),
(200,129,cs),
(177,129,o),
(147,115,o),
(140,95,cs),
(116,35,o),
(136,-8,o),
(175,-8,cs),
(243,-8,o),
(323,85,o),
(375,217,c),
(437,387,o),
(429,508,o),
(348,508,cs),
(285,508,o),
(179,399,o),
(92,246,c),
(115,228,l)
);
},
{
closed = 0;
nodes = (
(-59,-200,l),
(286,700,l)
);
},
{
closed = 0;
nodes = (
(16,-200,l),
(361,700,l)
);
},
{
closed = 0;
nodes = (
(156,-200,l),
(501,700,l)
);
},
{
closed = 0;
nodes = (
(231,-200,l),
(576,700,l)
);
},
{
closed = 0;
nodes = (
(-164,-200,l),
(181,700,l)
);
},
{
closed = 0;
nodes = (
(-134,-200,l),
(211,700,l)
);
},
{
closed = 0;
nodes = (
(306,-200,l),
(651,700,l)
);
},
{
closed = 0;
nodes = (
(336,-200,l),
(681,700,l)
);
}
);
};
layerId = m002;
shapes = (
{
closed = 1;
nodes = (
(91,18,l),
(111,79,o),
(256,572,o),
(299,700,c),
(224,700,l),
(22,41,l)
);
},
{
closed = 1;
nodes = (
(102,662,l),
(156,665,o),
(204,649,o),
(215,624,c),
(224,700,l),
(110,700,l)
);
},
{
closed = 1;
nodes = (
(195,322,o),
(271,424,o),
(311,424,cs),
(364,424,o),
(368,351,o),
(327,234,cs),
(289,127,o),
(227,52,o),
(178,52,cs),
(126,52,o),
(92,86,o),
(89,133,c),
(22,41,l),
(57,12,o),
(96,-8,o),
(117,-8,cs),
(228,-8,o),
(352,116,o),
(416,291,cs),
(462,418,o),
(442,508,o),
(368,508,cs),
(302,508,o),
(191,383,o),
(100,207,c),
(129,179,l)
);
}
);
width = 464;
},
{
background = {
shapes = (
{
closed = 1;
nodes = (
(38,0,l),
(288,700,l),
(213,700,l),
(-39,0,l)
);
},
{
closed = 1;
nodes = (
(89,672,l),
(143,675,o),
(189,659,o),
(200,634,c),
(213,700,l),
(99,700,l)
);
},
{
closed = 1;
nodes = (
(176,349,o),
(247,434,o),
(286,434,cs),
(363,434,o),
(357,305,o),
(298,152,cs),
(273,87,o),
(250,54,o),
(235,54,cs),
(191,54,o),
(244,129,o),
(200,129,cs),
(177,129,o),
(147,115,o),
(140,95,cs),
(116,35,o),
(136,-8,o),
(175,-8,cs),
(243,-8,o),
(323,85,o),
(375,217,c),
(437,387,o),
(429,508,o),
(348,508,cs),
(285,508,o),
(179,399,o),
(92,246,c),
(115,228,l)
);
},
{
closed = 0;
nodes = (
(-59,-200,l),
(286,700,l)
);
},
{
closed = 0;
nodes = (
(16,-200,l),
(361,700,l)
);
},
{
closed = 0;
nodes = (
(156,-200,l),
(501,700,l)
);
},
{
closed = 0;
nodes = (
(231,-200,l),
(576,700,l)
);
},
{
closed = 0;
nodes = (
(-164,-200,l),
(181,700,l)
);
},
{
closed = 0;
nodes = (
(-134,-200,l),
(211,700,l)
);
},
{
closed = 0;
nodes = (
(306,-200,l),
(651,700,l)
);
},
{
closed = 0;
nodes = (
(336,-200,l),
(681,700,l)
);
}
);
};
layerId = m003;
shapes = (
{
closed = 1;
nodes = (
(94,18,l),
(114,79,o),
(259,572,o),
(302,700,c),
(227,700,l),
(25,41,l)
);
},
{
closed = 1;
nodes = (
(105,672,l),
(159,675,o),
(207,659,o),
(218,634,c),
(227,700,l),
(113,700,l)
);
},
{
closed = 1;
nodes = (
(198,332,o),
(274,434,o),
(314,434,cs),
(367,434,o),
(376,351,o),
(335,234,cs),
(297,127,o),
(235,52,o),
(186,52,cs),
(134,52,o),
(95,86,o),
(92,133,c),
(25,41,l),
(60,12,o),
(99,-8,o),
(120,-8,cs),
(231,-8,o),
(355,116,o),
(419,291,cs),
(465,418,o),
(445,508,o),
(371,508,cs),
(305,508,o),
(194,383,o),
(103,207,c),
(132,189,l)
);
}
);
width = 470;
}
);
metricLeft = l;
metricRight = o;
unicode = 98;
},
{
color = 0;
glyphname = c;
lastChange = "2024-11-09 08:59:32 +0000";
layers = (
{
background = {
shapes = (
{
closed = 0;
nodes = (
(251,479,ls),
(293,479,o),
(307,433,o),
(284,367,cs),
(279,354,o),
(282,344,o),
(291,344,cs),
(325,344,o),
(356,363,o),
(365,391,cs),
(389,459,o),
(350,507,o),
(272,507,cs)
);
}
);
};
layerId = m002;
shapes = (
{
closed = 1;
nodes = (
(216,-8,o),
(282,55,o),
(329,144,c),
(305,169,l),
(257,88,o),
(206,30,o),
(145,30,cs),
(89,30,o),
(96,136,o),
(157,300,cs),
(196,405,o),
(240,470,o),
(278,470,cs),
(323,470,o),
(338,432,o),
(313,363,cs),
(310,352,o),
(313,344,o),
(321,344,cs),
(356,344,o),
(387,364,o),
(396,393,cs),
(418,460,o),
(377,508,o),
(295,508,cs),
(202,508,o),
(109,409,o),
(57,270,cs),
(-4,107,o),
(25,-8,o),
(131,-8,cs)
);
}
);
width = 391;
},
{
background = {
shapes = (
{
closed = 0;
nodes = (
(251,479,ls),
(293,479,o),
(307,433,o),
(284,367,cs),
(279,354,o),
(282,344,o),
(291,344,cs),
(325,344,o),
(356,363,o),
(365,391,cs),
(389,459,o),
(350,507,o),
(272,507,cs)
);
}
);
};
layerId = m003;
shapes = (
{
closed = 1;
nodes = (
(219,-8,o),
(285,55,o),
(332,144,c),
(308,159,l),
(260,78,o),
(209,20,o),
(148,20,cs),
(92,20,o),
(99,136,o),
(160,300,cs),
(199,405,o),
(243,480,o),
(281,480,cs),
(326,480,o),
(341,432,o),
(316,363,cs),
(313,352,o),
(316,344,o),
(324,344,cs),
(359,344,o),
(390,364,o),
(399,393,cs),
(421,460,o),
(380,508,o),
(298,508,cs),
(205,508,o),
(112,409,o),
(60,270,cs),
(-1,107,o),
(28,-8,o),
(134,-8,cs)
);
}
);
width = 397;
}
);
metricLeft = o;
metricRight = o;
unicode = 99;
},
{
color = 0;
glyphname = d;
lastChange = "2024-11-09 08:59:32 +0000";
layers = (
{
background = {
shapes = (
{
closed = 1;
nodes = (
(111,-8,o),
(196,53,o),
(277,140,c),
(260,158,l),
(201,98,o),
(140,56,o),
(113,56,cs),
(85,56,o),
(91,128,o),
(127,229,cs),
(179,370,o),
(259,470,o),
(320,470,cs),
(331,470,o),
(352,456,o),
(370,437,c),
(408,476,l),
(392,495,o),
(367,508,o),
(348,508,cs),
(234,508,o),
(106,379,o),
(39,197,cs),
(-4,77,o),
(9,-8,o),
(71,-8,cs)
);
},
{
closed = 1;
nodes = (
(318,-8,o),
(396,82,o),
(445,210,c),
(415,210,l),
(380,119,o),
(339,54,o),
(316,54,cs),
(296,54,o),
(301,105,o),
(328,177,cs),
(366,284,o),
(418,421,o),
(454,508,c),
(376,500,l),
(282,250,o),
(205,52,o),
(236,135,c),
(205,51,o),
(214,-8,o),
(257,-8,cs)
);
}
);
};
layerId = m002;
shapes = (
{
closed = 1;
nodes = (
(122,-8,o),
(203,53,o),
(280,140,c),
(262,168,l),
(206,108,o),
(147,66,o),
(120,66,cs),
(92,66,o),
(94,128,o),
(125,229,cs),
(170,370,o),
(245,460,o),
(306,460,cs),
(317,460,o),
(338,456,o),
(357,437,c),
(393,476,l),
(376,495,o),
(351,508,o),
(332,508,cs),
(218,508,o),
(96,379,o),
(39,197,cs),
(2,77,o),
(20,-8,o),
(82,-8,cs)
);
},
{
closed = 1;
nodes = (
(339,-8,o),
(418,82,o),
(453,210,c),
(423,220,l),
(397,129,o),
(356,64,o),
(334,64,cs),
(314,64,o),
(315,109,o),
(340,185,cs),
(510,700,l),
(434,700,l),
(253,143,ls),
(224,56,o),
(234,-8,o),
(276,-8,cs)
);
},
{
closed = 1;
nodes = (
(434,700,l),
(320,700,l),
(314,662,l),
(369,665,o),
(417,649,o),
(429,624,c)
);
}
);
width = 455;
},
{
associatedMasterId = m002;
layerId = "04FBF142-B7E8-4618-86E4-5F9AAA1308FB";
name = "7. Nov. 24, 00:11";
shapes = (
{
closed = 1;
nodes = (
(98,-3,o),
(197,77,o),
(303,190,c),
(286,208,l),
(216,136,o),
(150,85,o),
(127,85,cs),
(108,85,o),
(107,127,o),
(125,186,cs),
(175,348,o),
(261,463,o),
(334,463,cs),
(348,463,o),
(373,451,o),
(396,435,c),
(434,484,l),
(412,501,o),
(382,513,o),
(362,513,cs),
(230,513,o),
(91,363,o),
(26,152,cs),
(-2,61,o),
(14,-3,o),
(63,-3,cs)
);
},
{
closed = 1;
nodes = (
(326,-6,o),
(410,88,o),
(463,220,c),
(433,220,l),
(402,142,o),
(359,87,o),
(330,87,cs),
(318,87,o),
(325,128,o),
(347,187,cs),
(369,248,o),
(481,573,o),
(531,701,c),
(456,701,l),
(255,145,l),
(222,57,o),
(225,-6,o),
(262,-6,cs)
);
},
{
closed = 1;
nodes = (
(336,648,l),
(391,651,o),
(437,635,o),
(447,610,c),
(456,701,l),
(342,702,l)
);
}
);
width = 463;
},
{
background = {
shapes = (
{
closed = 1;
nodes = (
(111,-8,o),
(196,53,o),
(277,140,c),
(260,158,l),
(201,98,o),
(140,56,o),
(113,56,cs),
(85,56,o),
(91,128,o),
(127,229,cs),
(179,370,o),
(259,470,o),
(320,470,cs),
(331,470,o),
(352,456,o),
(370,437,c),
(408,476,l),
(392,495,o),
(367,508,o),
(348,508,cs),
(234,508,o),
(106,379,o),
(39,197,cs),
(-4,77,o),
(9,-8,o),
(71,-8,cs)
);
},
{
closed = 1;
nodes = (
(318,-8,o),
(396,82,o),
(445,210,c),
(415,210,l),
(380,119,o),
(339,54,o),
(316,54,cs),
(296,54,o),
(301,105,o),
(328,177,cs),
(366,284,o),
(418,421,o),
(454,508,c),
(376,500,l),
(282,250,o),
(205,52,o),
(236,135,c),
(205,51,o),
(214,-8,o),
(257,-8,cs)
);
}
);
};
layerId = m003;
shapes = (
{
closed = 1;
nodes = (
(125,-8,o),
(206,53,o),
(283,140,c),
(265,158,l),
(209,98,o),
(150,56,o),
(123,56,cs),
(95,56,o),
(97,128,o),
(128,229,cs),
(173,370,o),
(248,470,o),
(309,470,cs),
(320,470,o),
(341,456,o),
(360,437,c),
(396,476,l),
(379,495,o),
(354,508,o),
(335,508,cs),
(221,508,o),
(99,379,o),
(42,197,cs),
(5,77,o),
(23,-8,o),
(85,-8,cs)
);
},
{
closed = 1;
nodes = (
(342,-8,o),
(421,82,o),
(456,210,c),
(426,210,l),
(400,119,o),
(359,54,o),
(337,54,cs),
(317,54,o),
(318,109,o),
(343,185,cs),
(513,700,l),
(437,700,l),
(256,143,ls),
(227,56,o),
(237,-8,o),
(279,-8,cs)
);
},
{
closed = 1;
nodes = (
(437,700,l),
(323,700,l),
(317,672,l),
(372,675,o),
(420,659,o),
(432,634,c)
);
}
);
width = 461;
},
{
associatedMasterId = m003;
layerId = "993377BE-703F-43F0-9103-9C55914F64D0";
name = "7. Nov. 24, 00:11";
shapes = (
{
closed = 1;
nodes = (
(98,-3,o),
(197,77,o),
(303,190,c),
(286,208,l),
(216,136,o),
(150,85,o),
(127,85,cs),
(108,85,o),
(107,127,o),
(125,186,cs),
(175,348,o),
(261,463,o),
(334,463,cs),
(348,463,o),
(373,451,o),
(396,435,c),
(434,484,l),
(412,501,o),
(382,513,o),
(362,513,cs),
(230,513,o),
(91,363,o),
(26,152,cs),
(-2,61,o),
(14,-3,o),
(63,-3,cs)
);
},
{
closed = 1;
nodes = (
(326,-6,o),
(410,88,o),
(463,220,c),
(433,220,l),
(402,142,o),
(359,87,o),
(330,87,cs),
(318,87,o),
(325,128,o),
(347,187,cs),
(369,248,o),
(481,573,o),
(531,701,c),
(456,701,l),
(255,145,l),
(222,57,o),
(225,-6,o),
(262,-6,cs)
);
},
{
closed = 1;
nodes = (
(336,648,l),
(391,651,o),
(437,635,o),
(447,610,c),
(456,701,l),
(342,702,l)
);
}
);
width = 463;
}
);
metricWidth = a;
unicode = 100;
},
{
color = 0;
glyphname = e;
lastChange = "2024-11-09 08:59:32 +0000";
layers = (
{
background = {
shapes = (
{
closed = 1;
nodes = (
(207,-8,o),
(305,86,o),
(356,220,cs),
(420,389,o),
(380,508,o),
(260,508,cs),
(171,508,o),
(71,410,o),
(19,272,cs),
(-42,108,o),
(-1,-8,o),
(118,-8,cs)
);
},
{
closed = 1;
nodes = (
(60,20,o),
(56,137,o),
(118,302,cs),
(157,406,o),
(212,480,o),
(250,480,cs),
(318,480,o),
(321,360,o),
(257,190,cs),
(219,90,o),
(166,20,o),
(129,20,cs)
);
}
);
};
layerId = m002;
shapes = (
{
closed = 1;
nodes = (
(202,-8,o),
(282,55,o),
(331,144,c),
(307,169,l),
(258,88,o),
(194,30,o),
(152,30,cs),
(96,30,o),
(96,128,o),
(151,280,cs),
(193,397,o),
(246,470,o),
(280,470,cs),
(306,470,o),
(307,431,o),
(283,361,cs),
(262,302,o),
(195,261,o),
(120,261,c),
(93,202,l),
(234,231,o),
(354,310,o),
(383,391,cs),
(407,460,o),
(370,508,o),
(295,508,cs),
(205,508,o),
(104,401,o),
(51,250,cs),
(-2,99,o),
(34,-8,o),
(137,-8,cs)
);
}
);
width = 392;
},
{
background = {
shapes = (
{
closed = 1;
nodes = (
(207,-8,o),
(305,86,o),
(356,220,cs),
(420,389,o),
(380,508,o),
(260,508,cs),
(171,508,o),
(71,410,o),
(19,272,cs),
(-42,108,o),
(-1,-8,o),
(118,-8,cs)
);
},
{
closed = 1;
nodes = (
(60,20,o),
(56,137,o),
(118,302,cs),
(157,406,o),
(212,480,o),
(250,480,cs),
(318,480,o),
(321,360,o),
(257,190,cs),
(219,90,o),
(166,20,o),
(129,20,cs)
);
}
);
};
layerId = m003;
shapes = (
{
closed = 1;
nodes = (
(205,-8,o),
(285,55,o),
(334,144,c),
(310,159,l),
(261,78,o),
(197,20,o),
(155,20,cs),
(99,20,o),
(99,128,o),
(154,280,cs),
(196,397,o),
(249,480,o),
(283,480,cs),
(309,480,o),
(310,431,o),
(286,361,cs),
(265,302,o),
(198,261,o),
(123,261,c),
(96,202,l),
(237,231,o),
(357,310,o),
(386,391,cs),
(410,460,o),
(373,508,o),
(298,508,cs),
(208,508,o),
(107,401,o),
(54,250,cs),
(1,99,o),
(37,-8,o),
(140,-8,cs)
);
}
);
width = 398;
}
);
metricLeft = o;
metricRight = o;
unicode = 101;
},
{
color = 0;
glyphname = f;
lastChange = "2024-11-09 08:59:32 +0000";
layers = (
{
background = {
shapes = (
{
closed = 1;
nodes = (
(-25,-210,o),
(75,-45,o),
(116,89,cs),
(122,109,o),
(219,459,o),
(255,577,cs),
(272,630,o),
(305,678,o),
(325,678,cs),
(381,678,o),
(407,649,o),
(394,608,c),
(469,614,l),
(489,680,o),
(453,726,o),
(383,726,cs),
(290,726,o),
(196,636,o),
(157,509,cs),
(130,421,o),
(15,14,o),
(5,-19,cs),
(-19,-97,o),
(-46,-153,o),
(-61,-153,cs),
(-94,-153,o),
(-111,-132,o),
(-102,-102,c),
(-167,-99,l),
(-187,-164,o),
(-158,-210,o),
(-96,-210,cs)
);
},
{
closed = 1;
nodes = (
(297,408,l),
(310,450,l),
(46,450,l),
(33,408,l)
);
}
);
};
layerId = m002;
shapes = (
{
closed = 1;
nodes = (
(55,-58,o),
(12,-175,o),
(1,-175,cs),
(-31,-175,o),
(-42,-144,o),
(-27,-86,cs),
(-23,-73,o),
(-27,-63,o),
(-37,-63,cs),
(-70,-63,o),
(-99,-83,o),
(-106,-111,cs),
(-120,-168,o),
(-82,-208,o),
(-14,-208,cs),
(51,-208,o),
(133,-63,o),
(170,142,cs),
(235,507,ls),
(253,608,o),
(292,670,o),
(329,670,cs),
(361,670,o),
(372,639,o),
(357,581,cs),
(353,568,o),
(357,558,o),
(367,558,cs),
(400,558,o),
(429,578,o),
(436,606,cs),
(450,663,o),
(412,703,o),
(344,703,cs),
(255,703,o),
(176,616,o),
(154,493,cs),
(89,128,ls)
);
},
{
closed = 1;
nodes = (
(329,408,l),
(342,450,l),
(78,450,l),
(65,408,l)
);
}
);
width = 310;
},
{
background = {
shapes = (
{
closed = 1;
nodes = (
(-25,-210,o),
(75,-45,o),
(116,89,cs),
(122,109,o),
(219,459,o),
(255,577,cs),
(272,630,o),
(305,678,o),
(325,678,cs),
(381,678,o),
(407,649,o),
(394,608,c),
(469,614,l),
(489,680,o),
(453,726,o),
(383,726,cs),
(290,726,o),
(196,636,o),
(157,509,cs),
(130,421,o),
(15,14,o),
(5,-19,cs),
(-19,-97,o),
(-46,-153,o),
(-61,-153,cs),
(-94,-153,o),
(-111,-132,o),
(-102,-102,c),
(-167,-99,l),
(-187,-164,o),
(-158,-210,o),
(-96,-210,cs)
);
},
{
closed = 1;
nodes = (
(297,408,l),
(310,450,l),
(46,450,l),
(33,408,l)
);
}
);
};
layerId = m003;
shapes = (
{
closed = 1;
nodes = (
(58,-58,o),
(15,-185,o),
(4,-185,cs),
(-28,-185,o),
(-39,-144,o),
(-24,-86,cs),
(-20,-73,o),
(-24,-63,o),
(-34,-63,cs),
(-67,-63,o),
(-96,-83,o),
(-103,-111,cs),
(-117,-168,o),
(-79,-208,o),
(-11,-208,cs),
(54,-208,o),
(136,-63,o),
(173,142,cs),
(238,507,ls),
(256,608,o),
(295,680,o),
(332,680,cs),
(364,680,o),
(375,639,o),
(360,581,cs),
(356,568,o),
(360,558,o),
(370,558,cs),
(403,558,o),
(432,578,o),
(439,606,cs),
(453,663,o),
(415,703,o),
(347,703,cs),
(258,703,o),
(179,616,o),
(157,493,cs),
(92,128,ls)
);
},
{
closed = 1;
nodes = (
(332,408,l),
(345,450,l),
(81,450,l),
(68,408,l)
);
}
);
width = 316;
}
);
metricWidth = l;
unicode = 102;
},
{
color = 0;
glyphname = g;
lastChange = "2024-11-09 08:59:32 +0000";
layers = (
{
background = {
shapes = (
{
closed = 0;
nodes = (
(-50,-200,l),
(295,700,l)
);
},
{
closed = 0;
nodes = (
(25,-200,l),
(370,700,l)
);
},
{
closed = 0;
nodes = (
(165,-200,l),
(510,700,l)
);
},
{
closed = 0;
nodes = (
(240,-200,l),
(585,700,l)
);
},
{
closed = 0;
nodes = (
(-155,-200,l),
(190,700,l)
);
},
{
closed = 0;
nodes = (
(-125,-200,l),
(220,700,l)
);
},
{
closed = 0;
nodes = (
(315,-200,l),
(660,700,l)
);
},
{
closed = 0;
nodes = (
(345,-200,l),
(690,700,l)
);
}
);
};
layerId = m002;
shapes = (
{
closed = 1;
nodes = (
(253,-208,o),
(365,-152,o),
(397,-72,cs),
(414,-30,o),
(375,18,o),
(303,44,cs),
(212,77,o),
(163,114,o),
(170,134,cs),
(180,159,o),
(203,179,o),
(225,182,c),
(181,191,l),
(147,176,o),
(115,143,o),
(104,111,cs),
(90,71,o),
(109,32,o),
(151,17,cs),
(260,-22,o),
(329,-70,o),
(319,-98,cs),
(304,-139,o),
(245,-162,o),
(178,-167,cs),
(51,-175,o),
(-17,-135,o),
(14,-57,cs),
(35,-2,o),
(92,45,o),
(151,56,c),
(133,78,l),
(35,56,o),
(-52,-6,o),
(-76,-73,cs),
(-104,-152,o),
(-20,-208,o),
(126,-208,cs)
);
},
{
closed = 1;
nodes = (
(275,163,o),
(355,223,o),
(386,307,cs),
(430,424,o),
(405,507,o),
(326,507,cs),
(237,507,o),
(149,442,o),
(115,351,cs),
(73,241,o),
(106,163,o),
(194,163,cs)
);
},
{
closed = 1;
nodes = (
(162,201,o),
(159,264,o),
(198,367,cs),
(223,432,o),
(271,468,o),
(314,468,cs),
(348,468,o),
(343,401,o),
(301,292,cs),
(279,233,o),
(239,201,o),
(205,201,cs)
);
},
{
closed = 1;
nodes = (
(394,408,o),
(429,461,o),
(439,461,c),
(451,461,o),
(463,454,o),
(468,445,c),
(507,482,l),
(502,497,o),
(478,508,o),
(449,508,cs),
(424,508,o),
(376,444,o),
(334,353,c),
(353,334,l)
);
}
);
width = 468;
},
{
associatedMasterId = m002;
background = {
shapes = (
{
closed = 0;
nodes = (
(-67,-200,l),
(278,700,l)
);
},
{
closed = 0;
nodes = (
(8,-200,l),
(353,700,l)
);
},
{
closed = 0;
nodes = (
(148,-200,l),
(493,700,l)
);
},
{
closed = 0;
nodes = (
(223,-200,l),
(568,700,l)
);
},
{
closed = 0;
nodes = (
(-172,-200,l),
(173,700,l)
);
},
{
closed = 0;
nodes = (
(-142,-200,l),
(203,700,l)
);
},
{
closed = 0;
nodes = (
(298,-200,l),
(643,700,l)
);
},
{
closed = 0;
nodes = (
(328,-200,l),
(673,700,l)
);
}
);
};
layerId = "4BB885E4-6F86-470F-8104-31D1CADBC558";
name = "6. Nov. 24, 23:26";
shapes = (
{
closed = 1;
nodes = (
(199,-248,o),
(311,-189,o),
(339,-100,cs),
(353,-51,o),
(314,-3,o),
(245,16,cs),
(162,38,o),
(104,68,o),
(104,88,cs),
(104,101,o),
(126,128,o),
(157,154,c),
(123,163,l),
(88,130,o),
(60,97,o),
(55,83,cs),
(39,39,o),
(55,0,o),
(93,-11,cs),
(202,-41,o),
(271,-89,o),
(261,-126,cs),
(250,-165,o),
(192,-196,o),
(120,-201,cs),
(-1,-209,o),
(-69,-161,o),
(-44,-85,cs),
(-31,-48,o),
(30,-6,o),
(103,18,c),
(81,45,l),
(-35,9,o),
(-124,-51,o),
(-134,-101,cs),
(-153,-191,o),
(-69,-249,o),
(68,-241,cs)
);
},
{
closed = 1;
nodes = (
(229,132,o),
(298,192,o),
(328,279,cs),
(367,399,o),
(333,482,o),
(244,479,cs),
(166,476,o),
(88,411,o),
(57,323,cs),
(16,206,o),
(58,128,o),
(160,135,cs)
);
},
{
closed = 1;
nodes = (
(125,182,o),
(111,246,o),
(140,339,cs),
(157,394,o),
(188,434,o),
(216,435,cs),
(263,437,o),
(274,366,o),
(243,264,cs),
(228,215,o),
(199,182,o),
(171,184,cs)
);
},
{
closed = 1;
nodes = (
(337,397,o),
(345,432,o),
(367,434,cs),
(384,435,o),
(430,405,o),
(441,389,c),
(470,411,l),
(463,454,o),
(444,484,o),
(424,484,cs),
(378,484,o),
(323,451,o),
(292,404,c),
(310,377,l)
);
}
);
width = 414;
},
{
background = {
shapes = (
{
closed = 0;
nodes = (
(-50,-200,l),
(295,700,l)
);
},
{
closed = 0;
nodes = (
(25,-200,l),
(370,700,l)
);
},
{
closed = 0;
nodes = (
(165,-200,l),
(510,700,l)
);
},
{
closed = 0;
nodes = (
(240,-200,l),
(585,700,l)
);
},
{
closed = 0;
nodes = (
(-155,-200,l),
(190,700,l)
);
},
{
closed = 0;
nodes = (
(-125,-200,l),
(220,700,l)
);
},
{
closed = 0;
nodes = (
(315,-200,l),
(660,700,l)
);
},
{
closed = 0;
nodes = (
(345,-200,l),
(690,700,l)
);
}
);
};
layerId = m003;
shapes = (
{
closed = 1;
nodes = (
(256,-208,o),
(368,-152,o),
(400,-72,cs),
(417,-30,o),
(378,18,o),
(306,44,cs),
(215,77,o),
(156,114,o),
(163,134,cs),
(173,159,o),
(196,179,o),
(218,182,c),
(184,191,l),
(150,176,o),
(118,143,o),
(107,111,cs),
(93,71,o),
(112,32,o),
(154,17,cs),
(263,-22,o),
(332,-70,o),
(322,-98,cs),
(307,-139,o),
(248,-172,o),
(181,-177,cs),
(54,-185,o),
(-14,-135,o),
(17,-57,cs),
(38,-2,o),
(95,45,o),
(154,56,c),
(136,78,l),
(38,56,o),
(-49,-6,o),
(-73,-73,cs),
(-101,-152,o),
(-17,-208,o),
(129,-208,cs)
);
},
{
closed = 1;
nodes = (
(278,163,o),
(358,223,o),
(389,307,cs),
(433,424,o),
(408,507,o),
(329,507,cs),
(240,507,o),
(152,442,o),
(118,351,cs),
(76,241,o),
(109,163,o),
(197,163,cs)
);
},
{
closed = 1;
nodes = (
(165,191,o),
(162,264,o),
(201,367,cs),
(226,432,o),
(274,478,o),
(317,478,cs),
(351,478,o),
(346,401,o),
(304,292,cs),
(282,233,o),
(242,191,o),
(208,191,cs)
);
},
{
closed = 1;
nodes = (
(397,408,o),
(432,461,o),
(442,461,c),
(454,461,o),
(466,454,o),
(471,445,c),
(510,482,l),
(505,497,o),
(481,508,o),
(452,508,cs),
(427,508,o),
(379,444,o),
(337,353,c),
(356,334,l)
);
}
);
width = 474;
},
{
associatedMasterId = m003;
background = {
shapes = (
{
closed = 0;
nodes = (
(-67,-200,l),
(278,700,l)
);
},
{
closed = 0;
nodes = (
(8,-200,l),
(353,700,l)
);
},
{
closed = 0;
nodes = (
(148,-200,l),
(493,700,l)
);
},
{
closed = 0;
nodes = (
(223,-200,l),
(568,700,l)
);
},
{
closed = 0;
nodes = (
(-172,-200,l),
(173,700,l)
);
},
{
closed = 0;
nodes = (
(-142,-200,l),
(203,700,l)
);
},
{
closed = 0;
nodes = (
(298,-200,l),
(643,700,l)
);
},
{
closed = 0;
nodes = (
(328,-200,l),
(673,700,l)
);
}
);
};
layerId = "CD19AF2B-D444-4E18-A45E-DA9D7905EDAB";
name = "6. Nov. 24, 23:26";
shapes = (
{
closed = 1;
nodes = (
(199,-248,o),
(311,-189,o),
(339,-100,cs),
(353,-51,o),
(314,-3,o),
(245,16,cs),
(162,38,o),
(104,68,o),
(104,88,cs),
(104,101,o),
(126,128,o),
(157,154,c),
(123,163,l),
(88,130,o),
(60,97,o),
(55,83,cs),
(39,39,o),
(55,0,o),
(93,-11,cs),
(202,-41,o),
(271,-89,o),
(261,-126,cs),
(250,-165,o),
(192,-196,o),
(120,-201,cs),
(-1,-209,o),
(-69,-161,o),
(-44,-85,cs),
(-31,-48,o),
(30,-6,o),
(103,18,c),
(81,45,l),
(-35,9,o),
(-124,-51,o),
(-134,-101,cs),
(-153,-191,o),
(-69,-249,o),
(68,-241,cs)
);
},
{
closed = 1;
nodes = (
(229,132,o),
(298,192,o),
(328,279,cs),
(367,399,o),
(333,482,o),
(244,479,cs),
(166,476,o),
(88,411,o),
(57,323,cs),
(16,206,o),
(58,128,o),
(160,135,cs)
);
},
{
closed = 1;
nodes = (
(125,182,o),
(111,246,o),
(140,339,cs),
(157,394,o),
(188,434,o),
(216,435,cs),
(263,437,o),
(274,366,o),
(243,264,cs),
(228,215,o),
(199,182,o),
(171,184,cs)
);
},
{
closed = 1;
nodes = (
(337,397,o),
(345,432,o),
(367,434,cs),
(384,435,o),
(430,405,o),
(441,389,c),
(470,411,l),
(463,454,o),
(444,484,o),
(424,484,cs),
(378,484,o),
(323,451,o),
(292,404,c),
(310,377,l)
);
}
);
width = 414;
}
);
unicode = 103;
},
{
color = 0;
glyphname = h;
lastChange = "2024-11-09 08:59:32 +0000";
layers = (
{
background = {
shapes = (
{
closed = 0;
nodes = (
(-115,-200,l),
(230,700,l)
);
},
{
closed = 0;
nodes = (
(-40,-200,l),
(305,700,l)
);
},
{
closed = 0;
nodes = (
(100,-200,l),
(445,700,l)
);
},
{
closed = 0;
nodes = (
(175,-200,l),
(520,700,l)
);
},
{
closed = 0;
nodes = (
(-220,-200,l),
(125,700,l)
);
},
{
closed = 0;
nodes = (
(-190,-200,l),
(155,700,l)
);
},
{
closed = 0;
nodes = (
(250,-200,l),
(595,700,l)
);
},
{
closed = 0;
nodes = (
(280,-200,l),
(625,700,l)
);
}
);
};
layerId = m002;
shapes = (
{
closed = 1;
nodes = (
(84,0,l),
(297,700,l),
(222,700,l),
(7,0,l)
);
},
{
closed = 1;
nodes = (
(100,662,l),
(154,665,o),
(201,649,o),
(213,624,c),
(222,700,l),
(108,700,l)
);
},
{
closed = 1;
nodes = (
(204,349,o),
(270,434,o),
(309,434,cs),
(366,434,o),
(374,346,o),
(327,207,cs),
(298,120,o),
(266,59,o),
(250,59,cs),
(210,59,o),
(251,106,o),
(211,106,cs),
(190,106,o),
(171,95,o),
(166,80,cs),
(148,28,o),
(161,-8,o),
(199,-8,cs),
(265,-8,o),
(349,104,o),
(401,262,cs),
(447,406,o),
(433,508,o),
(368,508,cs),
(305,508,o),
(204,399,o),
(125,246,c),
(149,228,l)
);
}
);
width = 449;
},
{
background = {
shapes = (
{
closed = 0;
nodes = (
(-115,-200,l),
(230,700,l)
);
},
{
closed = 0;
nodes = (
(-40,-200,l),
(305,700,l)
);
},
{
closed = 0;
nodes = (
(100,-200,l),
(445,700,l)
);
},
{
closed = 0;
nodes = (
(175,-200,l),
(520,700,l)
);
},
{
closed = 0;
nodes = (
(-220,-200,l),
(125,700,l)
);
},
{
closed = 0;
nodes = (
(-190,-200,l),
(155,700,l)
);
},
{
closed = 0;
nodes = (
(250,-200,l),
(595,700,l)
);
},
{
closed = 0;
nodes = (
(280,-200,l),
(625,700,l)
);
}
);
};
layerId = m003;
shapes = (
{
closed = 1;
nodes = (
(87,0,l),
(300,700,l),
(225,700,l),
(10,0,l)
);
},
{
closed = 1;
nodes = (
(103,672,l),
(157,675,o),
(204,659,o),
(216,634,c),
(225,700,l),
(111,700,l)
);
},
{
closed = 1;
nodes = (
(207,349,o),
(273,434,o),
(312,434,cs),
(369,434,o),
(377,336,o),
(330,197,cs),
(301,110,o),
(269,49,o),
(253,49,cs),
(213,49,o),
(254,106,o),
(214,106,cs),
(193,106,o),
(174,95,o),
(169,80,cs),
(151,28,o),
(164,-8,o),
(202,-8,cs),
(268,-8,o),
(352,104,o),
(404,262,cs),
(450,406,o),
(436,508,o),
(371,508,cs),
(308,508,o),
(207,399,o),
(128,246,c),
(152,228,l)
);
}
);
width = 455;
}
);
metricLeft = l;
metricRight = o;
unicode = 104;
},
{
color = 0;
glyphname = i;
lastChange = "2024-11-09 08:59:32 +0000";
layers = (
{
layerId = m002;
shapes = (
{
closed = 1;
nodes = (
(256,612,o),
(287,633,o),
(295,659,cs),
(303,685,o),
(285,706,o),
(254,706,cs),
(223,706,o),
(193,685,o),
(185,659,cs),
(177,633,o),
(194,612,o),
(225,612,cs)
);
},
{
closed = 1;
nodes = (
(66,143,ls),
(33,55,o),
(40,-8,o),
(84,-8,cs),
(144,-8,o),
(224,86,o),
(277,218,c),
(247,228,l),
(210,137,o),
(167,72,o),
(143,72,cs),
(124,72,o),
(130,113,o),
(157,185,cs),
(250,426,ls),
(270,474,o),
(258,508,o),
(223,508,cs),
(150,508,o),
(64,418,o),
(15,290,c),
(45,280,l),
(80,371,o),
(127,436,o),
(159,436,cs),
(170,436,o),
(159,395,o),
(132,323,cs)
);
}
);
width = 270;
},
{
layerId = m003;
shapes = (
{
closed = 1;
nodes = (
(259,612,o),
(290,633,o),
(298,659,cs),
(306,685,o),
(288,706,o),
(257,706,cs),
(226,706,o),
(196,685,o),
(188,659,cs),
(180,633,o),
(197,612,o),
(228,612,cs)
);
},
{
closed = 1;
nodes = (
(69,143,ls),
(36,55,o),
(43,-8,o),
(87,-8,cs),
(147,-8,o),
(227,86,o),
(280,218,c),
(250,218,l),
(213,127,o),
(170,62,o),
(146,62,cs),
(127,62,o),
(133,113,o),
(160,185,cs),
(253,426,ls),
(273,474,o),
(261,508,o),
(226,508,cs),
(153,508,o),
(67,418,o),
(18,290,c),
(48,290,l),
(83,381,o),
(130,446,o),
(162,446,cs),
(173,446,o),
(162,395,o),
(135,323,cs)
);
}
);
width = 276;
}
);
unicode = 105;
},
{
color = 0;
glyphname = j;
lastChange = "2024-11-10 11:21:23 +0000";
layers = (
{
background = {
shapes = (
{
closed = 0;
nodes = (
(57,132,ls),
(14,-54,o),
(-22,-175,o),
(-58,-175,cs),
(-89,-175,o),
(-99,-144,o),
(-82,-86,cs),
(-77,-73,o),
(-81,-63,o),
(-91,-63,cs),
(-125,-63,o),
(-154,-83,o),
(-162,-111,cs),
(-179,-168,o),
(-143,-208,o),
(-75,-208,cs),
(13,-208,o),
(90,-60,o),
(138,149,cs)
);
}
);
};
layerId = m002;
shapes = (
{
closed = 1;
nodes = (
(18,-69,o),
(-34,-175,o),
(-58,-175,cs),
(-88,-175,o),
(-98,-138,o),
(-82,-86,cs),
(-78,-73,o),
(-82,-63,o),
(-91,-63,cs),
(-125,-63,o),
(-155,-85,o),
(-163,-115,cs),
(-180,-170,o),
(-142,-209,o),
(-71,-209,cs),
(-2,-209,o),
(89,-83,o),
(150,96,cs),
(261,426,ls),
(277,474,o),
(264,508,o),
(229,508,cs),
(156,508,o),
(75,418,o),
(33,290,c),
(63,280,l),
(93,371,o),
(137,436,o),
(169,436,cs),
(178,436,o),
(169,389,o),
(148,323,cs),
(68,82,ls)
);
},
{
closed = 1;
nodes = (
(263,612,o),
(290,631,o),
(296,659,cs),
(304,687,o),
(286,706,o),
(254,706,cs),
(222,706,o),
(194,687,o),
(186,659,cs),
(180,631,o),
(198,612,o),
(230,612,cs)
);
}
);
width = 270;
},
{
associatedMasterId = m002;
background = {
shapes = (
{
closed = 1;
nodes = (
(-22,-158,o),
(-76,-230,o),
(-122,-230,cs),
(-160,-230,o),
(-169,-180,o),
(-144,-109,cs),
(-138,-93,o),
(-142,-81,o),
(-153,-81,cs),
(-194,-81,o),
(-232,-105,o),
(-244,-139,cs),
(-268,-209,o),
(-226,-258,o),
(-143,-258,cs),
(-43,-258,o),
(53,-169,o),
(89,-43,c),
(7,-57,l)
);
}
);
};
layerId = "BC6BBE5D-D67E-4980-A272-D35FBD1C8A65";
name = "7. Nov. 24, 19:28";
shapes = (
{
closed = 1;
nodes = (
(-12,-106,o),
(-57,-181,o),
(-103,-181,cs),
(-141,-181,o),
(-150,-131,o),
(-125,-60,cs),
(-119,-44,o),
(-123,-32,o),
(-134,-32,cs),
(-175,-32,o),
(-213,-56,o),
(-225,-90,cs),
(-249,-160,o),
(-207,-209,o),
(-124,-209,cs),
(-24,-209,o),
(60,-116,o),
(108,6,cs),
(254,381,l),
(277,455,o),
(264,508,o),
(224,508,cs),
(163,508,o),
(85,418,o),
(36,290,c),
(66,290,l),
(101,381,o),
(142,446,o),
(165,446,cs),
(185,446,o),
(180,395,o),
(153,323,cs),
(26,-8,ls)
);
},
{
closed = 1;
nodes = (
(283,612,o),
(311,631,o),
(319,659,cs),
(328,687,o),
(311,706,o),
(279,706,cs),
(247,706,o),
(218,687,o),
(209,659,cs),
(201,631,o),
(218,612,o),
(250,612,cs)
);
}
);
width = 263;
},
{
background = {
shapes = (
{
closed = 0;
nodes = (
(60,132,ls),
(17,-54,o),
(-19,-185,o),
(-55,-185,cs),
(-86,-185,o),
(-96,-144,o),
(-79,-86,cs),
(-74,-73,o),
(-78,-63,o),
(-88,-63,cs),
(-122,-63,o),
(-151,-83,o),
(-159,-111,cs),
(-176,-168,o),
(-140,-208,o),
(-72,-208,cs),
(16,-208,o),
(93,-60,o),
(141,149,cs)
);
}
);
};
layerId = m003;
shapes = (
{
closed = 1;
nodes = (
(19,-74,o),
(-33,-185,o),
(-55,-185,cs),
(-86,-185,o),
(-96,-144,o),
(-79,-86,cs),
(-75,-73,o),
(-79,-63,o),
(-88,-63,cs),
(-123,-63,o),
(-153,-84,o),
(-160,-114,cs),
(-177,-170,o),
(-139,-209,o),
(-68,-209,cs),
(1,-209,o),
(92,-83,o),
(153,96,cs),
(264,426,ls),
(280,474,o),
(267,508,o),
(232,508,cs),
(159,508,o),
(78,418,o),
(36,290,c),
(66,290,l),
(96,381,o),
(140,446,o),
(172,446,cs),
(183,446,o),
(174,395,o),
(151,323,cs),
(71,82,ls)
);
},
{
closed = 1;
nodes = (
(266,612,o),
(293,631,o),
(299,659,cs),
(307,687,o),
(289,706,o),
(257,706,cs),
(225,706,o),
(197,687,o),
(189,659,cs),
(183,631,o),
(201,612,o),
(233,612,cs)
);
}
);
width = 276;
},
{
associatedMasterId = m003;
background = {
shapes = (
{
closed = 1;
nodes = (
(-22,-158,o),
(-76,-230,o),
(-122,-230,cs),
(-160,-230,o),
(-169,-180,o),
(-144,-109,cs),
(-138,-93,o),
(-142,-81,o),
(-153,-81,cs),
(-194,-81,o),
(-232,-105,o),
(-244,-139,cs),
(-268,-209,o),
(-226,-258,o),
(-143,-258,cs),
(-43,-258,o),
(53,-169,o),
(89,-43,c),
(7,-57,l)
);
}
);
};
layerId = "F26A99E2-B18E-42DF-831C-82EB1608A556";
name = "7. Nov. 24, 19:28";
shapes = (
{
closed = 1;
nodes = (
(-12,-106,o),
(-57,-181,o),
(-103,-181,cs),
(-141,-181,o),
(-150,-131,o),
(-125,-60,cs),
(-119,-44,o),
(-123,-32,o),
(-134,-32,cs),
(-175,-32,o),
(-213,-56,o),
(-225,-90,cs),
(-249,-160,o),
(-207,-209,o),
(-124,-209,cs),
(-24,-209,o),
(60,-116,o),
(108,6,cs),
(254,381,l),
(277,455,o),
(264,508,o),
(224,508,cs),
(163,508,o),
(85,418,o),
(36,290,c),
(66,290,l),
(101,381,o),
(142,446,o),
(165,446,cs),
(185,446,o),
(180,395,o),
(153,323,cs),
(26,-8,ls)
);
},
{
closed = 1;
nodes = (
(283,612,o),
(311,631,o),
(319,659,cs),
(328,687,o),
(311,706,o),
(279,706,cs),
(247,706,o),
(218,687,o),
(209,659,cs),
(201,631,o),
(218,612,o),
(250,612,cs)
);
}
);
width = 263;
}
);
metricWidth = i;
unicode = 106;
},
{
color = 0;
glyphname = k;
lastChange = "2024-11-09 08:59:32 +0000";
layers = (
{
layerId = m002;
shapes = (
{
closed = 1;
nodes = (
(60,0,l),
(273,700,l),
(198,700,l),
(-18,0,l)
);
},
{
closed = 1;
nodes = (
(314,-8,o),
(363,29,o),
(396,82,c),
(375,107,l),
(359,86,o),
(342,70,o),
(334,69,cs),
(307,66,o),
(258,160,o),
(239,311,c),
(169,262,l),
(187,104,o),
(242,-8,o),
(278,-8,cs)
);
},
{
closed = 1;
nodes = (
(318,320,ls),
(372,354,o),
(408,418,o),
(406,461,c),
(405,489,o),
(383,508,o),
(352,508,cs),
(285,508,o),
(191,421,o),
(125,298,c),
(127,243,l),
(183,355,o),
(260,434,o),
(313,434,cs),
(325,434,o),
(334,431,o),
(334,413,cs),
(334,390,o),
(310,359,o),
(276,338,cs),
(63,206,l),
(67,163,l)
);
},
{
closed = 1;
nodes = (
(198,700,l),
(84,700,l),
(76,662,l),
(131,665,o),
(178,649,o),
(189,624,c)
);
}
);
width = 393;
},
{
layerId = m003;
shapes = (
{
closed = 1;
nodes = (
(63,0,l),
(276,700,l),
(201,700,l),
(-15,0,l)
);
},
{
closed = 1;
nodes = (
(317,-8,o),
(366,29,o),
(399,82,c),
(378,97,l),
(362,76,o),
(345,60,o),
(337,59,cs),
(310,56,o),
(261,160,o),
(242,311,c),
(172,262,l),
(190,104,o),
(245,-8,o),
(281,-8,cs)
);
},
{
closed = 1;
nodes = (
(321,330,ls),
(375,364,o),
(411,418,o),
(409,461,c),
(408,489,o),
(386,508,o),
(355,508,cs),
(288,508,o),
(194,421,o),
(128,298,c),
(130,253,l),
(186,365,o),
(263,444,o),
(316,444,cs),
(328,444,o),
(337,431,o),
(337,413,cs),
(337,390,o),
(313,359,o),
(279,338,cs),
(66,206,l),
(70,173,l)
);
},
{
closed = 1;
nodes = (
(201,700,l),
(87,700,l),
(79,672,l),
(134,675,o),
(181,659,o),
(192,634,c)
);
}
);
width = 399;
}
);
unicode = 107;
},
{
color = 0;
glyphname = l;
lastChange = "2024-11-09 08:59:32 +0000";
layers = (
{
background = {
shapes = (
{
closed = 1;
nodes = (
(218,500,l),
(178,401,o),
(127,268,o),
(95,177,cs),
(68,105,o),
(63,54,o),
(83,54,cs),
(106,54,o),
(147,119,o),
(182,210,c),
(212,210,l),
(163,82,o),
(85,-8,o),
(24,-8,cs),
(-19,-8,o),
(-28,51,o),
(3,135,cs),
(-28,52,o),
(49,250,o),
(143,500,c)
);
}
);
};
layerId = m002;
shapes = (
{
closed = 1;
nodes = (
(133,-8,o),
(207,82,o),
(249,210,c),
(219,220,l),
(188,129,o),
(149,64,o),
(127,64,cs),
(107,64,o),
(111,108,o),
(136,185,c),
(293,700,l),
(218,700,l),
(47,143,l),
(18,55,o),
(28,-8,o),
(70,-8,cs)
);
},
{
closed = 1;
nodes = (
(96,662,l),
(151,665,o),
(198,649,o),
(209,624,c),
(218,700,l),
(104,700,l)
);
}
);
width = 270;
},
{
background = {
shapes = (
{
closed = 1;
nodes = (
(218,500,l),
(178,401,o),
(127,268,o),
(95,177,cs),
(68,105,o),
(63,54,o),
(83,54,cs),
(106,54,o),
(147,119,o),
(182,210,c),
(212,210,l),
(163,82,o),
(85,-8,o),
(24,-8,cs),
(-19,-8,o),
(-28,51,o),
(3,135,cs),
(-28,52,o),
(49,250,o),
(143,500,c)
);
}
);
};
layerId = m003;
shapes = (
{
closed = 1;
nodes = (
(136,-8,o),
(210,82,o),
(252,210,c),
(222,210,l),
(191,119,o),
(152,54,o),
(130,54,cs),
(110,54,o),
(114,108,o),
(139,185,c),
(296,700,l),
(221,700,l),
(50,143,l),
(21,55,o),
(31,-8,o),
(73,-8,cs)
);
},
{
closed = 1;
nodes = (
(99,672,l),
(154,675,o),
(201,659,o),
(212,634,c),
(221,700,l),
(107,700,l)
);
}
);
width = 276;
}
);
metricWidth = i;
unicode = 108;
},
{
color = 0;
glyphname = m;
lastChange = "2024-11-09 12:45:28 +0000";
layers = (
{
background = {
shapes = (
{
closed = 1;
nodes = (
(179,422,o),
(275,516,o),
(332,516,cs),
(384,516,o),
(397,451,o),
(363,359,cs),
(340,298,o),
(236,45,o),
(219,0,c),
(145,0,l),
(266,308,l),
(290,375,o),
(289,422,o),
(265,422,cs),
(226,422,o),
(158,348,o),
(99,243,c),
(99,288,l)
);
},
{
closed = 1;
nodes = (
(-67,0,l),
(-21,118,o),
(31,251,o),
(57,323,cs),
(79,382,o),
(86,423,o),
(74,423,cs),
(45,423,o),
(2,368,o),
(-29,290,c),
(-59,290,l),
(-6,422,o),
(78,516,o),
(142,516,cs),
(179,516,o),
(182,453,o),
(149,365,cs),
(180,448,o),
(102,250,o),
(8,0,c)
);
},
{
closed = 1;
nodes = (
(398,422,o),
(494,516,o),
(551,516,cs),
(603,516,o),
(616,451,o),
(582,359,cs),
(559,298,o),
(534,230,o),
(517,185,cs),
(495,126,o),
(488,85,o),
(500,85,cs),
(529,85,o),
(572,140,o),
(603,218,c),
(633,218,l),
(580,86,o),
(496,-8,o),
(432,-8,cs),
(395,-8,o),
(392,55,o),
(425,143,cs),
(406,94,o),
(432,165,o),
(485,308,cs),
(509,375,o),
(508,422,o),
(484,422,cs),
(445,422,o),
(377,348,o),
(318,243,c),
(318,288,l)
);
}
);
};
layerId = m002;
shapes = (
{
closed = 1;
nodes = (
(273,417,o),
(371,508,o),
(428,508,cs),
(480,508,o),
(494,446,o),
(461,359,cs),
(438,298,o),
(336,45,o),
(319,0,c),
(244,0,l),
(366,308,l),
(392,382,o),
(398,424,o),
(380,424,cs),
(336,424,o),
(258,345,o),
(196,233,c),
(196,288,l)
);
},
{
closed = 1;
nodes = (
(33,0,l),
(68,85,o),
(119,219,o),
(156,323,cs),
(183,395,o),
(188,436,o),
(168,436,cs),
(145,436,o),
(104,371,o),
(69,280,c),
(39,290,l),
(88,418,o),
(166,508,o),
(227,508,cs),
(270,508,o),
(279,449,o),
(248,365,cs),
(279,448,o),
(202,250,o),
(108,0,c)
);
},
{
closed = 1;
nodes = (
(489,417,o),
(588,508,o),
(648,508,cs),
(700,508,o),
(714,446,o),
(681,359,cs),
(658,298,o),
(630,230,o),
(613,185,cs),
(586,113,o),
(580,72,o),
(599,72,cs),
(623,72,o),
(666,137,o),
(703,228,c),
(733,218,l),
(680,86,o),
(600,-8,o),
(540,-8,cs),
(496,-8,o),
(489,55,o),
(522,143,c),
(586,308,l),
(612,382,o),
(620,424,o),
(605,424,cs),
(556,424,o),
(474,345,o),
(412,233,c),
(412,288,l)
);
}
);
width = 750;
},
{
background = {
shapes = (
{
closed = 1;
nodes = (
(179,422,o),
(275,516,o),
(332,516,cs),
(384,516,o),
(397,451,o),
(363,359,cs),
(340,298,o),
(236,45,o),
(219,0,c),
(145,0,l),
(266,308,l),
(290,375,o),
(289,422,o),
(265,422,cs),
(226,422,o),
(158,348,o),
(99,243,c),
(99,288,l)
);
},
{
closed = 1;
nodes = (
(-67,0,l),
(-21,118,o),
(31,251,o),
(57,323,cs),
(79,382,o),
(86,423,o),
(74,423,cs),
(45,423,o),
(2,368,o),
(-29,290,c),
(-59,290,l),
(-6,422,o),
(78,516,o),
(142,516,cs),
(179,516,o),
(182,453,o),
(149,365,cs),
(180,448,o),
(102,250,o),
(8,0,c)
);
},
{
closed = 1;
nodes = (
(398,422,o),
(494,516,o),
(551,516,cs),
(603,516,o),
(616,451,o),
(582,359,cs),
(559,298,o),
(534,230,o),
(517,185,cs),
(495,126,o),
(488,85,o),
(500,85,cs),
(529,85,o),
(572,140,o),
(603,218,c),
(633,218,l),
(580,86,o),
(496,-8,o),
(432,-8,cs),
(395,-8,o),
(392,55,o),
(425,143,cs),
(406,94,o),
(432,165,o),
(485,308,cs),
(509,375,o),
(508,422,o),
(484,422,cs),
(445,422,o),
(377,348,o),
(318,243,c),
(318,288,l)
);
}
);
};
layerId = m003;
shapes = (
{
closed = 1;
nodes = (
(279,417,o),
(374,508,o),
(431,508,cs),
(483,508,o),
(497,446,o),
(464,359,cs),
(441,298,o),
(339,45,o),
(322,0,c),
(247,0,l),
(369,308,l),
(395,382,o),
(401,434,o),
(383,434,cs),
(339,434,o),
(264,355,o),
(202,243,c),
(202,288,l)
);
},
{
closed = 1;
nodes = (
(36,0,l),
(71,85,o),
(122,219,o),
(159,323,cs),
(186,395,o),
(191,446,o),
(171,446,cs),
(148,446,o),
(107,381,o),
(72,290,c),
(42,290,l),
(91,418,o),
(169,508,o),
(230,508,cs),
(273,508,o),
(282,449,o),
(251,365,cs),
(282,448,o),
(205,250,o),
(111,0,c)
);
},
{
closed = 1;
nodes = (
(495,417,o),
(591,508,o),
(651,508,cs),
(703,508,o),
(717,446,o),
(684,359,cs),
(661,298,o),
(633,230,o),
(616,185,cs),
(589,113,o),
(583,62,o),
(602,62,cs),
(626,62,o),
(669,127,o),
(706,218,c),
(736,218,l),
(683,86,o),
(603,-8,o),
(543,-8,cs),
(499,-8,o),
(492,55,o),
(525,143,c),
(589,308,l),
(615,382,o),
(623,434,o),
(608,434,cs),
(559,434,o),
(480,355,o),
(418,243,c),
(418,288,l)
);
}
);
width = 756;
}
);
metricLeft = n;
metricRight = n;
unicode = 109;
},
{
color = 0;
glyphname = n;
lastChange = "2024-11-09 12:45:47 +0000";
layers = (
{
background = {
shapes = (
{
closed = 0;
nodes = (
(-74,-200,l),
(271,700,l)
);
},
{
closed = 0;
nodes = (
(1,-200,l),
(346,700,l)
);
},
{
closed = 0;
nodes = (
(141,-200,l),
(486,700,l)
);
},
{
closed = 0;
nodes = (
(216,-200,l),
(561,700,l)
);
},
{
closed = 0;
nodes = (
(-179,-200,l),
(166,700,l)
);
},
{
closed = 0;
nodes = (
(-149,-200,l),
(196,700,l)
);
},
{
closed = 0;
nodes = (
(291,-200,l),
(636,700,l)
);
},
{
closed = 0;
nodes = (
(321,-200,l),
(666,700,l)
);
}
);
};
layerId = m002;
shapes = (
{
closed = 1;
nodes = (
(274,417,o),
(370,508,o),
(428,508,cs),
(480,508,o),
(493,446,o),
(460,359,cs),
(437,298,o),
(410,230,o),
(393,185,cs),
(366,113,o),
(360,72,o),
(379,72,cs),
(403,72,o),
(446,137,o),
(483,228,c),
(513,218,l),
(460,86,o),
(380,-8,o),
(320,-8,cs),
(276,-8,o),
(269,55,o),
(302,143,c),
(366,298,l),
(392,372,o),
(398,424,o),
(380,424,cs),
(335,424,o),
(259,345,o),
(197,233,c),
(197,288,l)
);
},
{
closed = 1;
nodes = (
(33,0,l),
(68,85,o),
(119,209,o),
(156,313,cs),
(183,385,o),
(188,436,o),
(168,436,cs),
(145,436,o),
(104,371,o),
(69,280,c),
(39,290,l),
(88,418,o),
(166,508,o),
(227,508,cs),
(270,508,o),
(279,449,o),
(248,365,cs),
(279,448,o),
(202,250,o),
(108,0,c)
);
}
);
width = 530;
},
{
layerId = m003;
shapes = (
{
closed = 1;
nodes = (
(275,417,o),
(370,508,o),
(428,508,cs),
(480,508,o),
(493,446,o),
(460,359,cs),
(437,298,o),
(410,230,o),
(393,185,cs),
(366,113,o),
(360,62,o),
(379,62,cs),
(403,62,o),
(446,127,o),
(483,218,c),
(513,218,l),
(460,86,o),
(380,-8,o),
(320,-8,cs),
(276,-8,o),
(269,55,o),
(302,143,c),
(366,308,l),
(392,382,o),
(398,434,o),
(380,434,cs),
(335,434,o),
(260,355,o),
(198,243,c),
(198,288,l)
);
},
{
closed = 1;
nodes = (
(33,0,l),
(68,85,o),
(119,219,o),
(156,323,cs),
(183,395,o),
(188,446,o),
(168,446,cs),
(145,446,o),
(104,381,o),
(69,290,c),
(39,290,l),
(88,418,o),
(166,508,o),
(227,508,cs),
(270,508,o),
(279,449,o),
(248,365,cs),
(279,448,o),
(202,250,o),
(108,0,c)
);
}
);
width = 530;
}
);
unicode = 110;
},
{
color = 0;
glyphname = o;
lastChange = "2024-11-10 10:54:52 +0000";
layers = (
{
anchors = (
{
name = bottom;
pos = (152,0);
},
{
name = center;
pos = (218,218);
},
{
name = ogonek;
pos = (329,10);
},
{
name = top;
pos = (284,435);
},
{
name = topright;
pos = (481,435);
}
);
background = {
shapes = (
{
closed = 1;
nodes = (
(231,417,o),
(318,508,o),
(364,508,cs),
(428,508,o),
(449,446,o),
(416,359,cs),
(393,298,o),
(366,230,o),
(349,185,cs),
(322,113,o),
(316,62,o),
(335,62,cs),
(359,62,o),
(402,127,o),
(439,218,c),
(469,218,l),
(416,86,o),
(336,-8,o),
(276,-8,cs),
(232,-8,o),
(225,55,o),
(258,143,cs),
(295,241,o),
(322,310,o),
(322,308,cs),
(348,382,o),
(348,434,o),
(321,434,cs),
(286,434,o),
(216,355,o),
(154,243,c),
(154,288,l)
);
},
{
closed = 1;
nodes = (
(-11,0,l),
(29,99,o),
(80,232,o),
(112,323,cs),
(139,395,o),
(144,446,o),
(124,446,cs),
(101,446,o),
(60,381,o),
(25,290,c),
(-5,290,l),
(44,418,o),
(122,508,o),
(183,508,cs),
(226,508,o),
(235,449,o),
(204,365,cs),
(235,448,o),
(158,250,o),
(64,0,c)
);
}
);
};
layerId = m002;
shapes = (
{
closed = 1;
nodes = (
(245,-8,o),
(343,86,o),
(394,220,cs),
(458,389,o),
(418,508,o),
(298,508,cs),
(210,508,o),
(110,410,o),
(58,272,cs),
(-3,108,o),
(38,-8,o),
(156,-8,cs)
);
},
{
closed = 1;
nodes = (
(99,30,o),
(95,127,o),
(157,292,cs),
(196,396,o),
(250,470,o),
(288,470,cs),
(356,470,o),
(359,370,o),
(295,200,cs),
(257,100,o),
(204,30,o),
(167,30,cs)
);
}
);
width = 435;
},
{
anchors = (
{
name = bottom;
pos = (155,0);
},
{
name = center;
pos = (221,218);
},
{
name = ogonek;
pos = (334,10);
},
{
name = top;
pos = (287,435);
},
{
name = topright;
pos = (487,435);
}
);
background = {
shapes = (
{
closed = 1;
nodes = (
(231,417,o),
(318,508,o),
(364,508,cs),
(428,508,o),
(449,446,o),
(416,359,cs),
(393,298,o),
(366,230,o),
(349,185,cs),
(322,113,o),
(316,62,o),
(335,62,cs),
(359,62,o),
(402,127,o),
(439,218,c),
(469,218,l),
(416,86,o),
(336,-8,o),
(276,-8,cs),
(232,-8,o),
(225,55,o),
(258,143,cs),
(295,241,o),
(322,310,o),
(322,308,cs),
(348,382,o),
(348,434,o),
(321,434,cs),
(286,434,o),
(216,355,o),
(154,243,c),
(154,288,l)
);
},
{
closed = 1;
nodes = (
(-11,0,l),
(29,99,o),
(80,232,o),
(112,323,cs),
(139,395,o),
(144,446,o),
(124,446,cs),
(101,446,o),
(60,381,o),
(25,290,c),
(-5,290,l),
(44,418,o),
(122,508,o),
(183,508,cs),
(226,508,o),
(235,449,o),
(204,365,cs),
(235,448,o),
(158,250,o),
(64,0,c)
);
}
);
};
layerId = m003;
shapes = (
{
closed = 1;
nodes = (
(248,-8,o),
(346,86,o),
(397,220,cs),
(461,389,o),
(421,508,o),
(301,508,cs),
(213,508,o),
(113,410,o),
(61,272,cs),
(0,108,o),
(41,-8,o),
(159,-8,cs)
);
},
{
closed = 1;
nodes = (
(102,20,o),
(98,137,o),
(160,302,cs),
(199,406,o),
(253,480,o),
(291,480,cs),
(359,480,o),
(362,360,o),
(298,190,cs),
(260,90,o),
(207,20,o),
(170,20,cs)
);
}
);
width = 441;
}
);
unicode = 111;
},
{
color = 0;
glyphname = p;
lastChange = "2024-11-09 08:56:51 +0000";
layers = (
{
background = {
shapes = (
{
closed = 0;
nodes = (
(-124,-200,l),
(221,700,l)
);
},
{
closed = 0;
nodes = (
(-49,-200,l),
(296,700,l)
);
},
{
closed = 0;
nodes = (
(91,-200,l),
(436,700,l)
);
},
{
closed = 0;
nodes = (
(166,-200,l),
(511,700,l)
);
},
{
closed = 0;
nodes = (
(-229,-200,l),
(116,700,l)
);
},
{
closed = 0;
nodes = (
(-199,-200,l),
(146,700,l)
);
},
{
closed = 0;
nodes = (
(241,-200,l),
(586,700,l)
);
},
{
closed = 0;
nodes = (
(271,-200,l),
(616,700,l)
);
}
);
};
layerId = m002;
shapes = (
{
closed = 1;
nodes = (
(118,53,o),
(152,43,o),
(184,43,cs),
(276,43,o),
(376,140,o),
(425,277,cs),
(473,411,o),
(430,506,o),
(320,506,cs),
(234,506,o),
(107,431,o),
(13,325,c),
(30,292,l),
(117,385,o),
(219,451,o),
(277,451,cs),
(359,451,o),
(385,371,o),
(339,243,cs),
(304,145,o),
(235,85,o),
(173,85,cs),
(155,85,o),
(128,99,o),
(109,118,c),
(100,66,l)
);
},
{
closed = 1;
nodes = (
(173,-200,l),
(182,-162,l),
(123,-162,l),
(91,-162,o),
(74,-150,o),
(81,-120,c),
(251,568,l),
(180,562,l),
(1,-136,l),
(-2,-151,o),
(-16,-162,o),
(-32,-162,c),
(-103,-162,l),
(-111,-200,l)
);
}
);
width = 455;
},
{
associatedMasterId = m002;
background = {
shapes = (
{
closed = 0;
nodes = (
(-67,-200,l),
(278,700,l)
);
},
{
closed = 0;
nodes = (
(8,-200,l),
(353,700,l)
);
},
{
closed = 0;
nodes = (
(148,-200,l),
(493,700,l)
);
},
{
closed = 0;
nodes = (
(223,-200,l),
(568,700,l)
);
},
{
closed = 0;
nodes = (
(-172,-200,l),
(173,700,l)
);
},
{
closed = 0;
nodes = (
(-142,-200,l),
(203,700,l)
);
},
{
closed = 0;
nodes = (
(298,-200,l),
(643,700,l)
);
},
{
closed = 0;
nodes = (
(328,-200,l),
(673,700,l)
);
}
);
};
layerId = "A40351B2-BD49-4323-9FB6-59C004775579";
name = "6. Nov. 24, 23:23";
shapes = (
{
closed = 1;
nodes = (
(249,-51,o),
(409,59,o),
(470,275,cs),
(504,396,o),
(462,506,o),
(347,506,cs),
(261,506,o),
(134,431,o),
(40,325,c),
(57,299,l),
(143,391,o),
(245,456,o),
(304,456,cs),
(382,456,o),
(401,364,o),
(371,255,cs),
(323,81,o),
(208,-13,o),
(136,41,c),
(127,8,l)
);
},
{
closed = 1;
nodes = (
(200,-200,l),
(209,-172,l),
(95,-172,l),
(278,568,l),
(207,562,l),
(16,-172,l),
(-81,-172,l),
(-89,-200,l)
);
}
);
width = 502;
},
{
background = {
shapes = (
{
closed = 0;
nodes = (
(-124,-200,l),
(221,700,l)
);
},
{
closed = 0;
nodes = (
(-49,-200,l),
(296,700,l)
);
},
{
closed = 0;
nodes = (
(91,-200,l),
(436,700,l)
);
},
{
closed = 0;
nodes = (
(166,-200,l),
(511,700,l)
);
},
{
closed = 0;
nodes = (
(-229,-200,l),
(116,700,l)
);
},
{
closed = 0;
nodes = (
(-199,-200,l),
(146,700,l)
);
},
{
closed = 0;
nodes = (
(241,-200,l),
(586,700,l)
);
},
{
closed = 0;
nodes = (
(271,-200,l),
(616,700,l)
);
}
);
};
layerId = m003;
shapes = (
{
closed = 1;
nodes = (
(121,53,o),
(155,43,o),
(187,43,cs),
(279,43,o),
(379,140,o),
(428,277,cs),
(476,411,o),
(433,506,o),
(323,506,cs),
(237,506,o),
(110,431,o),
(16,325,c),
(33,302,l),
(120,395,o),
(222,461,o),
(280,461,cs),
(362,461,o),
(388,371,o),
(342,243,cs),
(307,145,o),
(238,75,o),
(176,75,cs),
(158,75,o),
(131,89,o),
(112,108,c),
(103,66,l)
);
},
{
closed = 1;
nodes = (
(176,-200,l),
(185,-172,l),
(126,-172,l),
(94,-172,o),
(77,-150,o),
(84,-120,c),
(254,568,l),
(183,562,l),
(4,-146,l),
(1,-161,o),
(-13,-172,o),
(-29,-172,c),
(-100,-172,l),
(-108,-200,l)
);
}
);
width = 461;
},
{
associatedMasterId = m003;
background = {
shapes = (
{
closed = 0;
nodes = (
(-67,-200,l),
(278,700,l)
);
},
{
closed = 0;
nodes = (
(8,-200,l),
(353,700,l)
);
},
{
closed = 0;
nodes = (
(148,-200,l),
(493,700,l)
);
},
{
closed = 0;
nodes = (
(223,-200,l),
(568,700,l)
);
},
{
closed = 0;
nodes = (
(-172,-200,l),
(173,700,l)
);
},
{
closed = 0;
nodes = (
(-142,-200,l),
(203,700,l)
);
},
{
closed = 0;
nodes = (
(298,-200,l),
(643,700,l)
);
},
{
closed = 0;
nodes = (
(328,-200,l),
(673,700,l)
);
}
);
};
layerId = "029680C6-E5C4-473E-9EF7-0B855439BBB5";
name = "6. Nov. 24, 23:23";
shapes = (
{
closed = 1;
nodes = (
(249,-51,o),
(409,59,o),
(470,275,cs),
(504,396,o),
(462,506,o),
(347,506,cs),
(261,506,o),
(134,431,o),
(40,325,c),
(57,299,l),
(143,391,o),
(245,456,o),
(304,456,cs),
(382,456,o),
(401,364,o),
(371,255,cs),
(323,81,o),
(208,-13,o),
(136,41,c),
(127,8,l)
);
},
{
closed = 1;
nodes = (
(200,-200,l),
(209,-172,l),
(95,-172,l),
(278,568,l),
(207,562,l),
(16,-172,l),
(-81,-172,l),
(-89,-200,l)
);
}
);
width = 502;
}
);
unicode = 112;
},
{
color = 0;
glyphname = q;
lastChange = "2024-11-09 08:56:51 +0000";
layers = (
{
background = {
shapes = (
{
closed = 1;
nodes = (
(127,-8,o),
(208,53,o),
(285,140,c),
(267,158,l),
(211,98,o),
(152,56,o),
(125,56,cs),
(97,56,o),
(99,128,o),
(130,229,cs),
(175,370,o),
(250,470,o),
(311,470,cs),
(322,470,o),
(343,456,o),
(362,437,c),
(398,476,l),
(381,495,o),
(356,508,o),
(337,508,cs),
(223,508,o),
(101,379,o),
(44,197,cs),
(7,77,o),
(25,-8,o),
(87,-8,cs)
);
},
{
closed = 1;
nodes = (
(334,-8,o),
(413,82,o),
(448,210,c),
(418,210,l),
(392,119,o),
(351,54,o),
(329,54,cs),
(309,54,o),
(310,109,o),
(335,185,cs),
(505,700,l),
(429,700,l),
(248,143,ls),
(219,56,o),
(229,-8,o),
(271,-8,cs)
);
},
{
closed = 1;
nodes = (
(429,700,l),
(315,700,l),
(309,672,l),
(364,675,o),
(412,659,o),
(424,634,c)
);
}
);
};
layerId = m002;
shapes = (
{
closed = 1;
nodes = (
(367,-200,l),
(374,-162,l),
(360,-162,o),
(348,-162,o),
(331,-162,cs),
(287,-162,o),
(264,-133,o),
(274,-101,c),
(417,475,l),
(345,471,l),
(192,-132,l),
(187,-150,o),
(162,-162,o),
(131,-162,cs),
(81,-162,l),
(75,-200,l)
);
},
{
closed = 1;
nodes = (
(127,-8,o),
(208,53,o),
(285,140,c),
(267,168,l),
(211,108,o),
(152,66,o),
(125,66,cs),
(97,66,o),
(99,128,o),
(130,229,cs),
(175,370,o),
(250,460,o),
(311,460,cs),
(322,460,o),
(343,446,o),
(362,427,c),
(398,476,l),
(381,495,o),
(356,508,o),
(337,508,cs),
(223,508,o),
(101,379,o),
(44,197,cs),
(7,77,o),
(25,-8,o),
(87,-8,cs)
);
}
);
width = 435;
},
{
associatedMasterId = m002;
background = {
shapes = (
{
closed = 0;
nodes = (
(188,-146,l),
(185,-161,o),
(171,-172,o),
(155,-172,c),
(84,-172,l),
(76,-200,l),
(365,-200,l),
(374,-172,l),
(315,-172,l),
(283,-172,o),
(266,-150,o),
(273,-120,c)
);
}
);
};
layerId = "993AA203-500F-4BF0-B0F4-8CF1BB66615D";
name = "7. Nov. 24, 00:08";
shapes = (
{
closed = 1;
nodes = (
(368,-200,l),
(377,-172,l),
(363,-172,o),
(351,-172,o),
(334,-172,cs),
(290,-172,o),
(268,-143,o),
(281,-101,c),
(433,396,l),
(441,420,o),
(451,447,o),
(457,459,c),
(443,488,o),
(418,508,o),
(395,508,cs),
(258,508,o),
(100,370,o),
(29,175,cs),
(-10,68,o),
(9,-8,o),
(76,-8,cs),
(137,-8,o),
(244,23,o),
(310,106,c),
(312,139,l),
(264,69,o),
(192,62,o),
(163,62,cs),
(93,62,o),
(65,125,o),
(95,213,cs),
(141,345,o),
(230,439,o),
(309,439,cs),
(347,439,o),
(365,414,o),
(354,379,c),
(196,-142,l),
(191,-160,o),
(165,-172,o),
(134,-172,cs),
(84,-172,l),
(76,-200,l)
);
}
);
width = 431;
},
{
background = {
shapes = (
{
closed = 1;
nodes = (
(127,-8,o),
(208,53,o),
(285,140,c),
(267,158,l),
(211,98,o),
(152,56,o),
(125,56,cs),
(97,56,o),
(99,128,o),
(130,229,cs),
(175,370,o),
(250,470,o),
(311,470,cs),
(322,470,o),
(343,456,o),
(362,437,c),
(398,476,l),
(381,495,o),
(356,508,o),
(337,508,cs),
(223,508,o),
(101,379,o),
(44,197,cs),
(7,77,o),
(25,-8,o),
(87,-8,cs)
);
},
{
closed = 1;
nodes = (
(334,-8,o),
(413,82,o),
(448,210,c),
(418,210,l),
(392,119,o),
(351,54,o),
(329,54,cs),
(309,54,o),
(310,109,o),
(335,185,cs),
(505,700,l),
(429,700,l),
(248,143,ls),
(219,56,o),
(229,-8,o),
(271,-8,cs)
);
},
{
closed = 1;
nodes = (
(429,700,l),
(315,700,l),
(309,672,l),
(364,675,o),
(412,659,o),
(424,634,c)
);
}
);
};
layerId = m003;
shapes = (
{
closed = 1;
nodes = (
(370,-200,l),
(377,-172,l),
(363,-172,o),
(351,-172,o),
(334,-172,cs),
(290,-172,o),
(267,-143,o),
(277,-101,c),
(420,475,l),
(348,471,l),
(195,-142,l),
(190,-160,o),
(165,-172,o),
(134,-172,cs),
(84,-172,l),
(78,-200,l)
);
},
{
closed = 1;
nodes = (
(130,-8,o),
(211,53,o),
(288,140,c),
(270,158,l),
(214,98,o),
(155,56,o),
(128,56,cs),
(100,56,o),
(102,128,o),
(133,229,cs),
(178,370,o),
(253,470,o),
(314,470,cs),
(325,470,o),
(346,456,o),
(365,437,c),
(401,476,l),
(384,495,o),
(359,508,o),
(340,508,cs),
(226,508,o),
(104,379,o),
(47,197,cs),
(10,77,o),
(28,-8,o),
(90,-8,cs)
);
}
);
width = 441;
},
{
associatedMasterId = m003;
background = {
shapes = (
{
closed = 0;
nodes = (
(188,-146,l),
(185,-161,o),
(171,-172,o),
(155,-172,c),
(84,-172,l),
(76,-200,l),
(365,-200,l),
(374,-172,l),
(315,-172,l),
(283,-172,o),
(266,-150,o),
(273,-120,c)
);
}
);
};
layerId = "00B6DBDF-8A79-4760-8C61-E953A7B5EE51";
name = "7. Nov. 24, 00:08";
shapes = (
{
closed = 1;
nodes = (
(368,-200,l),
(377,-172,l),
(363,-172,o),
(351,-172,o),
(334,-172,cs),
(290,-172,o),
(268,-143,o),
(281,-101,c),
(433,396,l),
(441,420,o),
(451,447,o),
(457,459,c),
(443,488,o),
(418,508,o),
(395,508,cs),
(258,508,o),
(100,370,o),
(29,175,cs),
(-10,68,o),
(9,-8,o),
(76,-8,cs),
(137,-8,o),
(244,23,o),
(310,106,c),
(312,139,l),
(264,69,o),
(192,62,o),
(163,62,cs),
(93,62,o),
(65,125,o),
(95,213,cs),
(141,345,o),
(230,439,o),
(309,439,cs),
(347,439,o),
(365,414,o),
(354,379,c),
(196,-142,l),
(191,-160,o),
(165,-172,o),
(134,-172,cs),
(84,-172,l),
(76,-200,l)
);
}
);
width = 431;
}
);
metricWidth = o;
unicode = 113;
},
{
color = 0;
glyphname = r;
lastChange = "2024-11-09 08:56:51 +0000";
layers = (
{
associatedMasterId = m002;
layerId = "8F32C957-85C0-4F69-B0F9-3A37D94DEFBF";
name = "6. Nov. 24, 23:41";
shapes = (
{
closed = 1;
nodes = (
(97,0,l),
(191,250,o),
(263,448,o),
(232,365,cs),
(263,449,o),
(260,508,o),
(216,508,cs),
(157,508,o),
(79,418,o),
(28,290,c),
(58,290,l),
(94,381,o),
(135,446,o),
(157,446,cs),
(177,446,o),
(173,395,o),
(146,323,cs),
(108,221,o),
(56,87,o),
(22,0,c)
);
},
{
closed = 1;
nodes = (
(195,313,o),
(311,474,o),
(333,474,c),
(347,474,o),
(353,456,o),
(353,424,c),
(353,384,o),
(335,365,o),
(335,343,c),
(335,332,o),
(344,329,o),
(348,329,c),
(380,329,o),
(445,349,o),
(445,418,c),
(445,474,o),
(398,508,o),
(337,508,cs),
(300,508,o),
(191,380,o),
(107,198,c),
(110,160,l)
);
}
);
width = 373;
},
{
background = {
shapes = (
{
closed = 0;
nodes = (
(334,478,l),
(373,478,o),
(382,426,o),
(355,353,cs),
(351,339,o),
(356,329,o),
(367,329,cs),
(408,329,o),
(445,354,o),
(457,389,cs),
(480,458,o),
(436,506,o),
(351,506,cs)
);
},
{
closed = 1;
nodes = (
(328,508,o),
(234,426,o),
(125,310,c),
(142,292,l),
(223,375,o),
(292,434,o),
(309,434,cs),
(335,434,o),
(336,385,o),
(311,316,c),
(399,348,l),
(433,442,o),
(413,508,o),
(351,508,cs)
);
}
);
};
layerId = m002;
name = "Groote Garmont Cursyf";
shapes = (
{
closed = 1;
nodes = (
(127,0,l),
(199,250,o),
(254,448,o),
(230,365,cs),
(254,449,o),
(246,508,o),
(202,508,cs),
(143,508,o),
(73,418,o),
(33,290,c),
(63,280,l),
(91,371,o),
(126,436,o),
(148,436,cs),
(168,436,o),
(169,395,o),
(148,323,cs),
(119,221,o),
(79,87,o),
(52,0,c)
);
},
{
closed = 1;
nodes = (
(216,292,o),
(297,420,o),
(336,420,c),
(350,420,o),
(360,403,o),
(374,403,c),
(401,403,o),
(428,425,o),
(439,456,cs),
(450,486,o),
(419,508,o),
(363,508,cs),
(319,508,o),
(224,363,o),
(134,158,c),
(140,110,l)
);
}
);
width = 391;
},
{
associatedMasterId = m003;
layerId = "D557A137-27E6-4560-890F-F4309894473F";
name = "6. Nov. 24, 23:41";
shapes = (
{
closed = 1;
nodes = (
(97,0,l),
(191,250,o),
(263,448,o),
(232,365,cs),
(263,449,o),
(260,508,o),
(216,508,cs),
(157,508,o),
(79,418,o),
(28,290,c),
(58,290,l),
(94,381,o),
(135,446,o),
(157,446,cs),
(177,446,o),
(173,395,o),
(146,323,cs),
(108,221,o),
(56,87,o),
(22,0,c)
);
},
{
closed = 1;
nodes = (
(195,313,o),
(311,474,o),
(333,474,c),
(347,474,o),
(353,456,o),
(353,424,c),
(353,384,o),
(335,365,o),
(335,343,c),
(335,332,o),
(344,329,o),
(348,329,c),
(380,329,o),
(445,349,o),
(445,418,c),
(445,474,o),
(398,508,o),
(337,508,cs),
(300,508,o),
(191,380,o),
(107,198,c),
(110,160,l)
);
}
);
width = 373;
},
{
background = {
shapes = (
{
closed = 0;
nodes = (
(334,478,l),
(373,478,o),
(382,426,o),
(355,353,cs),
(351,339,o),
(356,329,o),
(367,329,cs),
(408,329,o),
(445,354,o),
(457,389,cs),
(480,458,o),
(436,506,o),
(351,506,cs)
);
},
{
closed = 1;
nodes = (
(328,508,o),
(234,426,o),
(125,310,c),
(142,292,l),
(223,375,o),
(292,434,o),
(309,434,cs),
(335,434,o),
(336,385,o),
(311,316,c),
(399,348,l),
(433,442,o),
(413,508,o),
(351,508,cs)
);
}
);
};
layerId = m003;
name = "Groote Garmont Cursyf";
shapes = (
{
closed = 1;
nodes = (
(130,0,l),
(202,250,o),
(257,448,o),
(233,365,cs),
(257,449,o),
(249,508,o),
(205,508,cs),
(146,508,o),
(76,418,o),
(36,290,c),
(66,290,l),
(94,381,o),
(129,446,o),
(151,446,cs),
(171,446,o),
(172,395,o),
(151,323,cs),
(122,221,o),
(82,87,o),
(55,0,c)
);
},
{
closed = 1;
nodes = (
(219,302,o),
(300,430,o),
(339,430,c),
(353,430,o),
(363,403,o),
(377,403,c),
(404,403,o),
(431,425,o),
(442,456,cs),
(453,486,o),
(422,508,o),
(366,508,cs),
(322,508,o),
(227,363,o),
(137,158,c),
(143,120,l)
);
}
);
width = 397;
}
);
metricWidth = c;
unicode = 114;
},
{
color = 0;
glyphname = s;
lastChange = "2024-11-09 20:16:10 +0000";
layers = (
{
background = {
shapes = (
{
closed = 1;
nodes = (
(188,-8,o),
(286,86,o),
(337,220,cs),
(401,389,o),
(361,508,o),
(241,508,cs),
(152,508,o),
(52,410,o),
(0,272,cs),
(-61,108,o),
(-20,-8,o),
(99,-8,cs)
);
},
{
closed = 1;
nodes = (
(41,20,o),
(37,137,o),
(99,302,cs),
(138,406,o),
(193,480,o),
(231,480,cs),
(299,480,o),
(302,360,o),
(238,190,cs),
(200,90,o),
(147,20,o),
(110,20,cs)
);
}
);
};
layerId = m002;
shapes = (
{
closed = 1;
nodes = (
(208,51,o),
(177,30,o),
(149,30,cs),
(109,30,o),
(95,63,o),
(116,124,cs),
(121,137,o),
(118,147,o),
(109,147,cs),
(75,147,o),
(44,128,o),
(35,100,cs),
(13,37,o),
(51,-8,o),
(128,-8,cs),
(206,-8,o),
(281,48,o),
(310,128,cs),
(353,247,o),
(154,281,o),
(208,422,cs),
(220,455,o),
(243,469,o),
(264,469,cs),
(306,469,o),
(320,433,o),
(297,367,cs),
(292,354,o),
(295,344,o),
(304,344,cs),
(338,344,o),
(369,363,o),
(378,391,cs),
(402,459,o),
(363,507,o),
(285,507,cs),
(213,507,o),
(147,467,o),
(126,410,cs),
(62,239,o),
(271,226,o),
(224,95,cs)
);
}
);
width = 391;
},
{
associatedMasterId = m002;
background = {
shapes = (
{
closed = 1;
nodes = (
(169,397,l),
(183,445,o),
(210,479,o),
(234,479,cs),
(272,479,o),
(281,429,o),
(256,358,cs),
(250,342,o),
(254,330,o),
(265,330,cs),
(306,330,o),
(344,354,o),
(356,388,cs),
(380,458,o),
(338,507,o),
(255,507,cs),
(177,507,o),
(108,456,o),
(87,383,c)
);
},
{
closed = 1;
nodes = (
(168,104,l),
(148,55,o),
(111,20,o),
(79,20,cs),
(41,20,o),
(32,70,o),
(57,141,cs),
(63,157,o),
(59,169,o),
(48,169,cs),
(7,169,o),
(-31,145,o),
(-43,111,cs),
(-67,41,o),
(-25,-8,o),
(58,-8,cs),
(134,-8,o),
(215,52,o),
(254,137,c)
);
}
);
};
layerId = "C4E545CC-734B-4BC6-A132-AF93CB7C8D5A";
name = "6. Nov. 24, 21:45";
shapes = (
{
closed = 1;
nodes = (
(-34,45,o),
(-5,-3,o),
(56,-3,cs),
(143,-3,o),
(227,51,o),
(250,128,cs),
(307,313,o),
(134,281,o),
(172,407,cs),
(185,448,o),
(211,477,o),
(235,477,cs),
(266,477,o),
(280,452,o),
(269,416,cs),
(265,404,o),
(271,396,o),
(282,396,cs),
(315,396,o),
(342,408,o),
(347,424,cs),
(362,473,o),
(325,507,o),
(259,507,cs),
(179,507,o),
(114,462,o),
(91,386,cs),
(35,202,o),
(205,224,o),
(169,107,cs),
(156,65,o),
(111,27,o),
(79,27,cs),
(51,27,o),
(44,64,o),
(59,116,cs),
(63,128,o),
(57,137,o),
(45,137,cs),
(15,137,o),
(-9,127,o),
(-13,113,cs)
);
}
);
width = 334;
},
{
background = {
shapes = (
{
closed = 1;
nodes = (
(188,-8,o),
(286,86,o),
(337,220,cs),
(401,389,o),
(361,508,o),
(241,508,cs),
(152,508,o),
(52,410,o),
(0,272,cs),
(-61,108,o),
(-20,-8,o),
(99,-8,cs)
);
},
{
closed = 1;
nodes = (
(41,20,o),
(37,137,o),
(99,302,cs),
(138,406,o),
(193,480,o),
(231,480,cs),
(299,480,o),
(302,360,o),
(238,190,cs),
(200,90,o),
(147,20,o),
(110,20,cs)
);
}
);
};
layerId = m003;
shapes = (
{
closed = 1;
nodes = (
(211,51,o),
(180,20,o),
(152,20,cs),
(112,20,o),
(98,63,o),
(119,124,cs),
(124,137,o),
(121,147,o),
(112,147,cs),
(78,147,o),
(47,128,o),
(38,100,cs),
(16,37,o),
(54,-8,o),
(131,-8,cs),
(209,-8,o),
(284,48,o),
(313,128,cs),
(356,247,o),
(157,281,o),
(211,422,cs),
(223,455,o),
(246,479,o),
(267,479,cs),
(309,479,o),
(323,433,o),
(300,367,cs),
(295,354,o),
(298,344,o),
(307,344,cs),
(341,344,o),
(372,363,o),
(381,391,cs),
(405,459,o),
(366,507,o),
(288,507,cs),
(216,507,o),
(150,467,o),
(129,410,cs),
(65,239,o),
(274,226,o),
(227,95,cs)
);
}
);
width = 397;
},
{
associatedMasterId = m003;
background = {
shapes = (
{
closed = 1;
nodes = (
(169,397,l),
(183,445,o),
(210,479,o),
(234,479,cs),
(272,479,o),
(281,429,o),
(256,358,cs),
(250,342,o),
(254,330,o),
(265,330,cs),
(306,330,o),
(344,354,o),
(356,388,cs),
(380,458,o),
(338,507,o),
(255,507,cs),
(177,507,o),
(108,456,o),
(87,383,c)
);
},
{
closed = 1;
nodes = (
(168,104,l),
(148,55,o),
(111,20,o),
(79,20,cs),
(41,20,o),
(32,70,o),
(57,141,cs),
(63,157,o),
(59,169,o),
(48,169,cs),
(7,169,o),
(-31,145,o),
(-43,111,cs),
(-67,41,o),
(-25,-8,o),
(58,-8,cs),
(134,-8,o),
(215,52,o),
(254,137,c)
);
}
);
};
layerId = "EBFBC35F-32CC-450C-9ABA-983167BABF9D";
name = "6. Nov. 24, 21:45";
shapes = (
{
closed = 1;
nodes = (
(-34,45,o),
(-5,-3,o),
(56,-3,cs),
(143,-3,o),
(227,51,o),
(250,128,cs),
(307,313,o),
(134,281,o),
(172,407,cs),
(185,448,o),
(211,477,o),
(235,477,cs),
(266,477,o),
(280,452,o),
(269,416,cs),
(265,404,o),
(271,396,o),
(282,396,cs),
(315,396,o),
(342,408,o),
(347,424,cs),
(362,473,o),
(325,507,o),
(259,507,cs),
(179,507,o),
(114,462,o),
(91,386,cs),
(35,202,o),
(205,224,o),
(169,107,cs),
(156,65,o),
(111,27,o),
(79,27,cs),
(51,27,o),
(44,64,o),
(59,116,cs),
(63,128,o),
(57,137,o),
(45,137,cs),
(15,137,o),
(-9,127,o),
(-13,113,cs)
);
}
);
width = 334;
}
);
metricWidth = c;
unicode = 115;
},
{
color = 0;
glyphname = t;
lastChange = "2024-11-09 08:56:51 +0000";
layers = (
{
background = {
shapes = (
{
closed = 1;
nodes = (
(190,612,o),
(221,633,o),
(229,659,cs),
(237,685,o),
(219,706,o),
(188,706,cs),
(157,706,o),
(127,685,o),
(119,659,cs),
(111,633,o),
(128,612,o),
(159,612,cs)
);
},
{
closed = 1;
nodes = (
(0,143,ls),
(-33,55,o),
(-26,-8,o),
(18,-8,cs),
(78,-8,o),
(158,86,o),
(211,218,c),
(181,218,l),
(144,127,o),
(101,62,o),
(77,62,cs),
(58,62,o),
(64,113,o),
(91,185,cs),
(167,381,l),
(190,457,o),
(177,508,o),
(137,508,cs),
(76,508,o),
(-2,418,o),
(-51,290,c),
(-21,290,l),
(14,381,o),
(55,446,o),
(78,446,cs),
(98,446,o),
(93,395,o),
(66,323,cs)
);
}
);
};
layerId = m002;
shapes = (
{
closed = 1;
nodes = (
(141,-8,o),
(212,86,o),
(250,218,c),
(220,228,l),
(193,137,o),
(156,72,o),
(131,72,cs),
(113,72,o),
(114,116,o),
(135,193,cs),
(163,297,o),
(212,469,o),
(253,609,c),
(160,599,l),
(49,151,l),
(23,58,o),
(35,-8,o),
(77,-8,cs)
);
},
{
closed = 1;
nodes = (
(301,458,l),
(314,500,l),
(50,500,l),
(37,458,l)
);
}
);
width = 270;
},
{
background = {
shapes = (
{
closed = 1;
nodes = (
(190,612,o),
(221,633,o),
(229,659,cs),
(237,685,o),
(219,706,o),
(188,706,cs),
(157,706,o),
(127,685,o),
(119,659,cs),
(111,633,o),
(128,612,o),
(159,612,cs)
);
},
{
closed = 1;
nodes = (
(0,143,ls),
(-33,55,o),
(-26,-8,o),
(18,-8,cs),
(78,-8,o),
(158,86,o),
(211,218,c),
(181,218,l),
(144,127,o),
(101,62,o),
(77,62,cs),
(58,62,o),
(64,113,o),
(91,185,cs),
(167,381,l),
(190,457,o),
(177,508,o),
(137,508,cs),
(76,508,o),
(-2,418,o),
(-51,290,c),
(-21,290,l),
(14,381,o),
(55,446,o),
(78,446,cs),
(98,446,o),
(93,395,o),
(66,323,cs)
);
}
);
};
layerId = m003;
shapes = (
{
closed = 1;
nodes = (
(144,-8,o),
(215,86,o),
(253,218,c),
(223,218,l),
(196,127,o),
(159,62,o),
(134,62,cs),
(116,62,o),
(117,116,o),
(138,193,cs),
(166,297,o),
(215,469,o),
(256,609,c),
(163,599,l),
(52,151,l),
(26,58,o),
(38,-8,o),
(80,-8,cs)
);
},
{
closed = 1;
nodes = (
(304,458,l),
(317,500,l),
(53,500,l),
(40,458,l)
);
}
);
width = 276;
}
);
metricWidth = i;
unicode = 116;
},
{
color = 0;
glyphname = u;
lastChange = "2024-11-10 10:54:52 +0000";
layers = (
{
anchors = (
{
name = bottom;
pos = (199,0);
},
{
name = ogonek;
pos = (414,10);
},
{
name = top;
pos = (331,435);
},
{
name = topright;
pos = (576,435);
}
);
layerId = m002;
shapes = (
{
closed = 1;
nodes = (
(277,83,o),
(180,-8,o),
(122,-8,cs),
(70,-8,o),
(57,54,o),
(90,141,cs),
(113,202,o),
(140,270,o),
(157,315,cs),
(184,387,o),
(198,428,o),
(191,428,cs),
(156,428,o),
(104,363,o),
(67,272,c),
(37,282,l),
(90,414,o),
(178,508,o),
(250,508,cs),
(282,508,o),
(281,445,o),
(248,357,cs),
(211,258,o),
(184,189,o),
(184,192,cs),
(158,118,o),
(150,76,o),
(165,76,cs),
(213,76,o),
(292,155,o),
(354,267,c),
(354,212,l)
);
},
{
closed = 1;
nodes = (
(517,500,l),
(474,395,o),
(424,261,o),
(394,177,cs),
(367,105,o),
(362,64,o),
(382,64,cs),
(405,64,o),
(446,129,o),
(481,220,c),
(511,210,l),
(462,82,o),
(384,-8,o),
(323,-8,cs),
(280,-8,o),
(271,51,o),
(302,135,cs),
(271,52,o),
(348,250,o),
(442,500,c)
);
}
);
width = 530;
},
{
associatedMasterId = m002;
layerId = "B230F159-E593-4C85-9131-13C1E6BBC8F2";
name = "6. Nov. 24, 23:15";
shapes = (
{
closed = 1;
nodes = (
(418,509,l),
(324,259,o),
(246,61,o),
(277,144,c),
(244,56,o),
(247,-7,o),
(284,-7,cs),
(348,-7,o),
(432,87,o),
(485,219,c),
(455,219,l),
(424,141,o),
(381,86,o),
(352,86,cs),
(340,86,o),
(347,127,o),
(369,186,cs),
(395,258,o),
(447,391,o),
(493,509,c)
);
},
{
closed = 1;
nodes = (
(159,517,o),
(75,423,o),
(22,291,c),
(52,291,l),
(83,369,o),
(126,424,o),
(155,424,cs),
(167,424,o),
(163,383,o),
(138,324,c),
(63,150,l),
(24,60,o),
(42,-7,o),
(94,-7,cs),
(151,-7,o),
(247,87,o),
(327,221,c),
(327,264,l),
(268,159,o),
(177,77,o),
(138,77,cs),
(114,77,o),
(131,134,o),
(160,201,c),
(230,366,l),
(267,453,o),
(260,517,o),
(223,517,cs)
);
}
);
width = 495;
},
{
anchors = (
{
name = bottom;
pos = (202,0);
},
{
name = ogonek;
pos = (419,10);
},
{
name = top;
pos = (334,435);
},
{
name = topright;
pos = (582,435);
}
);
layerId = m003;
shapes = (
{
closed = 1;
nodes = (
(278,83,o),
(183,-8,o),
(125,-8,cs),
(73,-8,o),
(60,54,o),
(93,141,cs),
(116,202,o),
(143,270,o),
(160,315,cs),
(187,387,o),
(201,438,o),
(194,438,cs),
(159,438,o),
(107,373,o),
(70,282,c),
(40,282,l),
(93,414,o),
(181,508,o),
(253,508,cs),
(285,508,o),
(284,445,o),
(251,357,cs),
(214,258,o),
(187,189,o),
(187,192,cs),
(161,118,o),
(153,66,o),
(168,66,cs),
(216,66,o),
(293,145,o),
(355,257,c),
(355,212,l)
);
},
{
closed = 1;
nodes = (
(520,500,l),
(477,395,o),
(427,261,o),
(397,177,cs),
(370,105,o),
(365,54,o),
(385,54,cs),
(408,54,o),
(449,119,o),
(484,210,c),
(514,210,l),
(465,82,o),
(387,-8,o),
(326,-8,cs),
(283,-8,o),
(274,51,o),
(305,135,cs),
(274,52,o),
(351,250,o),
(445,500,c)
);
}
);
width = 536;
},
{
associatedMasterId = m003;
layerId = "ABB09411-EC44-4418-BAB9-7685FF2C341E";
name = "6. Nov. 24, 23:15";
shapes = (
{
closed = 1;
nodes = (
(418,509,l),
(324,259,o),
(246,61,o),
(277,144,c),
(244,56,o),
(247,-7,o),
(284,-7,cs),
(348,-7,o),
(432,87,o),
(485,219,c),
(455,219,l),
(424,141,o),
(381,86,o),
(352,86,cs),
(340,86,o),
(347,127,o),
(369,186,cs),
(395,258,o),
(447,391,o),
(493,509,c)
);
},
{
closed = 1;
nodes = (
(159,517,o),
(75,423,o),
(22,291,c),
(52,291,l),
(83,369,o),
(126,424,o),
(155,424,cs),
(167,424,o),
(163,383,o),
(138,324,c),
(63,150,l),
(24,60,o),
(42,-7,o),
(94,-7,cs),
(151,-7,o),
(247,87,o),
(327,221,c),
(327,264,l),
(268,159,o),
(177,77,o),
(138,77,cs),
(114,77,o),
(131,134,o),
(160,201,c),
(230,366,l),
(267,453,o),
(260,517,o),
(223,517,cs)
);
}
);
width = 495;
}
);
metricLeft = n;
metricRight = n;
metricWidth = n;
unicode = 117;
},
{
color = 0;
glyphname = v;
lastChange = "2024-11-09 08:56:51 +0000";
layers = (
{
background = {
shapes = (
{
closed = 1;
nodes = (
(223,417,o),
(310,508,o),
(356,508,cs),
(420,508,o),
(441,446,o),
(408,359,cs),
(385,298,o),
(358,230,o),
(341,185,cs),
(314,113,o),
(308,62,o),
(327,62,cs),
(351,62,o),
(394,127,o),
(431,218,c),
(461,218,l),
(408,86,o),
(328,-8,o),
(268,-8,cs),
(224,-8,o),
(217,55,o),
(250,143,cs),
(287,241,o),
(314,310,o),
(314,308,cs),
(340,382,o),
(340,434,o),
(313,434,cs),
(278,434,o),
(208,355,o),
(146,243,c),
(146,288,l)
);
},
{
closed = 1;
nodes = (
(-19,0,l),
(21,99,o),
(72,232,o),
(104,323,cs),
(131,395,o),
(136,446,o),
(116,446,cs),
(93,446,o),
(52,381,o),
(17,290,c),
(-13,290,l),
(36,418,o),
(114,508,o),
(175,508,cs),
(218,508,o),
(227,449,o),
(196,365,cs),
(227,448,o),
(150,250,o),
(56,0,c)
);
}
);
};
layerId = m002;
shapes = (
{
closed = 1;
nodes = (
(47,280,l),
(80,371,o),
(121,436,o),
(146,436,cs),
(184,436,o),
(195,409,o),
(179,357,cs),
(169,324,o),
(91,216,o),
(77,176,cs),
(39,68,o),
(73,-8,o),
(159,-8,cs),
(240,-8,o),
(339,106,o),
(398,268,cs),
(449,408,o),
(432,507,o),
(361,507,cs),
(336,507,o),
(312,487,o),
(302,460,cs),
(293,436,o),
(297,419,o),
(314,419,cs),
(366,419,o),
(377,329,o),
(336,216,cs),
(303,123,o),
(250,57,o),
(202,57,cs),
(133,57,o),
(122,122,o),
(169,256,cs),
(208,365,o),
(239,372,o),
(262,444,cs),
(273,481,o),
(250,507,o),
(205,507,cs),
(141,507,o),
(63,417,o),
(17,290,c)
);
}
);
width = 435;
},
{
background = {
shapes = (
{
closed = 1;
nodes = (
(223,417,o),
(310,508,o),
(356,508,cs),
(420,508,o),
(441,446,o),
(408,359,cs),
(385,298,o),
(358,230,o),
(341,185,cs),
(314,113,o),
(308,62,o),
(327,62,cs),
(351,62,o),
(394,127,o),
(431,218,c),
(461,218,l),
(408,86,o),
(328,-8,o),
(268,-8,cs),
(224,-8,o),
(217,55,o),
(250,143,cs),
(287,241,o),
(314,310,o),
(314,308,cs),
(340,382,o),
(340,434,o),
(313,434,cs),
(278,434,o),
(208,355,o),
(146,243,c),
(146,288,l)
);
},
{
closed = 1;
nodes = (
(-19,0,l),
(21,99,o),
(72,232,o),
(104,323,cs),
(131,395,o),
(136,446,o),
(116,446,cs),
(93,446,o),
(52,381,o),
(17,290,c),
(-13,290,l),
(36,418,o),
(114,508,o),
(175,508,cs),
(218,508,o),
(227,449,o),
(196,365,cs),
(227,448,o),
(150,250,o),
(56,0,c)
);
}
);
};
layerId = m003;
shapes = (
{
closed = 1;
nodes = (
(50,290,l),
(83,381,o),
(124,446,o),
(149,446,cs),
(187,446,o),
(203,409,o),
(187,357,cs),
(177,324,o),
(94,216,o),
(80,176,cs),
(42,68,o),
(76,-8,o),
(162,-8,cs),
(243,-8,o),
(342,106,o),
(401,268,cs),
(452,408,o),
(435,507,o),
(364,507,cs),
(339,507,o),
(315,487,o),
(305,460,cs),
(296,436,o),
(300,419,o),
(317,419,cs),
(369,419,o),
(385,329,o),
(344,216,cs),
(311,123,o),
(253,57,o),
(205,57,cs),
(136,57,o),
(125,122,o),
(172,256,cs),
(211,365,o),
(242,372,o),
(265,444,cs),
(276,481,o),
(253,507,o),
(208,507,cs),
(144,507,o),
(66,417,o),
(20,290,c)
);
}
);
width = 441;
}
);
metricWidth = o;
unicode = 118;
},
{
color = 0;
glyphname = w;
lastChange = "2024-11-09 12:48:08 +0000";
layers = (
{
background = {
shapes = (
{
closed = 1;
nodes = (
(419,-7,o),
(518,107,o),
(568,268,cs),
(610,408,o),
(596,507,o),
(534,507,cs),
(505,507,o),
(478,485,o),
(469,455,cs),
(460,428,o),
(465,409,o),
(482,409,cs),
(534,409,o),
(547,329,o),
(513,216,cs),
(486,129,o),
(428,67,o),
(374,67,cs),
(358,67,o),
(337,78,o),
(324,93,c),
(345,115,o),
(372,170,o),
(388,224,cs),
(410,295,o),
(399,345,o),
(360,345,cs),
(303,345,o),
(244,275,o),
(217,176,cs),
(209,145,o),
(209,103,o),
(219,74,c),
(208,70,o),
(189,67,o),
(174,67,cs),
(119,67,o),
(104,145,o),
(139,256,cs),
(173,367,o),
(225,424,o),
(239,469,cs),
(246,491,o),
(228,507,o),
(195,507,cs),
(121,507,o),
(48,463,o),
(19,400,cs),
(-14,331,l),
(27,338,l),
(49,384,ls),
(57,401,o),
(82,413,o),
(109,413,cs),
(137,413,o),
(150,390,o),
(140,357,cs),
(130,324,o),
(60,216,o),
(47,176,cs),
(15,69,o),
(49,-7,o),
(129,-7,cs),
(160,-7,o),
(206,10,o),
(238,35,c),
(258,10,o),
(295,-7,o),
(329,-7,cs)
);
},
{
closed = 1;
nodes = (
(282,149,o),
(279,207,o),
(299,266,cs),
(308,288,o),
(325,304,o),
(340,304,cs),
(365,304,o),
(367,259,o),
(344,196,cs),
(335,169,o),
(319,140,o),
(306,127,c)
);
}
);
};
layerId = m002;
shapes = (
{
closed = 1;
nodes = (
(442,-8,o),
(545,106,o),
(604,268,cs),
(655,408,o),
(640,507,o),
(567,507,cs),
(542,507,o),
(518,488,o),
(508,460,cs),
(499,436,o),
(504,419,o),
(520,419,cs),
(579,419,o),
(585,335,o),
(542,216,cs),
(509,123,o),
(452,57,o),
(398,57,cs),
(375,57,o),
(353,70,o),
(337,89,c),
(369,127,o),
(421,223,o),
(448,295,cs),
(481,387,o),
(480,454,o),
(421,454,cs),
(370,454,o),
(295,356,o),
(255,218,cs),
(240,168,o),
(240,104,o),
(247,64,c),
(234,60,o),
(217,57,o),
(207,57,cs),
(147,57,o),
(138,139,o),
(179,256,cs),
(218,365,o),
(244,372,o),
(267,444,cs),
(278,481,o),
(254,507,o),
(210,507,cs),
(146,507,o),
(68,417,o),
(22,290,c),
(52,280,l),
(85,371,o),
(126,436,o),
(151,436,cs),
(189,436,o),
(205,409,o),
(189,357,cs),
(179,324,o),
(96,216,o),
(82,176,cs),
(44,68,o),
(78,-8,o),
(164,-8,cs),
(194,-8,o),
(236,7,o),
(267,29,c),
(286,7,o),
(322,-8,o),
(355,-8,cs)
);
},
{
closed = 1;
nodes = (
(305,179,o),
(312,259,o),
(335,328,cs),
(349,368,o),
(373,397,o),
(392,397,cs),
(415,397,o),
(423,346,o),
(398,273,cs),
(389,241,o),
(350,183,o),
(317,134,c)
);
}
);
width = 639;
},
{
associatedMasterId = m002;
layerId = "BC6FAEDF-3D92-49B7-9904-17E14D803783";
name = "6. Nov. 24, 23:46";
shapes = (
{
closed = 1;
nodes = (
(433,-7,o),
(532,107,o),
(582,268,cs),
(624,408,o),
(610,507,o),
(548,507,cs),
(519,507,o),
(492,485,o),
(483,455,cs),
(474,428,o),
(479,409,o),
(496,409,cs),
(548,409,o),
(561,329,o),
(527,216,cs),
(500,129,o),
(442,67,o),
(388,67,cs),
(372,67,o),
(351,78,o),
(338,93,c),
(359,115,o),
(386,170,o),
(402,224,cs),
(424,295,o),
(413,345,o),
(374,345,cs),
(317,345,o),
(258,275,o),
(231,176,cs),
(223,145,o),
(223,103,o),
(233,74,c),
(222,70,o),
(203,67,o),
(188,67,cs),
(133,67,o),
(118,145,o),
(153,256,cs),
(187,367,o),
(239,424,o),
(253,469,cs),
(260,491,o),
(242,507,o),
(209,507,cs),
(135,507,o),
(62,463,o),
(33,400,cs),
(0,331,l),
(41,338,l),
(63,384,ls),
(71,401,o),
(96,413,o),
(123,413,cs),
(151,413,o),
(164,390,o),
(154,357,cs),
(144,324,o),
(74,216,o),
(61,176,cs),
(29,69,o),
(63,-7,o),
(143,-7,cs),
(174,-7,o),
(220,10,o),
(252,35,c),
(272,10,o),
(309,-7,o),
(343,-7,cs)
);
},
{
closed = 1;
nodes = (
(296,149,o),
(293,207,o),
(313,266,cs),
(322,288,o),
(339,304,o),
(354,304,cs),
(379,304,o),
(381,259,o),
(358,196,cs),
(349,169,o),
(333,140,o),
(320,127,c)
);
}
);
width = 630;
},
{
background = {
shapes = (
{
closed = 1;
nodes = (
(419,-7,o),
(518,107,o),
(568,268,cs),
(610,408,o),
(596,507,o),
(534,507,cs),
(505,507,o),
(478,485,o),
(469,455,cs),
(460,428,o),
(465,409,o),
(482,409,cs),
(534,409,o),
(547,329,o),
(513,216,cs),
(486,129,o),
(428,67,o),
(374,67,cs),
(358,67,o),
(337,78,o),
(324,93,c),
(345,115,o),
(372,170,o),
(388,224,cs),
(410,295,o),
(399,345,o),
(360,345,cs),
(303,345,o),
(244,275,o),
(217,176,cs),
(209,145,o),
(209,103,o),
(219,74,c),
(208,70,o),
(189,67,o),
(174,67,cs),
(119,67,o),
(104,145,o),
(139,256,cs),
(173,367,o),
(225,424,o),
(239,469,cs),
(246,491,o),
(228,507,o),
(195,507,cs),
(121,507,o),
(48,463,o),
(19,400,cs),
(-14,331,l),
(27,338,l),
(49,384,ls),
(57,401,o),
(82,413,o),
(109,413,cs),
(137,413,o),
(150,390,o),
(140,357,cs),
(130,324,o),
(60,216,o),
(47,176,cs),
(15,69,o),
(49,-7,o),
(129,-7,cs),
(160,-7,o),
(206,10,o),
(238,35,c),
(258,10,o),
(295,-7,o),
(329,-7,cs)
);
},
{
closed = 1;
nodes = (
(282,149,o),
(279,207,o),
(299,266,cs),
(308,288,o),
(325,304,o),
(340,304,cs),
(365,304,o),
(367,259,o),
(344,196,cs),
(335,169,o),
(319,140,o),
(306,127,c)
);
}
);
};
layerId = m003;
shapes = (
{
closed = 1;
nodes = (
(445,-8,o),
(548,106,o),
(607,268,cs),
(658,408,o),
(643,507,o),
(570,507,cs),
(545,507,o),
(521,488,o),
(511,460,cs),
(502,436,o),
(507,419,o),
(523,419,cs),
(582,419,o),
(593,335,o),
(550,216,cs),
(517,123,o),
(455,57,o),
(401,57,cs),
(378,57,o),
(351,70,o),
(335,89,c),
(358,127,o),
(397,191,o),
(422,263,cs),
(455,356,o),
(467,454,o),
(419,454,cs),
(368,454,o),
(303,356,o),
(263,218,cs),
(248,168,o),
(243,104,o),
(250,64,c),
(237,60,o),
(220,57,o),
(210,57,cs),
(150,57,o),
(136,139,o),
(177,256,cs),
(216,365,o),
(247,372,o),
(270,444,cs),
(281,481,o),
(257,507,o),
(213,507,cs),
(149,507,o),
(71,417,o),
(25,290,c),
(55,290,l),
(88,381,o),
(129,446,o),
(154,446,cs),
(192,446,o),
(208,409,o),
(192,357,cs),
(182,324,o),
(99,216,o),
(85,176,cs),
(47,68,o),
(81,-8,o),
(167,-8,cs),
(197,-8,o),
(239,7,o),
(270,29,c),
(289,7,o),
(325,-8,o),
(358,-8,cs)
);
},
{
closed = 1;
nodes = (
(308,179,o),
(315,259,o),
(338,328,cs),
(352,368,o),
(376,397,o),
(395,397,cs),
(418,397,o),
(416,346,o),
(391,273,cs),
(382,241,o),
(353,183,o),
(320,134,c)
);
}
);
width = 645;
},
{
associatedMasterId = m003;
layerId = "5A38C2F5-2BB2-4579-8BD4-F84C47CF3AA8";
name = "6. Nov. 24, 23:46";
shapes = (
{
closed = 1;
nodes = (
(433,-7,o),
(532,107,o),
(582,268,cs),
(624,408,o),
(610,507,o),
(548,507,cs),
(519,507,o),
(492,485,o),
(483,455,cs),
(474,428,o),
(479,409,o),
(496,409,cs),
(548,409,o),
(561,329,o),
(527,216,cs),
(500,129,o),
(442,67,o),
(388,67,cs),
(372,67,o),
(351,78,o),
(338,93,c),
(359,115,o),
(386,170,o),
(402,224,cs),
(424,295,o),
(413,345,o),
(374,345,cs),
(317,345,o),
(258,275,o),
(231,176,cs),
(223,145,o),
(223,103,o),
(233,74,c),
(222,70,o),
(203,67,o),
(188,67,cs),
(133,67,o),
(118,145,o),
(153,256,cs),
(187,367,o),
(239,424,o),
(253,469,cs),
(260,491,o),
(242,507,o),
(209,507,cs),
(135,507,o),
(62,463,o),
(33,400,cs),
(0,331,l),
(41,338,l),
(63,384,ls),
(71,401,o),
(96,413,o),
(123,413,cs),
(151,413,o),
(164,390,o),
(154,357,cs),
(144,324,o),
(74,216,o),
(61,176,cs),
(29,69,o),
(63,-7,o),
(143,-7,cs),
(174,-7,o),
(220,10,o),
(252,35,c),
(272,10,o),
(309,-7,o),
(343,-7,cs)
);
},
{
closed = 1;
nodes = (
(296,149,o),
(293,207,o),
(313,266,cs),
(322,288,o),
(339,304,o),
(354,304,cs),
(379,304,o),
(381,259,o),
(358,196,cs),
(349,169,o),
(333,140,o),
(320,127,c)
);
}
);
width = 630;
}
);
unicode = 119;
},
{
color = 0;
glyphname = x;
lastChange = "2024-11-09 08:56:51 +0000";
layers = (
{
layerId = m002;
shapes = (
{
closed = 1;
nodes = (
(113,-3,o),
(419,419,o),
(462,419,cs),
(493,419,o),
(511,404,o),
(514,383,c),
(566,452,l),
(551,485,o),
(525,508,o),
(509,508,cs),
(449,508,o),
(115,91,o),
(88,91,cs),
(71,91,o),
(59,108,o),
(51,132,c),
(-13,77,l),
(-2,30,o),
(19,-3,o),
(31,-3,cs)
);
},
{
closed = 1;
nodes = (
(339,-3,o),
(392,30,o),
(431,77,c),
(409,102,l),
(387,78,o),
(359,61,o),
(342,61,cs),
(315,61,o),
(308,508,o),
(248,508,cs),
(211,508,o),
(146,472,o),
(93,422,c),
(95,383,l),
(119,416,o),
(158,439,o),
(190,439,cs),
(233,439,o),
(222,-3,o),
(304,-3,cs)
);
}
);
width = 524;
},
{
layerId = m003;
shapes = (
{
closed = 1;
nodes = (
(111,-3,o),
(417,419,o),
(460,419,cs),
(491,419,o),
(514,404,o),
(517,383,c),
(569,452,l),
(554,485,o),
(533,508,o),
(517,508,cs),
(457,508,o),
(123,91,o),
(96,91,cs),
(79,91,o),
(62,108,o),
(54,132,c),
(-10,77,l),
(1,30,o),
(17,-3,o),
(29,-3,cs)
);
},
{
closed = 1;
nodes = (
(342,-3,o),
(395,30,o),
(434,77,c),
(412,92,l),
(390,68,o),
(362,51,o),
(345,51,cs),
(318,51,o),
(311,508,o),
(251,508,cs),
(214,508,o),
(149,472,o),
(96,422,c),
(98,393,l),
(122,426,o),
(161,449,o),
(193,449,cs),
(236,449,o),
(225,-3,o),
(307,-3,cs)
);
}
);
width = 530;
}
);
unicode = 120;
},
{
color = 0;
glyphname = y;
lastChange = "2024-11-10 11:26:34 +0000";
layers = (
{
background = {
shapes = (
{
closed = 0;
nodes = (
(91,131,ls),
(48,-55,o),
(12,-176,o),
(-24,-176,cs),
(-55,-176,o),
(-65,-145,o),
(-48,-87,cs),
(-43,-74,o),
(-47,-64,o),
(-57,-64,cs),
(-91,-64,o),
(-120,-84,o),
(-128,-112,cs),
(-145,-169,o),
(-109,-209,o),
(-41,-209,cs),
(47,-209,o),
(124,-61,o),
(172,148,cs)
);
}
);
};
layerId = m002;
shapes = (
{
closed = 1;
nodes = (
(40,-209,o),
(99,-89,o),
(214,80,cs),
(291,193,o),
(391,320,o),
(434,461,cs),
(442,487,o),
(419,508,o),
(382,508,cs),
(349,508,o),
(323,484,o),
(323,453,cs),
(323,448,o),
(328,435,o),
(331,429,cs),
(359,369,o),
(273,233,o),
(174,90,cs),
(91,-29,o),
(34,-176,o),
(-30,-176,cs),
(-58,-176,o),
(-65,-143,o),
(-50,-97,cs),
(-43,-77,o),
(-46,-64,o),
(-57,-64,cs),
(-89,-64,o),
(-118,-82,o),
(-127,-108,cs),
(-147,-167,o),
(-113,-209,o),
(-44,-209,cs)
);
},
{
closed = 1;
nodes = (
(72,315,l),
(91,375,o),
(127,434,o),
(154,434,c),
(189,434,o),
(181,236,o),
(145,37,c),
(208,95,l),
(258,330,o),
(269,508,o),
(179,508,cs),
(130,508,o),
(70,429,o),
(35,315,cs)
);
}
);
width = 431;
},
{
background = {
shapes = (
{
closed = 0;
nodes = (
(94,132,ls),
(51,-54,o),
(15,-185,o),
(-21,-185,cs),
(-52,-185,o),
(-62,-144,o),
(-45,-86,cs),
(-40,-73,o),
(-44,-63,o),
(-54,-63,cs),
(-88,-63,o),
(-117,-83,o),
(-125,-111,cs),
(-142,-168,o),
(-106,-208,o),
(-38,-208,cs),
(50,-208,o),
(127,-60,o),
(175,149,cs)
);
}
);
};
layerId = m003;
shapes = (
{
closed = 1;
nodes = (
(32,-209,o),
(92,-89,o),
(207,80,cs),
(284,193,o),
(394,320,o),
(437,461,cs),
(445,487,o),
(422,508,o),
(385,508,cs),
(352,508,o),
(326,484,o),
(326,453,cs),
(326,448,o),
(331,435,o),
(334,429,cs),
(362,369,o),
(276,233,o),
(177,90,cs),
(65,-71,o),
(4,-185,o),
(-21,-185,cs),
(-45,-185,o),
(-66,-147,o),
(-48,-97,cs),
(-40,-75,o),
(-44,-63,o),
(-54,-63,cs),
(-86,-63,o),
(-115,-83,o),
(-125,-111,cs),
(-144,-168,o),
(-104,-209,o),
(-34,-209,cs)
);
},
{
closed = 1;
nodes = (
(75,315,l),
(94,375,o),
(130,434,o),
(157,434,c),
(192,434,o),
(184,236,o),
(148,37,c),
(211,95,l),
(261,330,o),
(272,508,o),
(182,508,cs),
(133,508,o),
(73,429,o),
(38,315,cs)
);
}
);
width = 437;
}
);
metricWidth = c;
unicode = 121;
},
{
color = 0;
glyphname = z;
lastChange = "2024-11-10 15:12:04 +0000";
layers = (
{
background = {
shapes = (
{
closed = 1;
nodes = (
(122,29,ls),
(114,29,o),
(115,40,o),
(124,54,c),
(229,187,o),
(296,328,o),
(408,459,c),
(419,505,l),
(137,500,l),
(59,332,l),
(91,323,l),
(131,407,o),
(177,465,o),
(202,466,cs),
(305,471,ls),
(314,471,o),
(314,462,o),
(304,450,c),
(-20,-5,l)
);
},
{
closed = 1;
nodes = (
(313,0,l),
(384,164,l),
(352,172,l),
(324,92,o),
(273,35,o),
(231,34,cs),
(16,29,l),
(-20,-5,l)
);
}
);
};
layerId = m002;
shapes = (
{
closed = 1;
nodes = (
(91,323,l),
(120,378,l),
(135,407,o),
(166,427,o),
(195,427,cs),
(219,427,o),
(269,394,o),
(301,394,cs),
(349,394,o),
(404,435,o),
(434,493,c),
(405,515,l),
(389,492,o),
(358,476,o),
(329,476,cs),
(312,476,o),
(262,509,o),
(223,509,cs),
(176,509,o),
(124,471,o),
(99,418,cs),
(59,332,l)
);
},
{
closed = 1;
nodes = (
(350,172,l),
(319,117,l),
(303,88,o),
(271,68,o),
(240,68,cs),
(214,68,o),
(161,101,o),
(127,101,cs),
(77,101,o),
(18,60,o),
(-14,2,c),
(17,-20,l),
(34,3,o),
(67,19,o),
(98,19,cs),
(116,19,o),
(169,-14,o),
(210,-14,cs),
(260,-14,o),
(315,24,o),
(342,77,cs),
(384,163,l)
);
},
{
closed = 1;
nodes = (
(434,493,l),
(405,515,l),
(-14,2,l),
(17,-20,l)
);
}
);
width = 424;
},
{
background = {
shapes = (
{
closed = 1;
nodes = (
(125,29,ls),
(117,29,o),
(118,40,o),
(127,54,c),
(232,187,o),
(299,328,o),
(411,459,c),
(422,505,l),
(140,500,l),
(62,332,l),
(84,323,l),
(124,407,o),
(170,465,o),
(195,466,cs),
(308,471,ls),
(317,471,o),
(317,462,o),
(307,450,c),
(-17,-5,l)
);
},
{
closed = 1;
nodes = (
(316,0,l),
(387,164,l),
(365,172,l),
(337,92,o),
(286,35,o),
(244,34,cs),
(19,29,l),
(-17,-5,l)
);
}
);
};
layerId = m003;
shapes = (
{
closed = 1;
nodes = (
(81,323,l),
(110,378,l),
(125,407,o),
(166,427,o),
(195,427,cs),
(219,427,o),
(269,394,o),
(301,394,cs),
(349,394,o),
(394,435,o),
(434,493,c),
(405,515,l),
(389,492,o),
(358,476,o),
(329,476,cs),
(312,476,o),
(262,509,o),
(223,509,cs),
(176,509,o),
(124,471,o),
(99,418,cs),
(59,332,l)
);
},
{
closed = 1;
nodes = (
(365,172,l),
(334,117,l),
(318,88,o),
(271,68,o),
(240,68,cs),
(214,68,o),
(161,101,o),
(127,101,cs),
(77,101,o),
(18,50,o),
(-14,2,c),
(17,-20,l),
(34,3,o),
(67,19,o),
(98,19,cs),
(116,19,o),
(169,-14,o),
(210,-14,cs),
(260,-14,o),
(315,24,o),
(342,77,cs),
(384,163,l)
);
},
{
closed = 1;
nodes = (
(434,493,l),
(412,509,l),
(-14,2,l),
(10,-14,l)
);
}
);
width = 430;
}
);
unicode = 122;
},
{
color = 0;
glyphname = s.hist;
lastChange = "2024-11-09 20:16:07 +0000";
layers = (
{
background = {
shapes = (
{
closed = 0;
nodes = (
(191,500,l),
(208,604,o),
(252,682,o),
(298,687,c),
(336,692,o),
(351,644,o),
(335,570,c),
(331,553,o),
(336,542,o),
(347,543,c),
(388,548,o),
(422,577,o),
(430,612,c),
(445,684,o),
(398,728,o),
(315,718,c),
(216,706,o),
(132,606,o),
(111,476,c)
);
},
{
closed = 0;
nodes = (
(-31,-7,l),
(-61,-108,o),
(-114,-180,o),
(-160,-180,c),
(-198,-180,o),
(-207,-130,o),
(-182,-59,c),
(-176,-43,o),
(-180,-31,o),
(-191,-31,c),
(-232,-31,o),
(-270,-55,o),
(-282,-89,c),
(-306,-159,o),
(-264,-208,o),
(-181,-208,c),
(-81,-208,o),
(15,-119,o),
(51,7,c)
);
}
);
};
layerId = m002;
shapes = (
{
closed = 1;
nodes = (
(12,-54,o),
(-24,-175,o),
(-60,-175,cs),
(-91,-175,o),
(-101,-144,o),
(-84,-86,cs),
(-79,-73,o),
(-83,-63,o),
(-93,-63,cs),
(-127,-63,o),
(-156,-83,o),
(-164,-111,cs),
(-181,-168,o),
(-145,-208,o),
(-77,-208,cs),
(11,-208,o),
(88,-60,o),
(136,149,cs),
(219,507,ls),
(243,608,o),
(286,670,o),
(322,670,cs),
(353,670,o),
(363,639,o),
(346,581,cs),
(341,568,o),
(345,558,o),
(355,558,cs),
(389,558,o),
(418,578,o),
(426,606,cs),
(443,663,o),
(407,703,o),
(339,703,cs),
(250,703,o),
(167,616,o),
(138,493,cs),
(55,132,ls)
);
}
);
width = 250;
},
{
associatedMasterId = m002;
background = {
shapes = (
{
closed = 0;
nodes = (
(232,500,l),
(249,604,o),
(293,682,o),
(339,687,c),
(377,692,o),
(392,644,o),
(376,570,c),
(372,553,o),
(377,542,o),
(388,543,c),
(429,548,o),
(463,577,o),
(471,612,c),
(486,684,o),
(439,728,o),
(356,718,c),
(257,706,o),
(173,606,o),
(152,476,c)
);
},
{
closed = 0;
nodes = (
(10,-7,l),
(-20,-108,o),
(-73,-180,o),
(-119,-180,c),
(-157,-180,o),
(-166,-130,o),
(-141,-59,c),
(-135,-43,o),
(-139,-31,o),
(-150,-31,c),
(-191,-31,o),
(-229,-55,o),
(-241,-89,c),
(-265,-159,o),
(-223,-208,o),
(-140,-208,c),
(-40,-208,o),
(56,-119,o),
(92,7,c)
);
}
);
};
layerId = "DDE45C28-3815-4D3B-808C-4CE1CBBC4185";
name = "7. Nov. 24, 19:27";
shapes = (
{
closed = 1;
nodes = (
(-19,-108,o),
(-73,-180,o),
(-119,-180,cs),
(-157,-180,o),
(-166,-130,o),
(-141,-59,cs),
(-135,-43,o),
(-139,-31,o),
(-150,-31,cs),
(-191,-31,o),
(-229,-55,o),
(-241,-89,cs),
(-265,-159,o),
(-223,-208,o),
(-140,-208,cs),
(-40,-208,o),
(56,-119,o),
(92,7,cs),
(234,507,ls),
(263,608,o),
(317,680,o),
(363,680,cs),
(401,680,o),
(410,630,o),
(385,559,cs),
(379,543,o),
(383,531,o),
(394,531,cs),
(435,531,o),
(473,555,o),
(485,589,cs),
(509,659,o),
(467,708,o),
(384,708,cs),
(284,708,o),
(188,619,o),
(152,493,cs),
(10,-7,ls)
);
},
{
closed = 1;
nodes = (
(-10,-111,o),
(-39,-185,o),
(-92,-185,cs),
(-124,-185,o),
(-131,-144,o),
(-110,-86,cs),
(-105,-73,o),
(-108,-63,o),
(-118,-63,cs),
(-151,-63,o),
(-182,-83,o),
(-192,-111,cs),
(-212,-168,o),
(-178,-208,o),
(-110,-208,cs),
(-4,-208,o),
(66,-119,o),
(102,7,cs),
(244,507,ls),
(273,608,o),
(310,680,o),
(356,680,cs),
(387,680,o),
(395,639,o),
(374,581,cs),
(369,568,o),
(373,558,o),
(382,558,cs),
(415,558,o),
(446,578,o),
(456,606,cs),
(476,663,o),
(441,703,o),
(374,703,cs),
(274,703,o),
(198,619,o),
(162,493,cs),
(20,-7,ls)
);
}
);
width = 241;
},
{
background = {
shapes = (
{
closed = 0;
nodes = (
(191,500,l),
(208,604,o),
(252,682,o),
(298,687,c),
(336,692,o),
(351,644,o),
(335,570,c),
(331,553,o),
(336,542,o),
(347,543,c),
(388,548,o),
(422,577,o),
(430,612,c),
(445,684,o),
(398,728,o),
(315,718,c),
(216,706,o),
(132,606,o),
(111,476,c)
);
},
{
closed = 0;
nodes = (
(-31,-7,l),
(-61,-108,o),
(-114,-180,o),
(-160,-180,c),
(-198,-180,o),
(-207,-130,o),
(-182,-59,c),
(-176,-43,o),
(-180,-31,o),
(-191,-31,c),
(-232,-31,o),
(-270,-55,o),
(-282,-89,c),
(-306,-159,o),
(-264,-208,o),
(-181,-208,c),
(-81,-208,o),
(15,-119,o),
(51,7,c)
);
}
);
};
layerId = m003;
shapes = (
{
closed = 1;
nodes = (
(15,-54,o),
(-21,-185,o),
(-57,-185,cs),
(-88,-185,o),
(-98,-144,o),
(-81,-86,cs),
(-76,-73,o),
(-80,-63,o),
(-90,-63,cs),
(-124,-63,o),
(-153,-83,o),
(-161,-111,cs),
(-178,-168,o),
(-142,-208,o),
(-74,-208,cs),
(14,-208,o),
(91,-60,o),
(139,149,cs),
(222,507,ls),
(246,608,o),
(289,680,o),
(325,680,cs),
(356,680,o),
(366,639,o),
(349,581,cs),
(344,568,o),
(348,558,o),
(358,558,cs),
(392,558,o),
(421,578,o),
(429,606,cs),
(446,663,o),
(410,703,o),
(342,703,cs),
(253,703,o),
(170,616,o),
(141,493,cs),
(58,132,ls)
);
}
);
width = 256;
},
{
associatedMasterId = m003;
background = {
shapes = (
{
closed = 0;
nodes = (
(232,500,l),
(249,604,o),
(293,682,o),
(339,687,c),
(377,692,o),
(392,644,o),
(376,570,c),
(372,553,o),
(377,542,o),
(388,543,c),
(429,548,o),
(463,577,o),
(471,612,c),
(486,684,o),
(439,728,o),
(356,718,c),
(257,706,o),
(173,606,o),
(152,476,c)
);
},
{
closed = 0;
nodes = (
(10,-7,l),
(-20,-108,o),
(-73,-180,o),
(-119,-180,c),
(-157,-180,o),
(-166,-130,o),
(-141,-59,c),
(-135,-43,o),
(-139,-31,o),
(-150,-31,c),
(-191,-31,o),
(-229,-55,o),
(-241,-89,c),
(-265,-159,o),
(-223,-208,o),
(-140,-208,c),
(-40,-208,o),
(56,-119,o),
(92,7,c)
);
}
);
};
layerId = "3EE5381E-AA60-47AF-A87B-D5E2A7538378";
name = "7. Nov. 24, 19:27";
shapes = (
{
closed = 1;
nodes = (
(-19,-108,o),
(-73,-180,o),
(-119,-180,cs),
(-157,-180,o),
(-166,-130,o),
(-141,-59,cs),
(-135,-43,o),
(-139,-31,o),
(-150,-31,cs),
(-191,-31,o),
(-229,-55,o),
(-241,-89,cs),
(-265,-159,o),
(-223,-208,o),
(-140,-208,cs),
(-40,-208,o),
(56,-119,o),
(92,7,cs),
(234,507,ls),
(263,608,o),
(317,680,o),
(363,680,cs),
(401,680,o),
(410,630,o),
(385,559,cs),
(379,543,o),
(383,531,o),
(394,531,cs),
(435,531,o),
(473,555,o),
(485,589,cs),
(509,659,o),
(467,708,o),
(384,708,cs),
(284,708,o),
(188,619,o),
(152,493,cs),
(10,-7,ls)
);
},
{
closed = 1;
nodes = (
(-10,-111,o),
(-39,-185,o),
(-92,-185,cs),
(-124,-185,o),
(-131,-144,o),
(-110,-86,cs),
(-105,-73,o),
(-108,-63,o),
(-118,-63,cs),
(-151,-63,o),
(-182,-83,o),
(-192,-111,cs),
(-212,-168,o),
(-178,-208,o),
(-110,-208,cs),
(-4,-208,o),
(66,-119,o),
(102,7,cs),
(244,507,ls),
(273,608,o),
(310,680,o),
(356,680,cs),
(387,680,o),
(395,639,o),
(374,581,cs),
(369,568,o),
(373,558,o),
(382,558,cs),
(415,558,o),
(446,578,o),
(456,606,cs),
(476,663,o),
(441,703,o),
(374,703,cs),
(274,703,o),
(198,619,o),
(162,493,cs),
(20,-7,ls)
);
}
);
width = 241;
}
);
metricLeft = f;
metricRight = f;
metricWidth = l;
},
{
glyphname = c_t;
lastChange = "2024-11-10 15:20:41 +0000";
layers = (
{
layerId = m002;
shapes = (
{
ref = c;
},
{
pos = (391,0);
ref = t;
},
{
closed = 1;
nodes = (
(334,354,l),
(309,355,o),
(155,580,o),
(310,580,cs),
(376,580,o),
(384,526,o),
(450,526,cs),
(484,526,o),
(558,577,o),
(576,581,c),
(560,599,l),
(542,595,o),
(504,566,o),
(490,566,cs),
(424,566,o),
(416,620,o),
(350,620,cs),
(92,620,o),
(278,344,o),
(324,344,c)
);
}
);
width = 661;
},
{
layerId = m003;
shapes = (
{
ref = c;
},
{
pos = (397,0);
ref = t;
},
{
closed = 1;
nodes = (
(334,354,l),
(309,355,o),
(155,580,o),
(310,580,cs),
(376,580,o),
(384,526,o),
(450,526,cs),
(484,526,o),
(558,577,o),
(576,581,c),
(560,599,l),
(542,595,o),
(504,566,o),
(490,566,cs),
(424,566,o),
(416,620,o),
(350,620,cs),
(92,620,o),
(278,344,o),
(324,344,c)
);
}
);
width = 673;
}
);
metricLeft = c;
metricRight = t;
},
{
glyphname = f_f;
lastChange = "2024-11-10 15:25:55 +0000";
layers = (
{
background = {
shapes = (
{
closed = 1;
nodes = (
(274,417,o),
(370,508,o),
(428,508,cs),
(480,508,o),
(493,446,o),
(460,359,cs),
(437,298,o),
(410,230,o),
(393,185,cs),
(366,113,o),
(360,72,o),
(379,72,cs),
(403,72,o),
(446,137,o),
(483,228,c),
(513,218,l),
(460,86,o),
(380,-8,o),
(320,-8,cs),
(276,-8,o),
(269,55,o),
(302,143,c),
(366,298,l),
(392,372,o),
(398,424,o),
(380,424,cs),
(335,424,o),
(259,345,o),
(197,233,c),
(197,288,l)
);
},
{
closed = 1;
nodes = (
(33,0,l),
(68,85,o),
(119,209,o),
(156,313,cs),
(183,385,o),
(188,436,o),
(168,436,cs),
(145,436,o),
(104,371,o),
(69,280,c),
(39,290,l),
(88,418,o),
(166,508,o),
(227,508,cs),
(270,508,o),
(279,449,o),
(248,365,cs),
(279,448,o),
(202,250,o),
(108,0,c)
);
}
);
};
layerId = m002;
shapes = (
{
closed = 1;
nodes = (
(55,-58,o),
(12,-175,o),
(1,-175,cs),
(-31,-175,o),
(-42,-144,o),
(-27,-86,cs),
(-23,-73,o),
(-27,-63,o),
(-37,-63,cs),
(-70,-63,o),
(-99,-83,o),
(-106,-111,cs),
(-120,-168,o),
(-82,-208,o),
(-14,-208,cs),
(51,-208,o),
(133,-63,o),
(170,142,cs),
(235,507,ls),
(253,608,o),
(272,670,o),
(309,670,cs),
(341,670,o),
(352,639,o),
(337,581,cs),
(333,568,o),
(337,558,o),
(347,558,cs),
(380,558,o),
(409,578,o),
(416,606,cs),
(430,663,o),
(392,703,o),
(324,703,cs),
(235,703,o),
(176,616,o),
(154,493,cs),
(89,128,ls)
);
},
{
closed = 1;
nodes = (
(329,408,l),
(342,450,l),
(78,450,l),
(65,408,l)
);
},
{
alignment = -1;
pos = (260,0);
ref = f;
}
);
width = 570;
},
{
background = {
shapes = (
{
closed = 1;
nodes = (
(275,417,o),
(370,508,o),
(428,508,cs),
(480,508,o),
(493,446,o),
(460,359,cs),
(437,298,o),
(410,230,o),
(393,185,cs),
(366,113,o),
(360,62,o),
(379,62,cs),
(403,62,o),
(446,127,o),
(483,218,c),
(513,218,l),
(460,86,o),
(380,-8,o),
(320,-8,cs),
(276,-8,o),
(269,55,o),
(302,143,c),
(366,308,l),
(392,382,o),
(398,434,o),
(380,434,cs),
(335,434,o),
(260,355,o),
(198,243,c),
(198,288,l)
);
},
{
closed = 1;
nodes = (
(33,0,l),
(68,85,o),
(119,219,o),
(156,323,cs),
(183,395,o),
(188,446,o),
(168,446,cs),
(145,446,o),
(104,381,o),
(69,290,c),
(39,290,l),
(88,418,o),
(166,508,o),
(227,508,cs),
(270,508,o),
(279,449,o),
(248,365,cs),
(279,448,o),
(202,250,o),
(108,0,c)
);
}
);
};
layerId = m003;
shapes = (
{
closed = 1;
nodes = (
(58,-58,o),
(15,-185,o),
(4,-185,cs),
(-28,-185,o),
(-39,-144,o),
(-24,-86,cs),
(-20,-73,o),
(-24,-63,o),
(-34,-63,cs),
(-67,-63,o),
(-96,-83,o),
(-103,-111,cs),
(-117,-168,o),
(-79,-208,o),
(-11,-208,cs),
(54,-208,o),
(136,-63,o),
(173,142,cs),
(238,507,ls),
(256,608,o),
(275,680,o),
(312,680,cs),
(344,680,o),
(355,639,o),
(340,581,cs),
(336,568,o),
(340,558,o),
(350,558,cs),
(383,558,o),
(412,578,o),
(419,606,cs),
(433,663,o),
(395,703,o),
(327,703,cs),
(238,703,o),
(179,616,o),
(157,493,cs),
(92,128,ls)
);
},
{
closed = 1;
nodes = (
(332,408,l),
(345,450,l),
(81,450,l),
(68,408,l)
);
},
{
alignment = -1;
pos = (256,0);
ref = f;
}
);
width = 572;
}
);
metricLeft = f;
metricRight = f;
},
{
glyphname = f_i;
lastChange = "2024-11-10 15:31:51 +0000";
layers = (
{
layerId = m002;
shapes = (
{
closed = 1;
nodes = (
(58,-48,o),
(15,-175,o),
(4,-175,cs),
(-28,-175,o),
(-39,-144,o),
(-24,-86,cs),
(-20,-73,o),
(-24,-63,o),
(-34,-63,cs),
(-67,-63,o),
(-96,-83,o),
(-103,-111,cs),
(-117,-168,o),
(-79,-208,o),
(-11,-208,cs),
(54,-208,o),
(135,-63,o),
(173,142,cs),
(238,497,ls),
(256,598,o),
(335,670,o),
(372,670,cs),
(444,670,o),
(435,639,o),
(420,581,cs),
(416,568,o),
(420,558,o),
(430,558,cs),
(463,558,o),
(512,578,o),
(519,606,cs),
(533,663,o),
(495,703,o),
(387,703,cs),
(298,703,o),
(180,616,o),
(157,493,cs),
(92,138,ls)
);
},
{
closed = 1;
nodes = (
(332,408,l),
(345,450,l),
(81,450,l),
(68,408,l)
);
},
{
closed = 1;
nodes = (
(331,408,l),
(348,408,o),
(361,409,o),
(383,409,cs),
(394,409,o),
(382,359,o),
(356,286,cs),
(305,143,ls),
(274,56,o),
(279,-8,o),
(323,-8,cs),
(383,-8,o),
(463,86,o),
(516,218,c),
(486,228,l),
(449,137,o),
(406,72,o),
(382,72,cs),
(363,72,o),
(369,113,o),
(396,185,cs),
(464,369,ls),
(482,419,o),
(473,451,o),
(437,451,c),
(345,450,l)
);
}
);
width = 509;
},
{
background = {
shapes = (
{
closed = 1;
nodes = (
(275,417,o),
(370,508,o),
(428,508,cs),
(480,508,o),
(493,446,o),
(460,359,cs),
(437,298,o),
(410,230,o),
(393,185,cs),
(366,113,o),
(360,62,o),
(379,62,cs),
(403,62,o),
(446,127,o),
(483,218,c),
(513,218,l),
(460,86,o),
(380,-8,o),
(320,-8,cs),
(276,-8,o),
(269,55,o),
(302,143,c),
(366,308,l),
(392,382,o),
(398,434,o),
(380,434,cs),
(335,434,o),
(260,355,o),
(198,243,c),
(198,288,l)
);
},
{
closed = 1;
nodes = (
(33,0,l),
(68,85,o),
(119,219,o),
(156,323,cs),
(183,395,o),
(188,446,o),
(168,446,cs),
(145,446,o),
(104,381,o),
(69,290,c),
(39,290,l),
(88,418,o),
(166,508,o),
(227,508,cs),
(270,508,o),
(279,449,o),
(248,365,cs),
(279,448,o),
(202,250,o),
(108,0,c)
);
}
);
};
layerId = m003;
shapes = (
{
closed = 1;
nodes = (
(58,-58,o),
(15,-185,o),
(4,-185,cs),
(-28,-185,o),
(-39,-144,o),
(-24,-86,cs),
(-20,-73,o),
(-24,-63,o),
(-34,-63,cs),
(-67,-63,o),
(-96,-83,o),
(-103,-111,cs),
(-117,-168,o),
(-79,-208,o),
(-11,-208,cs),
(54,-208,o),
(136,-63,o),
(173,142,cs),
(238,507,ls),
(256,608,o),
(335,680,o),
(372,680,cs),
(444,680,o),
(435,639,o),
(420,581,cs),
(416,568,o),
(420,558,o),
(430,558,cs),
(463,558,o),
(512,578,o),
(519,606,cs),
(533,663,o),
(495,703,o),
(387,703,cs),
(298,703,o),
(179,616,o),
(157,493,cs),
(92,128,ls)
);
},
{
closed = 1;
nodes = (
(332,408,l),
(345,450,l),
(81,450,l),
(68,408,l)
);
},
{
closed = 1;
nodes = (
(331,408,l),
(348,408,o),
(361,409,o),
(383,409,cs),
(394,409,o),
(382,359,o),
(356,286,cs),
(305,143,ls),
(274,56,o),
(279,-8,o),
(323,-8,cs),
(383,-8,o),
(463,86,o),
(516,218,c),
(486,218,l),
(449,127,o),
(406,62,o),
(382,62,cs),
(363,62,o),
(369,113,o),
(396,185,cs),
(464,369,ls),
(482,419,o),
(473,451,o),
(437,451,c),
(345,450,l)
);
}
);
width = 512;
}
);
metricLeft = f;
metricRight = i;
},
{
glyphname = s_t;
lastChange = "2024-11-10 15:21:45 +0000";
layers = (
{
layerId = m002;
shapes = (
{
ref = s;
},
{
pos = (391,0);
ref = t;
},
{
closed = 1;
nodes = (
(314,354,l),
(289,355,o),
(115,580,o),
(310,580,cs),
(376,580,o),
(384,526,o),
(450,526,cs),
(484,526,o),
(558,577,o),
(576,581,c),
(560,599,l),
(542,595,o),
(504,566,o),
(490,566,cs),
(424,566,o),
(416,620,o),
(350,620,cs),
(52,620,o),
(258,344,o),
(304,344,c)
);
}
);
width = 661;
},
{
layerId = m003;
shapes = (
{
ref = s;
},
{
pos = (397,0);
ref = t;
},
{
closed = 1;
nodes = (
(314,354,l),
(289,355,o),
(115,580,o),
(310,580,cs),
(376,580,o),
(384,526,o),
(450,526,cs),
(484,526,o),
(558,577,o),
(576,581,c),
(560,599,l),
(542,595,o),
(504,566,o),
(490,566,cs),
(424,566,o),
(416,620,o),
(350,620,cs),
(52,620,o),
(258,344,o),
(304,344,c)
);
}
);
width = 673;
}
);
metricLeft = s;
metricRight = t;
},
{
glyphname = period;
lastChange = "2024-11-09 08:52:11 +0000";
layers = (
{
layerId = m002;
shapes = (
{
closed = 1;
nodes = (
(131,-4,o),
(157,28,o),
(157,67,cs),
(157,106,o),
(131,138,o),
(99,138,cs),
(67,138,o),
(41,106,o),
(41,67,cs),
(41,28,o),
(67,-4,o),
(99,-4,cs)
);
}
);
width = 280;
},
{
layerId = m003;
shapes = (
{
closed = 1;
nodes = (
(134,-4,o),
(160,28,o),
(160,67,cs),
(160,106,o),
(134,138,o),
(102,138,cs),
(70,138,o),
(44,106,o),
(44,67,cs),
(44,28,o),
(70,-4,o),
(102,-4,cs)
);
}
);
width = 286;
}
);
unicode = 46;
},
